<?xml version="1.0" encoding="UTF-8"?>
<svg width="52px" height="52px" viewBox="0 0 52 52" version="1.1" xmlns="http://www.w3.org/2000/svg" xmlns:xlink="http://www.w3.org/1999/xlink">
    <!-- Generator: Sketch 57.1 (83088) - https://sketch.com -->
    <title>icon_normal查看所有设备</title>
    <desc>Created with Sketch.</desc>
    <defs>
        <linearGradient x1="50%" y1="2.05078125%" x2="50%" y2="100%" id="linearGradient-1">
            <stop stop-color="#12BBFE" offset="0%"></stop>
            <stop stop-color="#4131DE" offset="100%"></stop>
        </linearGradient>
        <rect id="path-2" x="-3.55271368e-15" y="-3.55271368e-15" width="48" height="48" rx="12"></rect>
        <filter x="-5.2%" y="-5.2%" width="114.6%" height="114.6%" filterUnits="objectBoundingBox" id="filter-3">
            <feOffset dx="1" dy="1" in="SourceAlpha" result="shadowOffsetOuter1"></feOffset>
            <feGaussianBlur stdDeviation="1" in="shadowOffsetOuter1" result="shadowBlurOuter1"></feGaussianBlur>
            <feColorMatrix values="0 0 0 0 0   0 0 0 0 0   0 0 0 0 0  0 0 0 0.296601836 0" type="matrix" in="shadowBlurOuter1"></feColorMatrix>
        </filter>
        <path d="M32.3333333,9 C36.0152317,9 39,11.9847683 39,15.6666667 L39,25.7261905 C39,26.613791 38.2804576,27.3333333 37.3928571,27.3333333 C36.5052567,27.3333333 35.7857143,26.613791 35.7857143,25.7261905 L35.785,21.115 L12.478022,21.1153846 C12.3881634,21.1153846 12.3001503,21.1074832 12.2146395,21.0923373 L12.2146395,26.8252451 C12.3001503,26.8100992 12.3881634,26.8021978 12.478022,26.8021978 L24.3131868,26.8021978 C25.1416139,26.8021978 25.8131868,27.4737707 25.8131868,28.3021978 L25.8131868,28.5164835 C25.8131868,29.3449106 25.1416139,30.0164835 24.3131868,30.0164835 L12.478022,30.0164835 C12.3881634,30.0164835 12.3001503,30.0085821 12.2146395,29.9934362 L12.2142857,32.3333333 C12.2142857,34.5424723 13.2192266,35.6446415 15.3927072,35.7857143 L25.7261905,35.7857143 C26.613791,35.7857143 27.3333333,36.5052567 27.3333333,37.3928571 C27.3333333,38.2804576 26.613791,39 25.7261905,39 L15.6666667,39 C11.9847683,39 9,36.0152317 9,32.3333333 L9,15.6666667 C9,11.9847683 11.9847683,9 15.6666667,9 L32.3333333,9 Z M32.1181319,27.2967033 C34.7809333,27.2967033 36.9395604,29.4553304 36.9395604,32.1181319 C36.9395604,32.7397047 36.8219396,33.3338058 36.6077413,33.8793917 C36.6613895,33.9063339 36.7142321,33.9397434 36.7649343,33.9773635 L36.9091373,34.1018517 L38.623423,35.8161374 C39.1255257,36.3182401 39.1255257,37.1323094 38.623423,37.634412 C38.166966,38.090869 37.4526854,38.1323651 36.9493515,37.7589003 L36.8051484,37.634412 L35.0908627,35.9201263 C34.2690344,36.5576363 33.2381847,36.9395604 32.1181319,36.9395604 C29.4553304,36.9395604 27.2967033,34.7809333 27.2967033,32.1181319 C27.2967033,29.4553304 29.4553304,27.2967033 32.1181319,27.2967033 Z M32.1181319,29.7074176 C30.7867311,29.7074176 29.7074176,30.7867311 29.7074176,32.1181319 C29.7074176,33.4495326 30.7867311,34.5288462 32.1181319,34.5288462 C33.4495326,34.5288462 34.5288462,33.4495326 34.5288462,32.1181319 C34.5288462,30.7867311 33.4495326,29.7074176 32.1181319,29.7074176 Z M16.9120879,31.7472527 C17.4583036,31.7472527 17.9010989,32.190048 17.9010989,32.7362637 C17.9010989,33.2824794 17.4583036,33.7252747 16.9120879,33.7252747 L14.9340659,33.7252747 C14.3878502,33.7252747 13.9450549,33.2824794 13.9450549,32.7362637 C13.9450549,32.190048 14.3878502,31.7472527 14.9340659,31.7472527 L16.9120879,31.7472527 Z M22.8461538,31.7472527 C23.3923695,31.7472527 23.8351648,32.190048 23.8351648,32.7362637 C23.8351648,33.2824794 23.3923695,33.7252747 22.8461538,33.7252747 L20.8681319,33.7252747 C20.3219162,33.7252747 19.8791209,33.2824794 19.8791209,32.7362637 C19.8791209,32.190048 20.3219162,31.7472527 20.8681319,31.7472527 L22.8461538,31.7472527 Z M16.9120879,22.8461538 C17.4583036,22.8461538 17.9010989,23.2889491 17.9010989,23.8351648 C17.9010989,24.3813805 17.4583036,24.8241758 16.9120879,24.8241758 L14.9340659,24.8241758 C14.3878502,24.8241758 13.9450549,24.3813805 13.9450549,23.8351648 C13.9450549,23.2889491 14.3878502,22.8461538 14.9340659,22.8461538 L16.9120879,22.8461538 Z M22.8461538,22.8461538 C23.3923695,22.8461538 23.8351648,23.2889491 23.8351648,23.8351648 C23.8351648,24.3813805 23.3923695,24.8241758 22.8461538,24.8241758 L20.8681319,24.8241758 C20.3219162,24.8241758 19.8791209,24.3813805 19.8791209,23.8351648 C19.8791209,23.2889491 20.3219162,22.8461538 20.8681319,22.8461538 L22.8461538,22.8461538 Z M32.6072928,12.2142857 L15.6666667,12.2142857 C13.4575277,12.2142857 12.3553585,13.2192266 12.2142857,15.3927072 L12.2146395,17.9241462 C12.3001503,17.9090003 12.3881634,17.9010989 12.478022,17.9010989 L35.785,17.901 L35.7857143,15.6666667 C35.7857143,13.4575277 34.7807734,12.3553585 32.6072928,12.2142857 Z M16.9120879,13.9450549 C17.4583036,13.9450549 17.9010989,14.3878502 17.9010989,14.9340659 C17.9010989,15.4802816 17.4583036,15.9230769 16.9120879,15.9230769 L14.9340659,15.9230769 C14.3878502,15.9230769 13.9450549,15.4802816 13.9450549,14.9340659 C13.9450549,14.3878502 14.3878502,13.9450549 14.9340659,13.9450549 L16.9120879,13.9450549 Z M22.8461538,13.9450549 C23.3923695,13.9450549 23.8351648,14.3878502 23.8351648,14.9340659 C23.8351648,15.4802816 23.3923695,15.9230769 22.8461538,15.9230769 L20.8681319,15.9230769 C20.3219162,15.9230769 19.8791209,15.4802816 19.8791209,14.9340659 C19.8791209,14.3878502 20.3219162,13.9450549 20.8681319,13.9450549 L22.8461538,13.9450549 Z" id="path-4"></path>
        <filter x="-13.3%" y="-6.7%" width="126.7%" height="126.7%" filterUnits="objectBoundingBox" id="filter-5">
            <feOffset dx="0" dy="2" in="SourceAlpha" result="shadowOffsetOuter1"></feOffset>
            <feGaussianBlur stdDeviation="1" in="shadowOffsetOuter1" result="shadowBlurOuter1"></feGaussianBlur>
            <feColorMatrix values="0 0 0 0 0   0 0 0 0 0   0 0 0 0 0  0 0 0 0.15 0" type="matrix" in="shadowBlurOuter1"></feColorMatrix>
        </filter>
    </defs>
    <g id="页面-1" stroke="none" stroke-width="1" fill="none" fill-rule="evenodd">
        <g id="icon_normal查看所有设备" transform="translate(1.000000, 1.000000)">
            <g id="矩形">
                <use fill="black" fill-opacity="1" filter="url(#filter-3)" xlink:href="#path-2"></use>
                <use fill="url(#linearGradient-1)" fill-rule="evenodd" xlink:href="#path-2"></use>
            </g>
            <g id="形状结合">
                <use fill="black" fill-opacity="1" filter="url(#filter-5)" xlink:href="#path-4"></use>
                <use fill="#FFFFFF" fill-rule="evenodd" xlink:href="#path-4"></use>
            </g>
        </g>
    </g>
</svg>