<?xml version="1.0" encoding="UTF-8"?>
<svg width="13px" height="13px" viewBox="0 0 13 13" version="1.1" xmlns="http://www.w3.org/2000/svg" xmlns:xlink="http://www.w3.org/1999/xlink">
    <!-- Generator: Sketch 57.1 (83088) - https://sketch.com -->
    <title>appstore add</title>
    <desc>Created with Sketch.</desc>
    <g id="页面-1" stroke="none" stroke-width="1" fill="none" fill-rule="evenodd">
        <g id="appstore-add" transform="translate(-1.000000, -2.000000)" fill-rule="nonzero">
            <polygon id="矩形" fill="#DB2856" opacity="0" points="0 0 8.60885951 0 16 0 16 16 0 16"></polygon>
            <path d="M7.25,2.25 L2.5,2.25 C2.3625,2.25 2.25,2.3625 2.25,2.5 L2.25,7.25 C2.25,7.3875 2.3625,7.5 2.5,7.5 L7.25,7.5 C7.3875,7.5 7.5,7.3875 7.5,7.25 L7.5,2.5 C7.5,2.3625 7.3875,2.25 7.25,2.25 Z M6.4375,6.4375 L3.3125,6.4375 L3.3125,3.3125 L6.4375,3.3125 L6.4375,6.4375 Z M13.5,2.25 L8.75,2.25 C8.6125,2.25 8.5,2.3625 8.5,2.5 L8.5,7.25 C8.5,7.3875 8.6125,7.5 8.75,7.5 L13.5,7.5 C13.6375,7.5 13.75,7.3875 13.75,7.25 L13.75,2.5 C13.75,2.3625 13.6375,2.25 13.5,2.25 Z M12.6875,6.4375 L9.5625,6.4375 L9.5625,3.3125 L12.6875,3.3125 L12.6875,6.4375 Z M13.5,8.5 L8.75,8.5 C8.6125,8.5 8.5,8.6125 8.5,8.75 L8.5,13.5 C8.5,13.6375 8.6125,13.75 8.75,13.75 L13.5,13.75 C13.6375,13.75 13.75,13.6375 13.75,13.5 L13.75,8.75 C13.75,8.6125 13.6375,8.5 13.5,8.5 Z M12.6875,12.6875 L9.5625,12.6875 L9.5625,9.5625 L12.6875,9.5625 L12.6875,12.6875 Z M6.625,11.125 L4.625,11.125 L4.625,9.125 C4.625,9.05625 4.56875,9 4.5,9 L3.75,9 C3.68125,9 3.625,9.05625 3.625,9.125 L3.625,11.125 L1.625,11.125 C1.55625,11.125 1.5,11.18125 1.5,11.25 L1.5,12 C1.5,12.06875 1.55625,12.125 1.625,12.125 L3.625,12.125 L3.625,14.125 C3.625,14.19375 3.68125,14.25 3.75,14.25 L4.5,14.25 C4.56875,14.25 4.625,14.19375 4.625,14.125 L4.625,12.125 L6.625,12.125 C6.69375,12.125 6.75,12.06875 6.75,12 L6.75,11.25 C6.75,11.18125 6.69375,11.125 6.625,11.125 Z" id="形状" fill="#7F3DED"></path>
        </g>
    </g>
</svg>