<svg xmlns="http://www.w3.org/2000/svg" xmlns:xlink="http://www.w3.org/1999/xlink" width="28.72" height="28.688" viewBox="0 0 28.72 28.688">
  <defs>
    <style>
      .cls-1 {
        fill-rule: evenodd;
        filter: url(#filter);
      }
    </style>
    <filter id="filter" x="1127.12" y="828" width="28.72" height="28.688" filterUnits="userSpaceOnUse">
      <feFlood result="flood" flood-color="#737373"/>
      <feComposite result="composite" operator="in" in2="SourceGraphic"/>
      <feBlend result="blend" in2="SourceGraphic"/>
    </filter>
  </defs>
  <path id="应用数据获取" class="cls-1" d="M1148.66,856.687h-14.35a1.2,1.2,0,0,1,0-2.391h5.98v-5.977h-9.56a3.589,3.589,0,0,1-3.59-3.586h0V831.584a3.589,3.589,0,0,1,3.59-3.586h21.51a3.589,3.589,0,0,1,3.59,3.586v13.149a3.589,3.589,0,0,1-3.59,3.586h-9.56V854.3h5.98A1.2,1.2,0,0,1,1148.66,856.687Zm-7.18-10.759h10.76a1.2,1.2,0,0,0,1.2-1.2h0V831.584a1.2,1.2,0,0,0-1.2-1.195h-21.51a1.2,1.2,0,0,0-1.2,1.195v13.149a1.2,1.2,0,0,0,1.2,1.2h1.78l4.38-6.6a1.2,1.2,0,0,1,1.47-.43l3.89,1.7,3.34-3.706a3.584,3.584,0,1,1,4.91,1.237,3.532,3.532,0,0,1-3.04.294l-3.97,4.41a1.189,1.189,0,0,1-1.36.3l-3.8-1.637-2.95,4.434h6.1Zm7.18-12.073a1.2,1.2,0,1,0,1.19,1.2A1.2,1.2,0,0,0,1148.66,833.855Z" transform="translate(-1127.12 -828)"/>
</svg>
