<?xml version="1.0" encoding="UTF-8"?>
<svg width="52px" height="52px" viewBox="0 0 52 52" version="1.1" xmlns="http://www.w3.org/2000/svg" xmlns:xlink="http://www.w3.org/1999/xlink">
    <!-- Generator: Sketch 57.1 (83088) - https://sketch.com -->
    <title>icon_normal获取日志</title>
    <desc>Created with Sketch.</desc>
    <defs>
        <linearGradient x1="50%" y1="2.05078125%" x2="50%" y2="100%" id="linearGradient-1">
            <stop stop-color="#00A9DC" offset="0%"></stop>
            <stop stop-color="#02CC92" offset="100%"></stop>
        </linearGradient>
        <rect id="path-2" x="-3.55271368e-15" y="-3.55271368e-15" width="48" height="48" rx="12"></rect>
        <filter x="-5.2%" y="-5.2%" width="114.6%" height="114.6%" filterUnits="objectBoundingBox" id="filter-3">
            <feOffset dx="1" dy="1" in="SourceAlpha" result="shadowOffsetOuter1"></feOffset>
            <feGaussianBlur stdDeviation="1" in="shadowOffsetOuter1" result="shadowBlurOuter1"></feGaussianBlur>
            <feColorMatrix values="0 0 0 0 0   0 0 0 0 0   0 0 0 0 0  0 0 0 0.296601836 0" type="matrix" in="shadowBlurOuter1"></feColorMatrix>
        </filter>
        <path d="M35,10 C36.6568542,10 38,11.3431458 38,13 L38,36 C38,37.6568542 36.6568542,39 35,39 L15,39 C13.3431458,39 12,37.6568542 12,36 L12,32.5 C12,31.6715729 12.6715729,31 13.5,31 C14.3284271,31 15,31.6715729 15,32.5 L15,34.0002967 C15,35.1047023 15.8952977,36 16.9997033,36 L33.0002967,36 C34.1047023,36 35,35.1047023 35,34.0002967 L35,14.9997033 C35,13.8952977 34.1047023,13 33.0002967,13 L16.9997033,13 C15.8952977,13 15,13.8952977 15,14.9997033 L15,16.5 C15,17.3284271 14.3284271,18 13.5,18 C12.6715729,18 12,17.3284271 12,16.5 L12,13 C12,11.3431458 13.3431458,10 15,10 L35,10 Z M28.5,29 C29.3284271,29 30,29.6715729 30,30.5 C30,31.3284271 29.3284271,32 28.5,32 L19.5,32 C18.6715729,32 18,31.3284271 18,30.5 C18,29.6715729 18.6715729,29 19.5,29 L28.5,29 Z M15.5,26 C16.3284271,26 17,26.6715729 17,27.5 C17,28.3284271 16.3284271,29 15.5,29 L11.5,29 C10.6715729,29 10,28.3284271 10,27.5 C10,26.6715729 10.6715729,26 11.5,26 L15.5,26 Z M30.5,23 C31.3284271,23 32,23.6715729 32,24.5 C32,25.3284271 31.3284271,26 30.5,26 L19.5,26 C18.6715729,26 18,25.3284271 18,24.5 C18,23.6715729 18.6715729,23 19.5,23 L30.5,23 Z M15.5,20 C16.3284271,20 17,20.6715729 17,21.5 C17,22.3284271 16.3284271,23 15.5,23 L11.5,23 C10.6715729,23 10,22.3284271 10,21.5 C10,20.6715729 10.6715729,20 11.5,20 L15.5,20 Z M25.5,17 C26.3284271,17 27,17.6715729 27,18.5 C27,19.3284271 26.3284271,20 25.5,20 L19.5,20 C18.6715729,20 18,19.3284271 18,18.5 C18,17.6715729 18.6715729,17 19.5,17 L25.5,17 Z M30.5,17 C31.3284271,17 32,17.6715729 32,18.5 C32,19.3284271 31.3284271,20 30.5,20 C29.6715729,20 29,19.3284271 29,18.5 C29,17.6715729 29.6715729,17 30.5,17 Z" id="path-4"></path>
        <filter x="-14.3%" y="-6.9%" width="128.6%" height="127.6%" filterUnits="objectBoundingBox" id="filter-5">
            <feOffset dx="0" dy="2" in="SourceAlpha" result="shadowOffsetOuter1"></feOffset>
            <feGaussianBlur stdDeviation="1" in="shadowOffsetOuter1" result="shadowBlurOuter1"></feGaussianBlur>
            <feColorMatrix values="0 0 0 0 0   0 0 0 0 0   0 0 0 0 0  0 0 0 0.15 0" type="matrix" in="shadowBlurOuter1"></feColorMatrix>
        </filter>
    </defs>
    <g id="页面-1" stroke="none" stroke-width="1" fill="none" fill-rule="evenodd">
        <g id="icon_normal获取日志" transform="translate(1.000000, 1.000000)">
            <g id="矩形">
                <use fill="black" fill-opacity="1" filter="url(#filter-3)" xlink:href="#path-2"></use>
                <use fill="url(#linearGradient-1)" fill-rule="evenodd" xlink:href="#path-2"></use>
            </g>
            <g id="形状结合">
                <use fill="black" fill-opacity="1" filter="url(#filter-5)" xlink:href="#path-4"></use>
                <use fill="#FFFFFF" fill-rule="evenodd" xlink:href="#path-4"></use>
            </g>
        </g>
    </g>
</svg>