<svg xmlns="http://www.w3.org/2000/svg" xmlns:xlink="http://www.w3.org/1999/xlink" width="39.18" height="28.344" viewBox="0 0 39.18 28.344">
  <defs>
    <style>
      .cls-1 {
        fill: #004ea2;
        fill-rule: evenodd;
        filter: url(#filter);
      }
    </style>
    <filter id="filter" x="1048.88" y="828.344" width="39.18" height="28.344" filterUnits="userSpaceOnUse">
      <feFlood result="flood" flood-color="#737373"/>
      <feComposite result="composite" operator="in" in2="SourceGraphic"/>
      <feBlend result="blend" in2="SourceGraphic"/>
    </filter>
  </defs>
  <path id="应用统一设置" class="cls-1" d="M1087.93,847.794a0.711,0.711,0,0,0-.53-0.652h-0.04a2.437,2.437,0,0,1-1.62-3.112,0.719,0.719,0,0,0-.19-0.825,6.885,6.885,0,0,0-2.46-1.618,0.729,0.729,0,0,0-.82.19,2.131,2.131,0,0,1-1.76.714,2.478,2.478,0,0,1-1.71-.882,0.724,0.724,0,0,0-.81-0.217,9.556,9.556,0,0,0-2.53,1.392,0.7,0.7,0,0,0-.29.807,2.6,2.6,0,0,1-.3,1.96,2.493,2.493,0,0,1-1.56,1.055,0.077,0.077,0,0,0-.07.035,1.061,1.061,0,0,0-.51.541v0.036a7.818,7.818,0,0,0-.2,1.516,6.115,6.115,0,0,0,.09,1.49,0.711,0.711,0,0,0,.53.652h0.03a2.433,2.433,0,0,1,1.63,3.112,0.719,0.719,0,0,0,.19.825,6.751,6.751,0,0,0,2.49,1.618,1.176,1.176,0,0,0,.15.045l0.11,0a0.828,0.828,0,0,0,.6-0.24,2.246,2.246,0,0,1,1.76-.713,2.478,2.478,0,0,1,1.71.882,0.748,0.748,0,0,0,.51.279,0.593,0.593,0,0,0,.26-0.026,9.586,9.586,0,0,0,2.53-1.393,0.681,0.681,0,0,0,.29-0.806,2.643,2.643,0,0,1,.3-1.96,2.489,2.489,0,0,1,1.56-1.055,0.077,0.077,0,0,0,.07-0.036,1.061,1.061,0,0,0,.51-0.541v-0.035a7.827,7.827,0,0,0,.2-1.517,9.514,9.514,0,0,0-.12-1.525h0Zm-7.77,3.8a2.6,2.6,0,1,1,2.69-2.5A2.572,2.572,0,0,1,1080.16,851.589Zm-9.89-.554h-12.42a6.067,6.067,0,0,1-6.06-5.347,5.95,5.95,0,0,1,5.93-6.487h0.55l1.66,0.107,0.52-1.57a9.568,9.568,0,0,1,9.16-6.477,9.878,9.878,0,0,1,9.79,8.9,2.244,2.244,0,0,0,1.01.244,2.3,2.3,0,0,0,1.84-.811,12.869,12.869,0,0,0-7.7-10.238,12.709,12.709,0,0,0-12.33,1.339,12.309,12.309,0,0,0-4.33,5.658h-0.11a8.908,8.908,0,0,0-6.89,3.241,8.686,8.686,0,0,0-1.71,3.285,8.673,8.673,0,0,0,3,9.08,9.219,9.219,0,0,0,5.73,1.991h12.36A1.457,1.457,0,0,0,1070.27,851.035Z" transform="translate(-1048.88 -828.344)"/>
</svg>
