<?xml version="1.0" encoding="UTF-8"?>
<svg width="14px" height="14px" viewBox="0 0 14 14" version="1.1" xmlns="http://www.w3.org/2000/svg" xmlns:xlink="http://www.w3.org/1999/xlink">
    <!-- Generator: Sketch 57.1 (83088) - https://sketch.com -->
    <title>Basic data</title>
    <desc>Created with Sketch.</desc>
    <g id="页面-1" stroke="none" stroke-width="1" fill="none" fill-rule="evenodd">
        <g id="Basic-data" transform="translate(-1.000000, -1.000000)" fill-rule="nonzero">
            <rect id="矩形" fill="#6BC508" opacity="0" x="0" y="0" width="16" height="16"></rect>
            <path d="M7.5,2.55869589 C7.57173559,2.55869589 7.67277974,2.56128004 7.80547316,2.56638628 L7.80547316,2.56638628 L8.29387604,2.58518075 L8.21411805,7.65298583 L13.4638969,7.69449771 L13.4872738,8.16598934 C13.4957236,8.33641228 13.5,8.46631709 13.5,8.55869589 C13.5,11.8724044 10.8137085,14.5586959 7.5,14.5586959 C4.1862915,14.5586959 1.5,11.8724044 1.5,8.55869589 C1.5,5.2449874 4.1862915,2.55869589 7.5,2.55869589 Z M7.27835492,3.56352061 C4.61977846,3.67949127 2.5,5.87154319 2.5,8.55869589 C2.5,11.3201196 4.73857625,13.5586959 7.5,13.5586959 C10.2185628,13.5586959 12.4303828,11.3890716 12.4983885,8.68689436 L12.4983885,8.68689436 L7.19838195,8.64498531 Z M9.09711476,1.49353375 L9.6035392,1.50004128 C9.71382975,1.5014585 9.79747221,1.50359761 9.8569183,1.50664545 C11.1589411,1.57340109 12.36405,2.14223918 13.2428066,3.07814795 C14.0302068,3.91675873 14.5091877,5.00132806 14.5861172,6.16599837 C14.5911562,6.24228704 14.5946957,6.3498042 14.5970462,6.49171974 L14.5970462,6.49171974 L14.6054647,7 L9.09711476,7 L9.09711476,1.49353375 Z M10.0971148,2.53093018 L10.0971148,6 L13.5662028,6 C13.4611264,5.15710695 13.0914376,4.37786036 12.5137912,3.7626453 C11.8763412,3.0837371 11.0258861,2.6467771 10.0971148,2.53093018 L10.0971148,2.53093018 Z" id="形状结合" fill="#0052C7"></path>
        </g>
    </g>
</svg>