<svg xmlns="http://www.w3.org/2000/svg" xmlns:xlink="http://www.w3.org/1999/xlink" width="32.31" height="32.312" viewBox="0 0 32.31 32.312">
  <defs>
    <style>
      .cls-1 {
        fill-rule: evenodd;
        filter: url(#filter);
      }
    </style>
    <filter id="filter" x="1129.66" y="827.688" width="32.31" height="32.312" filterUnits="userSpaceOnUse">
      <feFlood result="flood" flood-color="#737373"/>
      <feComposite result="composite" operator="in" in2="SourceGraphic"/>
      <feBlend result="blend" in2="SourceGraphic"/>
    </filter>
  </defs>
  <path id="霸屏设置" class="cls-1" d="M1141.09,832.536h-5.05a1.113,1.113,0,0,0-1.11,1.113v4.8a1.115,1.115,0,0,0,2.23,0v-3.686h3.93A1.114,1.114,0,0,0,1141.09,832.536Zm14.47,0h-5.04a1.114,1.114,0,0,0,0,2.227h3.93v3.686a1.115,1.115,0,0,0,2.23,0v-4.8A1.115,1.115,0,0,0,1155.56,832.536Zm-14.47,20.4h-3.93v-3.687a1.115,1.115,0,0,0-2.23,0v4.8a1.114,1.114,0,0,0,1.11,1.114h5.05A1.114,1.114,0,0,0,1141.09,852.931Zm14.47-4.8a1.114,1.114,0,0,0-1.11,1.114v3.687h-3.93a1.114,1.114,0,0,0,0,2.228h5.04a1.116,1.116,0,0,0,1.12-1.114v-4.8A1.116,1.116,0,0,0,1155.56,848.13Zm4.17-20.434h-27.85a2.231,2.231,0,0,0-2.23,2.227v27.848a2.232,2.232,0,0,0,2.23,2.228h27.85a2.223,2.223,0,0,0,2.22-2.228V829.923A2.222,2.222,0,0,0,1159.73,827.7Zm-27.85,30.075V829.923h27.85v27.848h-27.85Z" transform="translate(-1129.66 -827.688)"/>
</svg>
