<svg xmlns="http://www.w3.org/2000/svg" xmlns:xlink="http://www.w3.org/1999/xlink" width="26.44" height="30.219" viewBox="0 0 26.44 30.219">
  <defs>
    <style>
      .cls-1 {
        fill-rule: evenodd;
        filter: url(#filter);
      }
    </style>
    <filter id="filter" x="1093.44" y="828" width="26.44" height="30.219" filterUnits="userSpaceOnUse">
      <feFlood result="flood" flood-color="#737373"/>
      <feComposite result="composite" operator="in" in2="SourceGraphic"/>
      <feBlend result="blend" in2="SourceGraphic"/>
    </filter>
  </defs>
  <path id="黑白名单" class="cls-1" d="M1097.21,833.666a1.892,1.892,0,0,0-1.89,1.889v18.886a1.892,1.892,0,0,0,1.89,1.889h15.11a1.892,1.892,0,0,0,1.89-1.889V835.555a1.892,1.892,0,0,0-1.89-1.889h-15.11Zm0-1.889h15.11a3.778,3.778,0,0,1,3.78,3.778v18.886a3.777,3.777,0,0,1-3.78,3.778h-15.11a3.777,3.777,0,0,1-3.78-3.778V835.555A3.778,3.778,0,0,1,1097.21,831.777Zm8.65-1.888h10.24a1.891,1.891,0,0,1,1.89,1.888v19.184l1.88,3.28V831.777A3.775,3.775,0,0,0,1116.1,828h-11.33Zm0,0h10.24a1.891,1.891,0,0,1,1.89,1.888v19.184l1.88,3.28V831.777A3.775,3.775,0,0,0,1116.1,828h-11.33Zm-7.3,13.9,1.26-1.409,3.23,2.888a0.947,0.947,0,0,0,1.29-.028l6.07-5.912,1.32,1.352-6.07,5.914a2.828,2.828,0,0,1-3.86.085l-3.24-2.894v0Zm0.63,8.1V850h11.46v1.889h-11.46Z" transform="translate(-1093.44 -828)"/>
</svg>
