<?xml version="1.0" encoding="UTF-8"?>
<svg width="22px" height="22px" viewBox="0 0 22 22" version="1.1" xmlns="http://www.w3.org/2000/svg" xmlns:xlink="http://www.w3.org/1999/xlink">
    <!-- Generator: Sketch 57.1 (83088) - https://sketch.com -->
    <title>message</title>
    <desc>Created with Sketch.</desc>
    <g id="页面-1" stroke="none" stroke-width="1" fill="none" fill-rule="evenodd">
        <g id="message" transform="translate(-1.000000, -1.000000)" fill-rule="nonzero">
            <rect id="矩形" fill="#000000" opacity="0" x="0" y="0" width="24" height="24"></rect>
            <path d="M10.875,12 C10.875,12.6213203 11.3786797,13.125 12,13.125 C12.6213203,13.125 13.125,12.6213203 13.125,12 C13.125,11.3786797 12.6213203,10.875 12,10.875 C11.3786797,10.875 10.875,11.3786797 10.875,12 Z M15.5625,12 C15.5625,12.6213203 16.0661797,13.125 16.6875,13.125 C17.3088203,13.125 17.8125,12.6213203 17.8125,12 C17.8125,11.3786797 17.3088203,10.875 16.6875,10.875 C16.0661797,10.875 15.5625,11.3786797 15.5625,12 Z M6.1875,12 C6.1875,12.6213203 6.69117966,13.125 7.3125,13.125 C7.93382034,13.125 8.4375,12.6213203 8.4375,12 C8.4375,11.3786797 7.93382034,10.875 7.3125,10.875 C6.69117966,10.875 6.1875,11.3786797 6.1875,12 Z M21.684375,7.93125 C21.1546875,6.67265625 20.3953125,5.54296875 19.4273438,4.57265625 C18.459375,3.6046875 17.3296875,2.84296875 16.06875,2.315625 C14.7796875,1.77421875 13.4109375,1.5 12,1.5 L11.953125,1.5 C10.5328125,1.50703125 9.15703125,1.78828125 7.86328125,2.34140625 C6.6140625,2.87578125 5.49375,3.63515625 4.53515625,4.603125 C3.5765625,5.57109375 2.82421875,6.69609375 2.30390625,7.95 C1.76484375,9.2484375 1.49296875,10.6289063 1.49986703,12.0492187 C1.50703125,13.6757812 1.89609375,15.290625 2.625,16.734375 L2.625,20.296875 C2.625,20.8921875 3.1078125,21.375 3.703125,21.375 L7.26796875,21.375 C8.71171875,22.1039063 10.3265625,22.4929688 11.953125,22.5 L12.0023438,22.5 C13.40625,22.5 14.7679688,22.228125 16.05,21.6960938 C17.3039063,21.1734375 18.43125,20.4234375 19.396875,19.4648438 C20.3648437,18.50625 21.1265625,17.3859375 21.6585938,16.1367188 C22.2117188,14.8429687 22.4929687,13.4671875 22.5001308,12.046875 C22.5070312,10.6195313 22.2304688,9.234375 21.684375,7.93125 L21.684375,7.93125 Z M18.1429688,18.196875 C16.5,19.8234375 14.3203125,20.71875 12,20.71875 L11.9601563,20.71875 C10.546875,20.7117188 9.14296875,20.3601563 7.903125,19.6992188 L7.70625,19.59375 L4.40625,19.59375 L4.40625,16.29375 L4.30078125,16.096875 C3.63984375,14.8570313 3.28828125,13.453125 3.28117693,12.0398438 C3.271875,9.703125 4.16484375,7.509375 5.803125,5.85703125 C7.4390625,4.2046875 9.62578125,3.290625 11.9625,3.28125 L12.0023438,3.28125 C13.1742188,3.28125 14.3109375,3.50859375 15.3820313,3.95859375 C16.4273438,4.396875 17.3648437,5.02734375 18.1710938,5.83359375 C18.975,6.6375 19.6078125,7.57734375 20.0460937,8.62265625 C20.5007812,9.70546875 20.728125,10.8539063 20.7235085,12.0398438 C20.709375,14.3742188 19.7929688,16.5609375 18.1429688,18.196875 Z" id="形状" fill="#FFFFFF"></path>
        </g>
    </g>
</svg>