<?xml version="1.0" encoding="UTF-8"?>
<svg width="16px" height="14px" viewBox="0 0 16 14" version="1.1" xmlns="http://www.w3.org/2000/svg" xmlns:xlink="http://www.w3.org/1999/xlink">
    <!-- Generator: Sketch 57.1 (83088) - https://sketch.com -->
    <title>综合设置</title>
    <desc>Created with Sketch.</desc>
    <g id="2023年2月15日" stroke="none" stroke-width="1" fill="none" fill-rule="evenodd">
        <g id="综合设置" transform="translate(0.000000, -1.000000)">
            <rect id="矩形" fill="#87BD1B" fill-rule="nonzero" opacity="0" x="0" y="0" width="16" height="16"></rect>
            <path d="M11.5108961,5.83733998 C11.511435,5.83887975 11.5119932,5.84041457 11.5125707,5.84194408 L11.5108961,5.83733998 Z M11.4549883,5.69697822 C11.3211326,5.38251003 11.1402805,5.09008492 10.9160096,4.82551214 L10.0123613,5.12960913 L9.80049245,4.96513924 C9.55889496,4.77759158 9.28973954,4.6302942 8.99918167,4.52695422 L8.73057727,4.43142222 L8.67598385,4.15161113 L8.55641599,3.53877993 C8.18959904,3.48699035 7.80881436,3.48704704 7.4435464,3.53873338 L7.26854975,4.4341722 L7.00111629,4.53008257 C6.7120792,4.63374072 6.44472534,4.78047357 6.20566704,4.96653615 L5.99371974,5.13149784 L5.73915719,5.04587118 L5.08418892,4.82555913 C4.85842585,5.09266459 4.67741021,5.38572987 4.54498285,5.69680399 L5.27394951,6.28594052 L5.2234748,6.57572515 C5.19954913,6.71308686 5.18750424,6.85571424 5.18750424,6.99977677 C5.18750424,7.14465297 5.1995354,7.28711773 5.22339705,7.4233832 L5.27418614,7.71342178 L5.04517454,7.89850445 L4.54513224,8.30262841 C4.67924854,8.61719241 4.8602458,8.90998047 5.08401196,9.17405216 L5.99371974,8.86805571 L6.20566704,9.0330174 C6.44610497,9.22015376 6.71339058,9.36704042 7.00001524,9.46907755 L7.26840131,9.56462183 L7.32304313,9.84421808 L7.44353661,10.4607736 C7.62741349,10.4868172 7.81394277,10.5 8,10.5 C8.18661056,10.5 8.37405925,10.4867389 8.55639755,10.4608657 L8.73057727,9.56813132 L8.99918167,9.47259933 C9.29141699,9.36866275 9.55996699,9.22188755 9.79971653,9.03501786 L10.0117611,8.86974243 L10.2665673,8.95549017 L10.9158229,9.17398052 C11.1412861,8.90722701 11.32212,8.61458236 11.454499,8.30396609 L10.7341031,7.72089253 L10.7839188,7.43184861 C10.808501,7.28921609 10.8209845,7.14439979 10.8209845,7.00066968 C10.8209845,6.85693957 10.808501,6.71212327 10.7839188,6.56949075 L10.7341031,6.28044683 L10.9620892,6.09591956 L11.4549888,5.69697783 Z M5.163356,4.73510263 C5.16413523,4.73425785 5.16490849,4.73340455 5.16567569,4.73254276 L5.163356,4.73510263 Z M10.836644,9.26445092 C10.8358648,9.2652957 10.8350915,9.26614899 10.8343243,9.26701079 L10.836644,9.26445092 Z" id="路径" stroke="#2477EF" fill-rule="nonzero"></path>
            <path d="M8.35358774,7.35358738 C8.44874755,7.2575565 8.5,7.13358656 8.5,7 C8.5,6.86602412 8.44844838,6.741721 8.35358947,6.64641053 C8.25832771,6.55114878 8.13471816,6.5 8,6.5 C7.86528184,6.5 7.74167229,6.55114878 7.64724537,6.64557372 C7.55155162,6.741721 7.5,6.86602412 7.5,7 C7.5,7.13397588 7.55155162,7.258279 7.64557372,7.35275463 C7.741721,7.44844838 7.86602412,7.5 8,7.5 C8.13358656,7.5 8.2575565,7.44874755 8.35358738,7.35358774 Z M8.35358738,7.35358774 C8.35386725,7.35331041 8.35414688,7.35303271 8.35442628,7.35275463 L8.35275463,7.35442628 C8.35303271,7.35414688 8.35331041,7.35386725 8.35358774,7.35358738 Z" id="路径" stroke="#2477EF" fill-rule="nonzero"></path>
            <rect id="矩形" stroke="#2477EF" x="0.5" y="1.5" width="15" height="11" rx="2"></rect>
            <rect id="矩形" fill="#2477EF" x="3" y="14" width="10" height="1" rx="0.5"></rect>
        </g>
    </g>
</svg>