<svg xmlns="http://www.w3.org/2000/svg" xmlns:xlink="http://www.w3.org/1999/xlink" width="29.376" height="30.219" viewBox="0 0 29.376 30.219">
  <defs>
    <style>
      .cls-1 {
        fill: #004ea2;
        fill-rule: evenodd;
        filter: url(#filter);
      }
    </style>
    <filter id="filter" x="932.312" y="828" width="29.376" height="30.219" filterUnits="userSpaceOnUse">
      <feFlood result="flood" flood-color="#737373"/>
      <feComposite result="composite" operator="in" in2="SourceGraphic"/>
      <feBlend result="blend" in2="SourceGraphic"/>
    </filter>
  </defs>
  <path id="内容推送" class="cls-1" d="M955.3,858.219H935.874a3.538,3.538,0,0,1-3.57-3.56v-23.1a3.538,3.538,0,0,1,3.57-3.56h19.593a3.539,3.539,0,0,1,3.57,3.56v6.209a0.914,0.914,0,0,1-1.827,0V831.56a1.749,1.749,0,0,0-1.743-1.739H935.874a1.749,1.749,0,0,0-1.744,1.739v23.1a1.748,1.748,0,0,0,1.744,1.738h19.593a0.87,0.87,0,0,1,.913.911,0.965,0.965,0,0,1-1.079.911h0Zm-1.578-22.188H937.617a0.911,0.911,0,1,1,0-1.822H953.64a0.87,0.87,0,0,1,.913.911,0.976,0.976,0,0,1-.83.911h0Zm-5.4,7.037h-10.71a0.911,0.911,0,1,1,0-1.821h10.71a0.87,0.87,0,0,1,.913.91A0.917,0.917,0,0,1,948.327,843.068Zm-5.314,7.12H937.7a0.911,0.911,0,1,1,0-1.821h5.313a0.87,0.87,0,0,1,.914.91A0.974,0.974,0,0,1,943.013,850.188Zm16.19,4.967a0.612,0.612,0,0,1-.5-0.165l-3.9-3.063a0.771,0.771,0,1,1,.914-1.242l2.822,2.152,1.246-11.011-10.378,6.209,1.993,0.5a0.734,0.734,0,1,1-.416,1.408l-3.735-.994a0.617,0.617,0,0,1-.5-0.745,0.8,0.8,0,0,1,.332-0.745l13.367-8.031a0.874,0.874,0,0,1,.913,0,1.233,1.233,0,0,1,.332.745l-1.577,14.075a0.886,0.886,0,0,1-.5.745,0.841,0.841,0,0,1-.415.165h0Zm-6.393,0a0.974,0.974,0,0,1-.913-0.91v-4.3a0.607,0.607,0,0,1,.166-0.5l7.887-9.769a0.9,0.9,0,0,1,1.411,1.076l-7.638,9.6v4.056a0.844,0.844,0,0,1-.913.745h0Z" transform="translate(-932.312 -828)"/>
</svg>
