<?xml version="1.0" encoding="UTF-8"?>
<svg width="13px" height="14px" viewBox="0 0 13 14" version="1.1" xmlns="http://www.w3.org/2000/svg" xmlns:xlink="http://www.w3.org/1999/xlink">
    <!-- Generator: Sketch 57.1 (83088) - https://sketch.com -->
    <title>container</title>
    <desc>Created with Sketch.</desc>
    <g id="页面-1" stroke="none" stroke-width="1" fill="none" fill-rule="evenodd">
        <g id="container" transform="translate(-2.000000, -1.000000)" fill-rule="nonzero">
            <rect id="矩形" fill="#000000" opacity="0" x="0" y="0" width="16" height="16"></rect>
            <path d="M13.9545455,1 L3.04545455,1 C2.74375,1 2.5,1.2234375 2.5,1.5 L2.5,14.5 C2.5,14.7765625 2.74375,15 3.04545455,15 L13.9545455,15 C14.25625,15 14.5,14.7765625 14.5,14.5 L14.5,1.5 C14.5,1.2234375 14.25625,1 13.9545455,1 Z M13.2727273,13.875 L3.72727273,13.875 L3.72727273,10.734375 L5.39602273,10.734375 C5.59375,11.246875 5.94147727,11.7078125 6.40340909,12.0578125 C6.99147727,12.503125 7.73636364,12.75 8.5,12.75 C9.26363636,12.75 10.0085227,12.5046875 10.5965909,12.0578125 C11.0585227,11.7078125 11.40625,11.246875 11.6039773,10.734375 L13.2727273,10.734375 L13.2727273,9.75 L10.7431818,9.75 L10.6545455,10.1359375 C10.45,11.0703125 9.54318182,11.75 8.5,11.75 C7.45681818,11.75 6.55,11.0703125 6.34375,10.1359375 L6.25511364,9.75 L3.72727273,9.75 L3.72727273,2.125 L13.2727273,2.125 L13.2727273,13.875 Z M5.22727273,5.328125 L11.7727273,5.328125 C11.8477273,5.328125 11.9090909,5.271875 11.9090909,5.203125 L11.9090909,4.453125 C11.9090909,4.384375 11.8477273,4.328125 11.7727273,4.328125 L5.22727273,4.328125 C5.15227273,4.328125 5.09090909,4.384375 5.09090909,4.453125 L5.09090909,5.203125 C5.09090909,5.271875 5.15227273,5.328125 5.22727273,5.328125 Z M5.22727273,7.828125 L11.7727273,7.828125 C11.8477273,7.828125 11.9090909,7.771875 11.9090909,7.703125 L11.9090909,6.953125 C11.9090909,6.884375 11.8477273,6.828125 11.7727273,6.828125 L5.22727273,6.828125 C5.15227273,6.828125 5.09090909,6.884375 5.09090909,6.953125 L5.09090909,7.703125 C5.09090909,7.771875 5.15227273,7.828125 5.22727273,7.828125 Z" id="形状" fill="#F6BD16"></path>
        </g>
    </g>
</svg>