<?xml version="1.0" encoding="UTF-8"?>
<svg width="52px" height="52px" viewBox="0 0 52 52" version="1.1" xmlns="http://www.w3.org/2000/svg" xmlns:xlink="http://www.w3.org/1999/xlink">
    <!-- Generator: Sketch 57.1 (83088) - https://sketch.com -->
    <title>icon_normal桌面设置</title>
    <desc>Created with Sketch.</desc>
    <defs>
        <linearGradient x1="50%" y1="0%" x2="50%" y2="100%" id="linearGradient-1">
            <stop stop-color="#1FB4EC" offset="0%"></stop>
            <stop stop-color="#5E50E0" offset="100%"></stop>
        </linearGradient>
        <rect id="path-2" x="0" y="0" width="48" height="48" rx="10"></rect>
        <filter x="-5.2%" y="-5.2%" width="114.6%" height="114.6%" filterUnits="objectBoundingBox" id="filter-3">
            <feOffset dx="1" dy="1" in="SourceAlpha" result="shadowOffsetOuter1"></feOffset>
            <feGaussianBlur stdDeviation="1" in="shadowOffsetOuter1" result="shadowBlurOuter1"></feGaussianBlur>
            <feColorMatrix values="0 0 0 0 0   0 0 0 0 0   0 0 0 0 0  0 0 0 0.296601836 0" type="matrix" in="shadowBlurOuter1"></feColorMatrix>
        </filter>
        <filter x="-23.5%" y="-28.6%" width="147.1%" height="157.1%" filterUnits="objectBoundingBox" id="filter-4">
            <feOffset dx="0" dy="2" in="SourceAlpha" result="shadowOffsetOuter1"></feOffset>
            <feGaussianBlur stdDeviation="1" in="shadowOffsetOuter1" result="shadowBlurOuter1"></feGaussianBlur>
            <feColorMatrix values="0 0 0 0 0   0 0 0 0 0   0 0 0 0 0  0 0 0 0.15 0" type="matrix" in="shadowBlurOuter1" result="shadowMatrixOuter1"></feColorMatrix>
            <feMerge>
                <feMergeNode in="shadowMatrixOuter1"></feMergeNode>
                <feMergeNode in="SourceGraphic"></feMergeNode>
            </feMerge>
        </filter>
        <path d="M18.7756981,13.12961 L17.4628906,12.0276967 C17.5250235,11.6538332 17.5570921,11.2720989 17.5570921,10.8903647 C17.5570921,10.5086304 17.5250235,10.1268961 17.4628906,9.75303268 L18.7756981,8.65111934 C18.9781311,8.48189693 19.0522896,8.2064186 18.9620968,7.95848809 L18.9440582,7.90732783 C18.5812824,6.91363812 18.0441336,6.00062421 17.346642,5.19386623 L17.3105649,5.15254447 C17.1381962,4.95380653 16.8596004,4.87903384 16.6070604,4.96561275 L14.9775756,5.53427874 C14.3762897,5.05022395 13.7048538,4.66848969 12.9793022,4.40088216 L12.6646292,2.72833512 C12.6165263,2.47056611 12.4100848,2.26986046 12.1475233,2.22263561 L12.0934076,2.21279709 C11.0491744,2.02783307 9.95082555,2.02783307 8.90659239,2.21279709 L8.85247666,2.22263561 C8.58991515,2.26986046 8.38347367,2.47056611 8.33537079,2.72833512 L8.01869356,4.40875297 C7.29915478,4.67636049 6.63172744,5.05612706 6.03445012,5.53821414 L4.39293964,4.96561275 C4.14240385,4.87903384 3.86180377,4.95183883 3.68943515,5.15254447 L3.65335799,5.19386623 C2.95586636,6.00259191 2.41871763,6.91560582 2.05594181,7.90732783 L2.03790323,7.95848809 C1.94771035,8.20445089 2.02186894,8.47992923 2.22430186,8.65111934 L3.55314368,9.76483889 C3.4910108,10.1347669 3.46094651,10.5125658 3.46094651,10.888397 C3.46094651,11.2661958 3.4910108,11.6439947 3.55314368,12.011955 L2.22430186,13.1256746 C2.02186894,13.294897 1.94771035,13.5703753 2.03790323,13.8183058 L2.05594181,13.8694661 C2.41871763,14.8611881 2.95586636,15.7761697 3.65335799,16.5829277 L3.68943515,16.6242495 C3.86180377,16.8229874 4.14039956,16.8977601 4.39293964,16.8111812 L6.03445012,16.2385798 C6.63172744,16.7206669 7.29915478,17.1024011 8.01869356,17.368041 L8.33537079,19.0484588 C8.38347367,19.3062278 8.58991515,19.5069335 8.85247666,19.5541583 L8.90659239,19.5639968 C9.42971111,19.6564788 9.96485556,19.7037037 10.5,19.7037037 C11.0351444,19.7037037 11.5722932,19.6564788 12.0934076,19.5639968 L12.1475233,19.5541583 C12.4100848,19.5069335 12.6165263,19.3062278 12.6646292,19.0484588 L12.9793022,17.3759118 C13.7048538,17.1083042 14.3762897,16.7285377 14.9775756,16.2425152 L16.6070604,16.8111812 C16.8575961,16.8977601 17.1381962,16.8249551 17.3105649,16.6242495 L17.346642,16.5829277 C18.0441336,15.774202 18.5812824,14.8611881 18.9440582,13.8694661 L18.9620968,13.8183058 C19.0522896,13.5762784 18.9781311,13.3008001 18.7756981,13.12961 L18.7756981,13.12961 Z M16.0398473,9.98522156 C16.0899545,10.2823446 16.1160102,10.5873385 16.1160102,10.8923324 C16.1160102,11.1973262 16.0899545,11.5023201 16.0398473,11.7994432 L15.9075644,12.5884918 L17.4047663,13.8458537 C17.178282,14.359424 16.891669,14.8434788 16.5509403,15.2940826 L14.6909627,14.6467085 L14.0616168,15.1543758 C13.5825923,15.5400454 13.0494522,15.8430716 12.4722177,16.0555835 L11.7085846,16.3369649 L11.3498174,18.2456362 C10.7866129,18.3086027 10.2113828,18.3086027 9.64617404,18.2456362 L9.28740679,16.3330295 L8.52978657,16.0477126 C7.95856497,15.8352008 7.4274291,15.5321746 6.95241325,15.1484727 L6.32306735,14.6388377 L4.45106394,15.2921149 C4.11033527,14.8415111 3.82572662,14.3554886 3.59723798,13.843886 L5.11047413,12.5747179 L4.98019553,11.787637 C4.93209265,11.4944493 4.90603693,11.1914231 4.90603693,10.8923324 C4.90603693,10.5912739 4.93008837,10.2902154 4.98019553,9.99702778 L5.11047413,9.20994682 L3.59723798,7.94077877 C3.82372233,7.42720845 4.11033527,6.94315366 4.45106394,6.49254981 L6.32306735,7.145827 L6.95241325,6.63619208 C7.4274291,6.25249011 7.95856497,5.94946395 8.52978657,5.73695209 L9.28941107,5.45557064 L9.64817832,3.54296391 C10.2113828,3.47999744 10.7866129,3.47999744 11.3518217,3.54296391 L11.7105889,5.45163524 L12.474222,5.73301668 C13.0494522,5.94552854 13.5845966,6.24855471 14.063621,6.63422438 L14.6929669,7.1418916 L16.5529446,6.49451751 C16.8936733,6.94512136 17.178282,7.43114385 17.4067706,7.94274647 L15.9095687,9.20010831 L16.0398473,9.98522156 Z M10.5020043,7.23240591 C8.553838,7.23240591 6.9744604,8.7829554 6.9744604,10.6955621 C6.9744604,12.6081689 8.553838,14.1587183 10.5020043,14.1587183 C12.4501706,14.1587183 14.0295482,12.6081689 14.0295482,10.6955621 C14.0295482,8.7829554 12.4501706,7.23240591 10.5020043,7.23240591 Z M12.089399,12.2539824 C11.6644903,12.6691676 11.1012859,12.8993888 10.5020043,12.8993888 C9.90272268,12.8993888 9.33951823,12.6691676 8.91460954,12.2539824 C8.49170513,11.8368295 8.25720363,11.2839051 8.25720363,10.6955621 C8.25720363,10.1072191 8.49170513,9.55429474 8.91460954,9.13714183 C9.33951823,8.71998892 9.90272268,8.49173544 10.5020043,8.49173544 C11.1012859,8.49173544 11.6644903,8.71998892 12.089399,9.13714183 C12.5123034,9.55429474 12.7468049,10.1072191 12.7468049,10.6955621 C12.7468049,11.2839051 12.5123034,11.8368295 12.089399,12.2539824 Z" id="path-5"></path>
        <filter x="-23.5%" y="-11.3%" width="147.1%" height="145.4%" filterUnits="objectBoundingBox" id="filter-6">
            <feOffset dx="0" dy="2" in="SourceAlpha" result="shadowOffsetOuter1"></feOffset>
            <feGaussianBlur stdDeviation="1" in="shadowOffsetOuter1" result="shadowBlurOuter1"></feGaussianBlur>
            <feColorMatrix values="0 0 0 0 0   0 0 0 0 0   0 0 0 0 0  0 0 0 0.15 0" type="matrix" in="shadowBlurOuter1"></feColorMatrix>
        </filter>
    </defs>
    <g id="页面-1" stroke="none" stroke-width="1" fill="none" fill-rule="evenodd">
        <g id="icon_normal桌面设置" transform="translate(1.000000, 1.000000)">
            <g id="矩形">
                <use fill="black" fill-opacity="1" filter="url(#filter-3)" xlink:href="#path-2"></use>
                <use fill="url(#linearGradient-1)" fill-rule="evenodd" xlink:href="#path-2"></use>
            </g>
            <g id="编组-11" filter="url(#filter-4)" transform="translate(7.000000, 10.000000)">
                <g id="setting" transform="translate(7.000000, 2.268519)" fill-rule="nonzero">
                    <rect id="矩形" fill="#000000" opacity="0" x="0" y="0" width="20" height="20.7407407"></rect>
                    <g id="形状">
                        <use fill="black" fill-opacity="1" filter="url(#filter-6)" xlink:href="#path-5"></use>
                        <use fill="#FFFFFF" xlink:href="#path-5"></use>
                    </g>
                </g>
                <path d="M3,0 L31,0 C32.6568542,0 34,1.39289189 34,3.11111111 L34,22.8148148 C34,24.533034 32.6568542,25.9259259 31,25.9259259 L3,25.9259259 C1.34314575,25.9259259 0,24.533034 0,22.8148148 L0,3.11111111 C0,1.39289189 1.34314575,0 3,0 Z M3,3.11111111 L3,22.8148148 L31,22.8148148 L31,3.11111111 L3,3.11111111 Z" id="矩形" fill="#FFFFFF" fill-rule="nonzero"></path>
                <rect id="矩形备份-4" stroke="#FFFFFF" stroke-width="3" fill="#D8D8D8" x="10.75" y="25.2546296" width="13" height="1.14814815"></rect>
            </g>
        </g>
    </g>
</svg>