<?xml version="1.0" encoding="UTF-8"?>
<svg width="76px" height="76px" viewBox="0 0 76 76" version="1.1" xmlns="http://www.w3.org/2000/svg" xmlns:xlink="http://www.w3.org/1999/xlink">
    <!-- Generator: Sketch 57.1 (83088) - https://sketch.com -->
    <title>icon_hover设备配置</title>
    <desc>Created with Sketch.</desc>
    <defs>
        <linearGradient x1="50%" y1="0%" x2="50%" y2="96.1361988%" id="linearGradient-1">
            <stop stop-color="#35CCFF" offset="0%"></stop>
            <stop stop-color="#1A40EA" offset="100%"></stop>
        </linearGradient>
        <rect id="path-2" x="0" y="0" width="72" height="72" rx="18"></rect>
        <filter x="-1.4%" y="-1.4%" width="105.6%" height="105.6%" filterUnits="objectBoundingBox" id="filter-3">
            <feGaussianBlur stdDeviation="0" in="SourceGraphic"></feGaussianBlur>
        </filter>
        <filter x="-3.5%" y="-3.5%" width="109.7%" height="109.7%" filterUnits="objectBoundingBox" id="filter-4">
            <feOffset dx="1" dy="1" in="SourceAlpha" result="shadowOffsetOuter1"></feOffset>
            <feGaussianBlur stdDeviation="1" in="shadowOffsetOuter1" result="shadowBlurOuter1"></feGaussianBlur>
            <feComposite in="shadowBlurOuter1" in2="SourceAlpha" operator="out" result="shadowBlurOuter1"></feComposite>
            <feColorMatrix values="0 0 0 0 0   0 0 0 0 0   0 0 0 0 0  0 0 0 0.296601836 0" type="matrix" in="shadowBlurOuter1"></feColorMatrix>
        </filter>
        <path d="M48.76875,32.9958984 L45.3146484,30.0427734 C45.478125,29.0408203 45.5625,28.0177734 45.5625,26.9947266 C45.5625,25.9716797 45.478125,24.9486328 45.3146484,23.9466797 L48.76875,20.9935547 C49.3013672,20.5400391 49.4964844,19.8017578 49.2591797,19.1373047 L49.2117188,19.0001953 C48.2572266,16.3371094 46.8439453,13.8902344 45.0087891,11.728125 L44.9138672,11.6173828 C44.4603516,11.0847656 43.7273438,10.884375 43.0628906,11.1164063 L38.7755859,12.6404297 C37.1935547,11.3431641 35.4269531,10.3201172 33.5179688,9.60292969 L32.6900391,5.12050781 C32.5634766,4.4296875 32.0203125,3.89179688 31.3294922,3.76523438 L31.1871094,3.73886719 C28.4396484,3.24316406 25.5498047,3.24316406 22.8023438,3.73886719 L22.6599609,3.76523438 C21.9691406,3.89179688 21.4259766,4.4296875 21.2994141,5.12050781 L20.4662109,9.62402344 C18.5730469,10.3412109 16.8169922,11.3589844 15.2455078,12.6509766 L10.9265625,11.1164063 C10.2673828,10.884375 9.52910156,11.0794922 9.07558594,11.6173828 L8.98066406,11.728125 C7.14550781,13.8955078 5.73222656,16.3423828 4.77773437,19.0001953 L4.73027344,19.1373047 C4.49296875,19.7964844 4.68808594,20.5347656 5.22070312,20.9935547 L8.71699219,23.9783203 C8.55351562,24.9697266 8.47441406,25.9822266 8.47441406,26.9894531 C8.47441406,28.0019531 8.55351562,29.0144531 8.71699219,30.0005859 L5.22070313,32.9853516 C4.68808594,33.4388672 4.49296875,34.1771484 4.73027344,34.8416016 L4.77773438,34.9787109 C5.73222656,37.6365234 7.14550781,40.0886719 8.98066406,42.2507813 L9.07558594,42.3615234 C9.52910156,42.8941406 10.2621094,43.0945313 10.9265625,42.8625 L15.2455078,41.3279297 C16.8169922,42.6199219 18.5730469,43.6429688 20.4662109,44.3548828 L21.2994141,48.8583984 C21.4259766,49.5492188 21.9691406,50.0871094 22.6599609,50.2136719 L22.8023438,50.2400391 C24.1787109,50.4878906 25.5867188,50.6144531 26.9947266,50.6144531 C28.4027344,50.6144531 29.8160156,50.4878906 31.1871094,50.2400391 L31.3294922,50.2136719 C32.0203125,50.0871094 32.5634766,49.5492188 32.6900391,48.8583984 L33.5179688,44.3759766 C35.4269531,43.6587891 37.1935547,42.6410156 38.7755859,41.3384766 L43.0628906,42.8625 C43.7220703,43.0945313 44.4603516,42.8994141 44.9138672,42.3615234 L45.0087891,42.2507813 C46.8439453,40.0833984 48.2572266,37.6365234 49.2117188,34.9787109 L49.2591797,34.8416016 C49.4964844,34.1929688 49.3013672,33.4546875 48.76875,32.9958984 L48.76875,32.9958984 Z M41.5705078,24.5689453 C41.7023438,25.3652344 41.7708984,26.1826172 41.7708984,27 C41.7708984,27.8173828 41.7023438,28.6347656 41.5705078,29.4310547 L41.2224609,31.5457031 L45.1617188,34.9154297 C44.5658203,36.2917969 43.8117188,37.5890625 42.9152344,38.7966797 L38.0214844,37.0617188 L36.365625,38.4222656 C35.1052734,39.4558594 33.7025391,40.2679688 32.1837891,40.8375 L30.1746094,41.5916016 L29.2306641,46.7068359 C27.7488281,46.8755859 26.2353516,46.8755859 24.7482422,46.7068359 L23.8042969,41.5810547 L21.8109375,40.8164063 C20.3080078,40.246875 18.9105469,39.4347656 17.6607422,38.4064453 L16.0048828,37.040625 L11.0794922,38.7914063 C10.1830078,37.5837891 9.43417969,36.28125 8.83300781,34.9101563 L12.8144531,31.5087891 L12.4716797,29.3994141 C12.3451172,28.6136719 12.2765625,27.8015625 12.2765625,27 C12.2765625,26.1931641 12.3398438,25.3863281 12.4716797,24.6005859 L12.8144531,22.4912109 L8.83300781,19.0898438 C9.42890625,17.7134766 10.1830078,16.4162109 11.0794922,15.2085937 L16.0048828,16.959375 L17.6607422,15.5935547 C18.9105469,14.5652344 20.3080078,13.753125 21.8109375,13.1835937 L23.8095703,12.4294922 L24.7535156,7.30371094 C26.2353516,7.13496094 27.7488281,7.13496094 29.2359375,7.30371094 L30.1798828,12.4189453 L32.1890625,13.1730469 C33.7025391,13.7425781 35.1105469,14.5546875 36.3708984,15.5882813 L38.0267578,16.9488281 L42.9205078,15.2138672 C43.8169922,16.4214844 44.5658203,17.7240234 45.1669922,19.0951172 L41.2277344,22.4648438 L41.5705078,24.5689453 Z M27,17.1914062 C21.8742188,17.1914062 17.71875,21.346875 17.71875,26.4726562 C17.71875,31.5984375 21.8742188,35.7539063 27,35.7539063 C32.1257813,35.7539063 36.28125,31.5984375 36.28125,26.4726562 C36.28125,21.346875 32.1257813,17.1914062 27,17.1914062 Z M31.1765625,30.6492188 C30.0585937,31.7619141 28.5767578,32.3789063 27,32.3789063 C25.4232422,32.3789063 23.9414062,31.7619141 22.8234375,30.6492188 C21.7107422,29.53125 21.09375,28.0494141 21.09375,26.4726563 C21.09375,24.8958984 21.7107422,23.4140625 22.8234375,22.2960938 C23.9414062,21.178125 25.4232422,20.5664063 27,20.5664063 C28.5767578,20.5664063 30.0585937,21.178125 31.1765625,22.2960938 C32.2892578,23.4140625 32.90625,24.8958984 32.90625,26.4726563 C32.90625,28.0494141 32.2892578,29.53125 31.1765625,30.6492188 Z" id="path-5"></path>
        <filter x="-8.9%" y="-4.2%" width="117.9%" height="116.9%" filterUnits="objectBoundingBox" id="filter-6">
            <feOffset dx="0" dy="2" in="SourceAlpha" result="shadowOffsetOuter1"></feOffset>
            <feGaussianBlur stdDeviation="1" in="shadowOffsetOuter1" result="shadowBlurOuter1"></feGaussianBlur>
            <feColorMatrix values="0 0 0 0 0   0 0 0 0 0   0 0 0 0 0  0 0 0 0.15 0" type="matrix" in="shadowBlurOuter1"></feColorMatrix>
        </filter>
    </defs>
    <g id="页面-1" stroke="none" stroke-width="1" fill="none" fill-rule="evenodd">
        <g id="icon_hover设备配置" transform="translate(1.000000, 1.000000)">
            <g id="矩形" filter="url(#filter-3)">
                <use fill="black" fill-opacity="1" filter="url(#filter-4)" xlink:href="#path-2"></use>
                <rect stroke="#FFFFFF" stroke-width="2" stroke-linejoin="square" fill="url(#linearGradient-1)" fill-rule="evenodd" x="1" y="1" width="70" height="70" rx="18"></rect>
            </g>
            <g id="setting" transform="translate(9.000000, 9.000000)" fill-rule="nonzero">
                <rect id="矩形" fill="#000000" opacity="0" x="0" y="0" width="54" height="54"></rect>
                <g id="形状">
                    <use fill="black" fill-opacity="1" filter="url(#filter-6)" xlink:href="#path-5"></use>
                    <use fill="#FFFFFF" xlink:href="#path-5"></use>
                </g>
            </g>
        </g>
    </g>
</svg>