<?xml version="1.0" encoding="UTF-8"?>
<svg width="68px" height="68px" viewBox="0 0 68 68" version="1.1" xmlns="http://www.w3.org/2000/svg" xmlns:xlink="http://www.w3.org/1999/xlink">
    <!-- Generator: Sketch 57.1 (83088) - https://sketch.com -->
    <title>icon_normal设备配置</title>
    <desc>Created with Sketch.</desc>
    <defs>
        <linearGradient x1="50%" y1="0%" x2="50%" y2="97.7539062%" id="linearGradient-1">
            <stop stop-color="#00AAE4" offset="0%"></stop>
            <stop stop-color="#001EA5" offset="100%"></stop>
        </linearGradient>
        <rect id="path-2" x="0" y="0" width="64" height="64" rx="14"></rect>
        <filter x="-3.9%" y="-3.9%" width="110.9%" height="110.9%" filterUnits="objectBoundingBox" id="filter-3">
            <feOffset dx="1" dy="1" in="SourceAlpha" result="shadowOffsetOuter1"></feOffset>
            <feGaussianBlur stdDeviation="1" in="shadowOffsetOuter1" result="shadowBlurOuter1"></feGaussianBlur>
            <feColorMatrix values="0 0 0 0 0   0 0 0 0 0   0 0 0 0 0  0 0 0 0.296601836 0" type="matrix" in="shadowBlurOuter1"></feColorMatrix>
        </filter>
        <path d="M43.35,29.3296875 L40.2796875,26.7046875 C40.425,25.8140625 40.5,24.9046875 40.5,23.9953125 C40.5,23.0859375 40.425,22.1765625 40.2796875,21.2859375 L43.35,18.6609375 C43.8234375,18.2578125 43.996875,17.6015625 43.7859375,17.0109375 L43.74375,16.8890625 C42.8953125,14.521875 41.6390625,12.346875 40.0078125,10.425 L39.9234375,10.3265625 C39.5203125,9.853125 38.86875,9.675 38.278125,9.88125 L34.4671875,11.2359375 C33.0609375,10.0828125 31.490625,9.1734375 29.79375,8.5359375 L29.0578125,4.5515625 C28.9453125,3.9375 28.4625,3.459375 27.8484375,3.346875 L27.721875,3.3234375 C25.2796875,2.8828125 22.7109375,2.8828125 20.26875,3.3234375 L20.1421875,3.346875 C19.528125,3.459375 19.0453125,3.9375 18.9328125,4.5515625 L18.1921875,8.5546875 C16.509375,9.1921875 14.9484375,10.096875 13.5515625,11.2453125 L9.7125,9.88125 C9.1265625,9.675 8.4703125,9.8484375 8.0671875,10.3265625 L7.9828125,10.425 C6.3515625,12.3515625 5.0953125,14.5265625 4.246875,16.8890625 L4.2046875,17.0109375 C3.99375,17.596875 4.1671875,18.253125 4.640625,18.6609375 L7.7484375,21.3140625 C7.603125,22.1953125 7.5328125,23.0953125 7.5328125,23.990625 C7.5328125,24.890625 7.603125,25.790625 7.7484375,26.6671875 L4.640625,29.3203125 C4.1671875,29.7234375 3.99375,30.3796875 4.2046875,30.9703125 L4.246875,31.0921875 C5.0953125,33.4546875 6.3515625,35.634375 7.9828125,37.55625 L8.0671875,37.6546875 C8.4703125,38.128125 9.121875,38.30625 9.7125,38.1 L13.5515625,36.7359375 C14.9484375,37.884375 16.509375,38.79375 18.1921875,39.4265625 L18.9328125,43.4296875 C19.0453125,44.04375 19.528125,44.521875 20.1421875,44.634375 L20.26875,44.6578125 C21.4921875,44.878125 22.74375,44.990625 23.9953125,44.990625 C25.246875,44.990625 26.503125,44.878125 27.721875,44.6578125 L27.8484375,44.634375 C28.4625,44.521875 28.9453125,44.04375 29.0578125,43.4296875 L29.79375,39.4453125 C31.490625,38.8078125 33.0609375,37.903125 34.4671875,36.7453125 L38.278125,38.1 C38.8640625,38.30625 39.5203125,38.1328125 39.9234375,37.6546875 L40.0078125,37.55625 C41.6390625,35.6296875 42.8953125,33.4546875 43.74375,31.0921875 L43.7859375,30.9703125 C43.996875,30.39375 43.8234375,29.7375 43.35,29.3296875 L43.35,29.3296875 Z M36.9515625,21.8390625 C37.06875,22.546875 37.1296875,23.2734375 37.1296875,24 C37.1296875,24.7265625 37.06875,25.453125 36.9515625,26.1609375 L36.6421875,28.040625 L40.14375,31.0359375 C39.6140625,32.259375 38.94375,33.4125 38.146875,34.4859375 L33.796875,32.94375 L32.325,34.153125 C31.2046875,35.071875 29.9578125,35.79375 28.6078125,36.3 L26.821875,36.9703125 L25.9828125,41.5171875 C24.665625,41.6671875 23.3203125,41.6671875 21.9984375,41.5171875 L21.159375,36.9609375 L19.3875,36.28125 C18.0515625,35.775 16.809375,35.053125 15.6984375,34.1390625 L14.2265625,32.925 L9.8484375,34.48125 C9.0515625,33.4078125 8.3859375,32.25 7.8515625,31.03125 L11.390625,28.0078125 L11.0859375,26.1328125 C10.9734375,25.434375 10.9125,24.7125 10.9125,24 C10.9125,23.2828125 10.96875,22.565625 11.0859375,21.8671875 L11.390625,19.9921875 L7.8515625,16.96875 C8.38125,15.7453125 9.0515625,14.5921875 9.8484375,13.51875 L14.2265625,15.075 L15.6984375,13.8609375 C16.809375,12.946875 18.0515625,12.225 19.3875,11.71875 L21.1640625,11.0484375 L22.003125,6.4921875 C23.3203125,6.3421875 24.665625,6.3421875 25.9875,6.4921875 L26.8265625,11.0390625 L28.6125,11.709375 C29.9578125,12.215625 31.209375,12.9375 32.3296875,13.85625 L33.8015625,15.065625 L38.1515625,13.5234375 C38.9484375,14.596875 39.6140625,15.7546875 40.1484375,16.9734375 L36.646875,19.96875 L36.9515625,21.8390625 Z M24,15.28125 C19.44375,15.28125 15.75,18.975 15.75,23.53125 C15.75,28.0875 19.44375,31.78125 24,31.78125 C28.55625,31.78125 32.25,28.0875 32.25,23.53125 C32.25,18.975 28.55625,15.28125 24,15.28125 Z M27.7125,27.24375 C26.71875,28.2328125 25.4015625,28.78125 24,28.78125 C22.5984375,28.78125 21.28125,28.2328125 20.2875,27.24375 C19.2984375,26.25 18.75,24.9328125 18.75,23.53125 C18.75,22.1296875 19.2984375,20.8125 20.2875,19.81875 C21.28125,18.825 22.5984375,18.28125 24,18.28125 C25.4015625,18.28125 26.71875,18.825 27.7125,19.81875 C28.7015625,20.8125 29.25,22.1296875 29.25,23.53125 C29.25,24.9328125 28.7015625,26.25 27.7125,27.24375 Z" id="path-4"></path>
        <filter x="-10.1%" y="-4.8%" width="120.1%" height="119.0%" filterUnits="objectBoundingBox" id="filter-5">
            <feOffset dx="0" dy="2" in="SourceAlpha" result="shadowOffsetOuter1"></feOffset>
            <feGaussianBlur stdDeviation="1" in="shadowOffsetOuter1" result="shadowBlurOuter1"></feGaussianBlur>
            <feColorMatrix values="0 0 0 0 0   0 0 0 0 0   0 0 0 0 0  0 0 0 0.15 0" type="matrix" in="shadowBlurOuter1"></feColorMatrix>
        </filter>
    </defs>
    <g id="页面-1" stroke="none" stroke-width="1" fill="none" fill-rule="evenodd">
        <g id="icon_normal设备配置" transform="translate(1.000000, 1.000000)">
            <g id="矩形">
                <use fill="black" fill-opacity="1" filter="url(#filter-3)" xlink:href="#path-2"></use>
                <use fill="url(#linearGradient-1)" fill-rule="evenodd" xlink:href="#path-2"></use>
            </g>
            <g id="setting" transform="translate(8.000000, 8.000000)" fill-rule="nonzero">
                <rect id="矩形" fill="#000000" opacity="0" x="0" y="0" width="48" height="48"></rect>
                <g id="形状">
                    <use fill="black" fill-opacity="1" filter="url(#filter-5)" xlink:href="#path-4"></use>
                    <use fill="#FFFFFF" xlink:href="#path-4"></use>
                </g>
            </g>
        </g>
    </g>
</svg>