<svg xmlns="http://www.w3.org/2000/svg" width="30.438" height="30.438" viewBox="0 0 30.438 30.438">
  <defs>
    <style>
      .cls-1 {
        fill: #737373;
        fill-rule: evenodd;
      }
    </style>
  </defs>
  <path id="召回设备" class="cls-1" d="M939.129,858.219a4.348,4.348,0,0,1-4.348-4.348V832.129a4.348,4.348,0,0,1,4.348-4.348h21.742a4.348,4.348,0,0,1,4.348,4.348v21.742a4.348,4.348,0,0,1-4.348,4.348H939.129Zm-2.174-26.09v21.742a2.175,2.175,0,0,0,2.174,2.174h21.742a2.175,2.175,0,0,0,2.174-2.174h0V832.129a2.175,2.175,0,0,0-2.174-2.174H939.129a2.175,2.175,0,0,0-2.174,2.174h0Zm10.132,17.937-3.535-5.305a0.434,0.434,0,0,1,.363-0.676h2.5a10.888,10.888,0,0,1,10.818-9.784v2.175a8.712,8.712,0,0,0-8.631,7.609H951a0.435,0.435,0,0,1,.363.676l-3.535,5.305a0.437,0.437,0,0,1-.363.191A0.432,0.432,0,0,1,947.087,850.066Z" transform="translate(-934.781 -827.781)"/>
</svg>
