<svg xmlns="http://www.w3.org/2000/svg" width="29.844" height="29.844" viewBox="0 0 29.844 29.844">
  <defs>
    <style>
      .cls-1 {
        fill: #737373;
        fill-rule: evenodd;
      }
    </style>
  </defs>
  <path id="升级设备" class="cls-1" d="M749.2,838.944a3.213,3.213,0,0,0,3.23-3.2v-4.262a3.213,3.213,0,0,0-3.23-3.2H725.826a3.213,3.213,0,0,0-3.23,3.2v4.262a3.213,3.213,0,0,0,3.23,3.2h5.295v4.263a1.065,1.065,0,0,0,1.065,1.065h9.591v3.2H725.826a3.213,3.213,0,0,0-3.23,3.2v4.262a3.213,3.213,0,0,0,3.23,3.2H749.2a3.213,3.213,0,0,0,3.23-3.2v-4.262a3.213,3.213,0,0,0-3.23-3.2h-5.295v-4.262a1.066,1.066,0,0,0-1.066-1.066h-9.59v-3.2H749.2Zm0,10.656a1.072,1.072,0,0,1,1.076,1.066v4.262a1.072,1.072,0,0,1-1.076,1.066H725.826a1.072,1.072,0,0,1-1.077-1.066v-4.262a1.072,1.072,0,0,1,1.077-1.066H749.2Zm-24.454-13.853v-4.262a1.072,1.072,0,0,1,1.077-1.066H749.2a1.072,1.072,0,0,1,1.076,1.066v4.262a1.071,1.071,0,0,1-1.076,1.066H725.826A1.071,1.071,0,0,1,724.749,835.747Zm6.372,18.116h12.787a1.066,1.066,0,0,0,0-2.132H731.121A1.066,1.066,0,0,0,731.121,853.863Zm13.852-20.247a1.065,1.065,0,0,0-1.065-1.065H731.121a1.066,1.066,0,1,0,0,2.131h12.787A1.065,1.065,0,0,0,744.973,833.616Z" transform="translate(-722.594 -828.281)"/>
</svg>
