<?xml version="1.0" encoding="UTF-8"?>
<svg width="12px" height="14px" viewBox="0 0 12 14" version="1.1" xmlns="http://www.w3.org/2000/svg" xmlns:xlink="http://www.w3.org/1999/xlink">
    <!-- Generator: Sketch 57.1 (83088) - https://sketch.com -->
    <title>tablet</title>
    <desc>Created with Sketch.</desc>
    <g id="页面-1" stroke="none" stroke-width="1" fill="none" fill-rule="evenodd">
        <g id="tablet" transform="translate(-2.000000, -1.000000)" fill="#000000" fill-rule="nonzero">
            <rect id="矩形" opacity="0" x="0" y="0" width="16" height="16"></rect>
            <path d="M12.5,1 L3.5,1 C2.9484375,1 2.5,1.4484375 2.5,2 L2.5,14 C2.5,14.5515625 2.9484375,15 3.5,15 L12.5,15 C13.0515625,15 13.5,14.5515625 13.5,14 L13.5,2 C13.5,1.4484375 13.0515625,1 12.5,1 Z M12.375,13.875 L3.625,13.875 L3.625,2.125 L12.375,2.125 L12.375,13.875 Z M7.375,12.25 C7.375,12.595178 7.65482203,12.875 8,12.875 C8.34517797,12.875 8.625,12.595178 8.625,12.25 C8.625,11.904822 8.34517797,11.625 8,11.625 C7.65482203,11.625 7.375,11.904822 7.375,12.25 Z" id="形状"></path>
        </g>
    </g>
</svg>