<?xml version="1.0" encoding="UTF-8"?>
<svg width="52px" height="52px" viewBox="0 0 52 52" version="1.1" xmlns="http://www.w3.org/2000/svg" xmlns:xlink="http://www.w3.org/1999/xlink">
    <!-- Generator: Sketch 57.1 (83088) - https://sketch.com -->
    <title>icon_normal设备信息</title>
    <desc>Created with Sketch.</desc>
    <defs>
        <linearGradient x1="50%" y1="0%" x2="50%" y2="100%" id="linearGradient-1">
            <stop stop-color="#16ABD8" offset="0%"></stop>
            <stop stop-color="#0BB790" offset="100%"></stop>
        </linearGradient>
        <rect id="path-2" x="0" y="0" width="48" height="48" rx="10"></rect>
        <filter x="-5.2%" y="-5.2%" width="114.6%" height="114.6%" filterUnits="objectBoundingBox" id="filter-3">
            <feOffset dx="1" dy="1" in="SourceAlpha" result="shadowOffsetOuter1"></feOffset>
            <feGaussianBlur stdDeviation="1" in="shadowOffsetOuter1" result="shadowBlurOuter1"></feGaussianBlur>
            <feColorMatrix values="0 0 0 0 0   0 0 0 0 0   0 0 0 0 0  0 0 0 0.296601836 0" type="matrix" in="shadowBlurOuter1"></feColorMatrix>
        </filter>
        <path d="M31.5,10 C34.2614237,10 36.5,12.2385763 36.5,15 L36.5,33 C36.5,35.7614237 34.2614237,38 31.5,38 L16.5,38 C13.7385763,38 11.5,35.7614237 11.5,33 L11.5,15 C11.5,12.2385763 13.7385763,10 16.5,10 L31.5,10 Z M31.5,13 L16.5,13 C15.3954305,13 14.5,13.8954305 14.5,15 L14.5,33 C14.5,34.1045695 15.3954305,35 16.5,35 L31.5,35 C32.6045695,35 33.5,34.1045695 33.5,33 L33.5,15 C33.5,13.8954305 32.6045695,13 31.5,13 Z M29,29.5 C29.8284271,29.5 30.5,30.1715729 30.5,31 C30.5,31.8284271 29.8284271,32.5 29,32.5 L19,32.5 C18.1715729,32.5 17.5,31.8284271 17.5,31 C17.5,30.1715729 18.1715729,29.5 19,29.5 L29,29.5 Z M19,17.5 C19.8284271,17.5 20.5,18.1715729 20.5,19 L20.5,19.25 C20.5,19.8972087 20.0081253,20.4295339 19.3778052,20.4935464 L19.25,20.5 L19,20.5 C18.1715729,20.5 17.5,19.8284271 17.5,19 C17.5,18.1715729 18.1715729,17.5 19,17.5 Z M24,17.5 C24.8284271,17.5 25.5,18.1715729 25.5,19 L25.5,19.25 C25.5,19.8972087 25.0081253,20.4295339 24.3778052,20.4935464 L24.25,20.5 L24,20.5 C23.1715729,20.5 22.5,19.8284271 22.5,19 C22.5,18.1715729 23.1715729,17.5 24,17.5 Z M29,17.5 C29.8284271,17.5 30.5,18.1715729 30.5,19 L30.5,19.25 C30.5,19.8972087 30.0081253,20.4295339 29.3778052,20.4935464 L29.25,20.5 L29,20.5 C28.1715729,20.5 27.5,19.8284271 27.5,19 C27.5,18.1715729 28.1715729,17.5 29,17.5 Z" id="path-4"></path>
        <filter x="-16.0%" y="-7.1%" width="132.0%" height="128.6%" filterUnits="objectBoundingBox" id="filter-5">
            <feOffset dx="0" dy="2" in="SourceAlpha" result="shadowOffsetOuter1"></feOffset>
            <feGaussianBlur stdDeviation="1" in="shadowOffsetOuter1" result="shadowBlurOuter1"></feGaussianBlur>
            <feColorMatrix values="0 0 0 0 0   0 0 0 0 0   0 0 0 0 0  0 0 0 0.15 0" type="matrix" in="shadowBlurOuter1"></feColorMatrix>
        </filter>
    </defs>
    <g id="2023年2月15日" stroke="none" stroke-width="1" fill="none" fill-rule="evenodd">
        <g id="icon_normal设备信息" transform="translate(1.000000, 1.000000)">
            <g id="矩形">
                <use fill="black" fill-opacity="1" filter="url(#filter-3)" xlink:href="#path-2"></use>
                <use fill="url(#linearGradient-1)" fill-rule="evenodd" xlink:href="#path-2"></use>
            </g>
            <g id="形状结合" fill-rule="nonzero">
                <use fill="black" fill-opacity="1" filter="url(#filter-5)" xlink:href="#path-4"></use>
                <use fill="#FFFFFF" xlink:href="#path-4"></use>
            </g>
        </g>
    </g>
</svg>