<svg xmlns="http://www.w3.org/2000/svg" width="31.031" height="29.907" viewBox="0 0 31.031 29.907">
  <defs>
    <style>
      .cls-1 {
        fill: #737373;
        fill-rule: evenodd;
      }
    </style>
  </defs>
  <path id="查询设备" class="cls-1" d="M663.08,836.071h-5.537a1.108,1.108,0,0,0,0,2.215h5.537a1.108,1.108,0,0,0,0-2.215h0Zm0,4.43h-5.537a1.108,1.108,0,0,0,0,2.215h5.537a1.108,1.108,0,0,0,0-2.215h0Zm0,4.429h-5.537a1.108,1.108,0,0,0,0,2.215h5.537a1.108,1.108,0,0,0,0-2.215h0Zm19.6,10.188-2.437-2.436a6.578,6.578,0,0,0-.664-8.527,6.752,6.752,0,0,0-9.412,0,6.632,6.632,0,0,0-1.994,4.651,6.2,6.2,0,0,0,1.994,4.651,6.631,6.631,0,0,0,4.651,1.993,6.712,6.712,0,0,0,3.875-1.218l2.436,2.436a1.07,1.07,0,0,0,1.551,0,1.07,1.07,0,0,0,0-1.55h0Zm-10.963-3.1a4.37,4.37,0,0,1-1.329-3.1,4.19,4.19,0,0,1,1.329-3.1,4.424,4.424,0,1,1,6.2,6.312,4.594,4.594,0,0,1-6.2-.111h0Zm0,0M670.831,856h-3.322V836.071h11.073v4.43a1.108,1.108,0,0,0,2.215,0v-4.43a2.246,2.246,0,0,0-2.325-2.214H667.509v-3.322a2.2,2.2,0,0,0-2.1-2.215H655.218a2.2,2.2,0,0,0-2.1,2.215V856a1.108,1.108,0,1,0,0,2.215h17.717a1.108,1.108,0,0,0,0-2.215h0Zm-15.5,0-0.111-25.469h10.076V856h-9.965Zm0,0" transform="translate(-652 -828.312)"/>
</svg>
