<svg xmlns="http://www.w3.org/2000/svg" xmlns:xlink="http://www.w3.org/1999/xlink" width="34.85" height="26.594" viewBox="0 0 34.85 26.594">
  <defs>
    <style>
      .cls-1 {
        fill: #004ea2;
        fill-rule: evenodd;
        filter: url(#filter);
      }
    </style>
    <filter id="filter" x="1375.53" y="830.031" width="34.85" height="26.594" filterUnits="userSpaceOnUse">
      <feFlood result="flood" flood-color="#737373"/>
      <feComposite result="composite" operator="in" in2="SourceGraphic"/>
      <feBlend result="blend" in2="SourceGraphic"/>
    </filter>
  </defs>
  <path id="电子围栏" class="cls-1" d="M1409.03,844.512a1.346,1.346,0,0,1,.16,2.682l-0.16.009h-32.17a1.346,1.346,0,0,1-.16-2.682l0.16-.009h32.17Zm-13.41-14.481a4.037,4.037,0,0,1,4.02,3.8l0.01,0.238v19.862h2.68V831.613a1.345,1.345,0,0,1,1.18-1.337l0.16-.009a1.341,1.341,0,0,1,1.33,1.188l0.01,0.158v23.665a1.345,1.345,0,0,1-1.19,1.337l-0.15.009h-5.37a1.349,1.349,0,0,1-1.33-1.188l-0.01-.158V834.069a1.337,1.337,0,0,0-1.18-1.337l-0.16-.008h-0.26a1.351,1.351,0,0,0-1.34,1.188l-0.01.158v21.208a1.337,1.337,0,0,1-1.18,1.337l-0.16.009h-5.09a1.341,1.341,0,0,1-1.33-1.188l-0.01-.158V834.3a1.339,1.339,0,0,0-2.67-.157l-0.01.157v20.974a1.339,1.339,0,0,1-2.67.158l-0.01-.158V834.3a4.018,4.018,0,0,1,8.03-.237l0.01,0.237v19.628h2.41V834.069a4.031,4.031,0,0,1,3.79-4.03l0.24-.006h0.26v0Z" transform="translate(-1375.53 -830.031)"/>
</svg>
