<?xml version="1.0" encoding="UTF-8"?>
<svg width="52px" height="52px" viewBox="0 0 52 52" version="1.1" xmlns="http://www.w3.org/2000/svg" xmlns:xlink="http://www.w3.org/1999/xlink">
    <!-- Generator: Sketch 57.1 (83088) - https://sketch.com -->
    <title>icon_normal断开连接</title>
    <desc>Created with Sketch.</desc>
    <defs>
        <linearGradient x1="50%" y1="0%" x2="50%" y2="100%" id="linearGradient-1">
            <stop stop-color="#F8C830" offset="0%"></stop>
            <stop stop-color="#DC6533" offset="100%"></stop>
        </linearGradient>
        <rect id="path-2" x="0" y="0" width="48" height="48" rx="10"></rect>
        <filter x="-5.2%" y="-5.2%" width="114.6%" height="114.6%" filterUnits="objectBoundingBox" id="filter-3">
            <feOffset dx="1" dy="1" in="SourceAlpha" result="shadowOffsetOuter1"></feOffset>
            <feGaussianBlur stdDeviation="1" in="shadowOffsetOuter1" result="shadowBlurOuter1"></feGaussianBlur>
            <feColorMatrix values="0 0 0 0 0   0 0 0 0 0   0 0 0 0 0  0 0 0 0.296601836 0" type="matrix" in="shadowBlurOuter1"></feColorMatrix>
        </filter>
        <filter x="-30.8%" y="-30.8%" width="161.5%" height="161.5%" filterUnits="objectBoundingBox" id="filter-4">
            <feOffset dx="0" dy="2" in="SourceAlpha" result="shadowOffsetOuter1"></feOffset>
            <feGaussianBlur stdDeviation="1" in="shadowOffsetOuter1" result="shadowBlurOuter1"></feGaussianBlur>
            <feColorMatrix values="0 0 0 0 0   0 0 0 0 0   0 0 0 0 0  0 0 0 0.15 0" type="matrix" in="shadowBlurOuter1" result="shadowMatrixOuter1"></feColorMatrix>
            <feMerge>
                <feMergeNode in="shadowMatrixOuter1"></feMergeNode>
                <feMergeNode in="SourceGraphic"></feMergeNode>
            </feMerge>
        </filter>
    </defs>
    <g id="2023年2月15日" stroke="none" stroke-width="1" fill="none" fill-rule="evenodd">
        <g id="icon_normal断开连接" transform="translate(1.000000, 1.000000)">
            <g id="编组-9备份-4">
                <g id="矩形">
                    <use fill="black" fill-opacity="1" filter="url(#filter-3)" xlink:href="#path-2"></use>
                    <use fill="url(#linearGradient-1)" fill-rule="evenodd" xlink:href="#path-2"></use>
                </g>
            </g>
            <g id="icon-duankailianjie" filter="url(#filter-4)" transform="translate(24.000000, 24.000000) rotate(-15.000000) translate(-24.000000, -24.000000) translate(11.000000, 11.000000)" fill="#FFFFFF" fill-rule="nonzero">
                <path d="M13.55178,20.1739209 C13.9461835,19.7795174 14.521039,19.6254853 15.0598042,19.769847 C15.5985693,19.9142087 16.0193928,20.3350321 16.1637545,20.8737973 C16.3081162,21.4125624 16.1540841,21.987418 15.7596806,22.3818214 L14.6553401,23.4853815 C11.3032959,26.8382062 5.8674431,26.8382062 2.51461848,23.4853815 C-0.838206161,20.1325569 -0.838206161,14.6974845 2.51461848,11.3446599 L3.61817855,10.2403194 C4.012582,9.84591592 4.58743756,9.69188383 5.12620271,9.83624552 C5.66496785,9.9806072 6.08579133,10.4014307 6.230153,10.9401958 C6.37451468,11.478961 6.22048259,12.0538165 5.82607912,12.44822 L4.72173862,13.55178 C2.5881297,15.6853889 2.5881297,19.1446525 4.72173862,21.2782614 C6.85534753,23.4118703 10.3146111,23.4118703 12.44822,21.2782614 L13.55178,20.1739209 Z M20.1739209,13.55178 L21.2782614,12.44822 C23.4118703,10.3146111 23.4118703,6.85534753 21.2782614,4.72173862 C19.1446525,2.5881297 15.6853889,2.5881297 13.55178,4.72173862 L12.44822,5.82607912 C12.0538165,6.22048259 11.478961,6.37451468 10.9401958,6.230153 C10.4014307,6.08579133 9.9806072,5.66496785 9.83624552,5.12620271 C9.69188383,4.58743756 9.84591592,4.012582 10.2403194,3.61817855 L11.3446599,2.51461848 C14.6967041,-0.838206161 20.1325569,-0.838206161 23.4853815,2.51461848 C26.8382062,5.86744313 26.8382062,11.3025155 23.4853815,14.6553401 L22.3818214,15.7596806 C21.987418,16.1540841 21.4125624,16.3081162 20.8737973,16.1637545 C20.3350321,16.0193928 19.9142087,15.5985693 19.769847,15.0598042 C19.6254853,14.521039 19.7795174,13.9461835 20.1739209,13.55178 L20.1739209,13.55178 Z M4.72173862,4.72173862 C5.0144833,4.42887531 5.41160151,4.26433644 5.8256889,4.26433644 C6.23977629,4.26433644 6.6368945,4.42887531 6.92963919,4.72173862 L12.0858732,9.87797266 C12.6955681,10.4876676 12.6955681,11.4761783 12.0858732,12.0858732 C11.4761783,12.6955681 10.4876676,12.6955681 9.87797266,12.0858732 L4.72173862,6.92963919 C4.42887531,6.6368945 4.26433644,6.23977629 4.26433644,5.8256889 C4.26433644,5.41160151 4.42887531,5.0144833 4.72173862,4.72173862 Z M13.5606389,13.7577859 C13.8533836,13.4649226 14.2505018,13.3003837 14.6645892,13.3003837 C15.0786766,13.3003837 15.4757948,13.4649226 15.7685395,13.7577859 L20.9247735,18.9140199 C21.5344684,19.5237148 21.5344684,20.5122256 20.9247735,21.1219204 C20.3150786,21.7316153 19.3265679,21.7316154 18.7168729,21.1219205 L13.5606389,15.9656864 C13.2677756,15.6729418 13.1032367,15.2758236 13.1032367,14.8617362 C13.1032367,14.4476488 13.2677756,14.0505306 13.5606389,13.7577859 Z" id="形状"></path>
            </g>
        </g>
    </g>
</svg>