<?xml version="1.0" encoding="UTF-8"?>
<svg width="18px" height="18px" viewBox="0 0 18 18" version="1.1" xmlns="http://www.w3.org/2000/svg" xmlns:xlink="http://www.w3.org/1999/xlink">
    <!-- Generator: Sketch 57.1 (83088) - https://sketch.com -->
    <title>Shrink</title>
    <desc>Created with Sketch.</desc>
    <g id="页面-1" stroke="none" stroke-width="1" fill="none" fill-rule="evenodd">
        <path d="M14.000002,0 C16.2091399,-4.05812044e-16 18,1.79086009 18,3.99999797 L18,14.000002 C18,16.2091399 16.2091399,18 14.000002,18 L3.99999797,18 C1.79086009,18 2.70541363e-16,16.2091399 0,14.000002 L0,3.99999797 C-2.70541363e-16,1.79086009 1.79086009,4.05812044e-16 3.99999797,0 L14.000002,0 Z M14.000001,2 L3.99999898,2 C2.94563772,2 2.08183484,2.81587738 2.00548573,3.85073671 L2,3.99999898 L2,14.000001 C2,15.0543623 2.81587738,15.9181652 3.85073671,15.9945143 L3.99999898,16 L14.000001,16 C15.0543623,16 15.9181652,15.1841226 15.9945143,14.1492633 L16,14.000001 L16,3.99999898 C16,2.89543004 15.10457,2 14.000001,2 Z M8.23419178,9.62347812 L8.32851509,9.70678243 L8.32851509,9.70678243 L8.32842748,9.70710714 C8.71870387,10.0977398 8.7187836,10.7307671 8.32860563,11.1214981 L6.41553391,13.0355339 L7.00000051,13.0355339 C7.51283609,13.0355339 7.93550719,13.4215739 7.99327227,13.9189123 L8,14.0355344 C8,14.5878189 7.55228498,15.0355339 7.00000051,15.0355339 L3.99999949,15.0355339 C3.44771502,15.0355339 3,14.5878189 3,14.0355344 L3,11.0355334 C3,10.4832489 3.44771502,10.0355339 3.99999949,10.0355339 L4.00000051,10.0355339 C4.5521536,10.0358704 4.99981419,10.4833804 5.00033642,11.0355333 L5.00053391,11.6225339 L6.91444962,9.70734204 C7.27459567,9.34652072 7.84180043,9.31858543 8.23419178,9.62347812 Z M14.0355344,3 C14.5878189,3 15.0355339,3.44771502 15.0355339,3.99999949 L15.0355339,7.00000051 C15.0355339,7.51283609 14.6494939,7.93550719 14.1521555,7.99327227 L14.0355334,8 C13.4833803,7.99966352 13.0357197,7.55215351 13.0351975,7.00000057 L13.035,6.413 L11.1210843,8.32819186 C10.7609382,8.68901319 10.1937335,8.71694847 9.80134212,8.41205578 L9.70710642,8.32842677 C9.31683004,7.93779408 9.31675031,7.3047668 9.70692827,6.91403582 L11.62,5 L11.0355334,5 C10.4832489,5 10.0355339,4.55228498 10.0355339,4.00000051 L10.0355339,3.99999949 C10.0355339,3.44771502 10.4832489,3 11.0355334,3 L14.0355344,3 Z" id="Shrink" fill="#999999"></path>
    </g>
</svg>