<svg xmlns="http://www.w3.org/2000/svg" xmlns:xlink="http://www.w3.org/1999/xlink" width="32.19" height="28.907" viewBox="0 0 32.19 28.907">
  <defs>
    <style>
      .cls-1 {
        fill-rule: evenodd;
        filter: url(#filter);
      }
    </style>
    <filter id="filter" x="1142.81" y="828.312" width="32.19" height="28.907" filterUnits="userSpaceOnUse">
      <feFlood result="flood" flood-color="#737373"/>
      <feComposite result="composite" operator="in" in2="SourceGraphic"/>
      <feBlend result="blend" in2="SourceGraphic"/>
    </filter>
  </defs>
  <path id="文件添加" class="cls-1" d="M1169.62,857.218H1148.2a5.393,5.393,0,0,1-5.39-5.381V838.382A5.394,5.394,0,0,1,1148.2,833h21.42a5.391,5.391,0,0,1,5.38,5.382v13.456a5.383,5.383,0,0,1-5.38,5.38h0Zm-21.42-21.8a2.971,2.971,0,0,0-2.97,2.968v13.456a2.97,2.97,0,0,0,2.97,2.968h21.42a2.976,2.976,0,0,0,2.97-2.968V838.382a2.978,2.978,0,0,0-2.97-2.968H1148.2Zm-2.97,2.968h-2.42v-5a5.077,5.077,0,0,1,5.07-5.068h10.69a5.069,5.069,0,0,1,5.06,5.068v0.828h-2.41v-0.828a2.656,2.656,0,0,0-2.65-2.655h-10.69a2.656,2.656,0,0,0-2.65,2.655v5Zm17.79,8.121h-8.37a1.393,1.393,0,0,1,0-2.786h8.37A1.393,1.393,0,0,1,1163.02,846.5Zm-4.19,4.183a1.39,1.39,0,0,1-1.39-1.393h0v-8.364a1.4,1.4,0,0,1,2.79,0h0v8.364a1.4,1.4,0,0,1-1.4,1.393h0Z" transform="translate(-1142.81 -828.312)"/>
</svg>
