<svg xmlns="http://www.w3.org/2000/svg" xmlns:xlink="http://www.w3.org/1999/xlink" width="29.88" height="29.844" viewBox="0 0 29.88 29.844">
  <defs>
    <style>
      .cls-1 {
        fill-rule: evenodd;
        filter: url(#filter);
      }
    </style>
    <filter id="filter" x="1216.09" y="828.375" width="29.88" height="29.844" filterUnits="userSpaceOnUse">
      <feFlood result="flood" flood-color="#737373"/>
      <feComposite result="composite" operator="in" in2="SourceGraphic"/>
      <feBlend result="blend" in2="SourceGraphic"/>
    </filter>
  </defs>
  <path id="文件移动" class="cls-1" d="M1229.97,842.181l0.22-10.422-3.28,3.282a1.069,1.069,0,0,1-1.51-1.514l4.87-4.872a1.066,1.066,0,0,1,1.51,0l4.87,4.872a1.069,1.069,0,0,1-1.51,1.514L1232.09,832v10.209h10.21l-3.05-3.047a1.067,1.067,0,0,1,0-1.514,1.078,1.078,0,0,1,1.52,0l4.87,4.872a1.086,1.086,0,0,1,0,1.514l-4.87,4.871a1.078,1.078,0,0,1-1.52,0,1.066,1.066,0,0,1,0-1.513l3.04-3.043h-10.2V854.56l3.05-3.045a1.069,1.069,0,0,1,1.51,1.514l-4.87,4.871a1.066,1.066,0,0,1-1.51,0l-4.87-4.871a1.069,1.069,0,0,1,1.51-1.514l3.04,3.045V844.321h-10.22l3.04,3.042a1.069,1.069,0,0,1-1.51,1.514l-4.87-4.872a1.067,1.067,0,0,1,0-1.514l4.87-4.871a1.069,1.069,0,0,1,1.51,1.513l-3.04,3.047h10.24Z" transform="translate(-1216.09 -828.375)"/>
</svg>
