<?xml version="1.0" encoding="UTF-8"?>
<svg width="52px" height="52px" viewBox="0 0 52 52" version="1.1" xmlns="http://www.w3.org/2000/svg" xmlns:xlink="http://www.w3.org/1999/xlink">
    <!-- Generator: Sketch 57.1 (83088) - https://sketch.com -->
    <title>icon_normal文件列表</title>
    <desc>Created with Sketch.</desc>
    <defs>
        <linearGradient x1="50%" y1="0.358952703%" x2="50%" y2="100%" id="linearGradient-1">
            <stop stop-color="#FF9254" offset="0%"></stop>
            <stop stop-color="#EA4861" offset="100%"></stop>
        </linearGradient>
        <rect id="path-2" x="0" y="0" width="48" height="48" rx="10"></rect>
        <filter x="-5.2%" y="-5.2%" width="114.6%" height="114.6%" filterUnits="objectBoundingBox" id="filter-3">
            <feOffset dx="1" dy="1" in="SourceAlpha" result="shadowOffsetOuter1"></feOffset>
            <feGaussianBlur stdDeviation="1" in="shadowOffsetOuter1" result="shadowBlurOuter1"></feGaussianBlur>
            <feColorMatrix values="0 0 0 0 0   0 0 0 0 0   0 0 0 0 0  0 0 0 0.296601836 0" type="matrix" in="shadowBlurOuter1"></feColorMatrix>
        </filter>
        <filter x="-30.8%" y="-26.7%" width="161.5%" height="153.3%" filterUnits="objectBoundingBox" id="filter-4">
            <feOffset dx="0" dy="2" in="SourceAlpha" result="shadowOffsetOuter1"></feOffset>
            <feGaussianBlur stdDeviation="1" in="shadowOffsetOuter1" result="shadowBlurOuter1"></feGaussianBlur>
            <feColorMatrix values="0 0 0 0 0   0 0 0 0 0   0 0 0 0 0  0 0 0 0.15 0" type="matrix" in="shadowBlurOuter1" result="shadowMatrixOuter1"></feColorMatrix>
            <feMerge>
                <feMergeNode in="shadowMatrixOuter1"></feMergeNode>
                <feMergeNode in="SourceGraphic"></feMergeNode>
            </feMerge>
        </filter>
    </defs>
    <g id="2023年2月15日" stroke="none" stroke-width="1" fill="none" fill-rule="evenodd">
        <g id="icon_normal文件列表" transform="translate(1.000000, 1.000000)">
            <g id="矩形">
                <use fill="black" fill-opacity="1" filter="url(#filter-3)" xlink:href="#path-2"></use>
                <use fill="url(#linearGradient-1)" fill-rule="evenodd" xlink:href="#path-2"></use>
            </g>
            <g id="编组-7" filter="url(#filter-4)" transform="translate(11.000000, 9.000000)">
                <path d="M4,1.5 C2.61928813,1.5 1.5,2.61928813 1.5,4 L1.5,26 C1.5,27.3807119 2.61928813,28.5 4,28.5 L22,28.5 C23.3807119,28.5 24.5,27.3807119 24.5,26 L24.5,9.65685425 C24.5,8.99381302 24.2366079,8.35792824 23.767767,7.8890873 L18.1109127,2.23223305 C17.6420718,1.7633921 17.006187,1.5 16.3431458,1.5 L4,1.5 Z" id="矩形" stroke="#FFFFFF" stroke-width="3"></path>
                <path d="M15,0 L15,7 C15,9.209139 16.790861,11 19,11 L26,11 L26,11" id="路径-2" stroke="#FFFFFF" stroke-width="3"></path>
                <g id="编组-5" transform="translate(5.000000, 7.000000)" fill="#FFFFFF">
                    <rect id="矩形" x="0" y="0" width="6" height="3" rx="1.5"></rect>
                    <rect id="矩形" x="0" y="7" width="9" height="3" rx="1.5"></rect>
                    <rect id="矩形" x="11" y="7" width="5" height="3" rx="1.5"></rect>
                    <rect id="矩形" x="0" y="14" width="16" height="3" rx="1.5"></rect>
                </g>
            </g>
        </g>
    </g>
</svg>