<svg xmlns="http://www.w3.org/2000/svg" xmlns:xlink="http://www.w3.org/1999/xlink" width="28.93" height="28.938" viewBox="0 0 28.93 28.938">
  <defs>
    <style>
      .cls-1 {
        fill-rule: evenodd;
        filter: url(#filter);
      }
    </style>
    <filter id="filter" x="1287.66" y="828.156" width="28.93" height="28.938" filterUnits="userSpaceOnUse">
      <feFlood result="flood" flood-color="#737373"/>
      <feComposite result="composite" operator="in" in2="SourceGraphic"/>
      <feBlend result="blend" in2="SourceGraphic"/>
    </filter>
  </defs>
  <path id="文件删除" class="cls-1" d="M1315.61,833.42h-6.25v-2.3a2.945,2.945,0,0,0-2.96-2.961h-8.55a2.945,2.945,0,0,0-2.96,2.961v2.3h-6.25a0.987,0.987,0,1,0,0,1.974h26.97A0.987,0.987,0,1,0,1315.61,833.42Zm-18.75,0v-2.3a1.012,1.012,0,0,1,.99-0.987h8.55a1.012,1.012,0,0,1,.99.987v2.3h-10.53Zm15.4,3.948a1.012,1.012,0,0,0-.99.987v14.936a1.839,1.839,0,0,1-1.84,1.842h-14.67a1.844,1.844,0,0,1-1.85-1.842V838.355a0.985,0.985,0,1,0-1.97,0v14.936a3.819,3.819,0,0,0,3.82,3.816h14.73a3.819,3.819,0,0,0,3.82-3.816V838.355a1.13,1.13,0,0,0-1.05-.987h0Zm-12.9,14.8V838.355a0.985,0.985,0,1,0-1.97,0v13.817A0.985,0.985,0,1,0,1299.36,852.172Zm7.5,0V838.355a0.985,0.985,0,1,0-1.97,0v13.817A0.985,0.985,0,1,0,1306.86,852.172Z" transform="translate(-1287.66 -828.156)"/>
</svg>
