<?xml version="1.0" encoding="UTF-8"?>
<svg width="16px" height="16px" viewBox="0 0 16 16" version="1.1" xmlns="http://www.w3.org/2000/svg" xmlns:xlink="http://www.w3.org/1999/xlink">
    <!-- Generator: Sketch 57.1 (83088) - https://sketch.com -->
    <title>固件管理</title>
    <desc>Created with Sketch.</desc>
    <g id="2023年2月15日" stroke="none" stroke-width="1" fill="none" fill-rule="evenodd">
        <g id="固件管理">
            <path d="M12.5070441,6.50657285 C12.5073881,6.50755349 12.5077439,6.5085305 12.5081115,6.50950365 L12.5070441,6.50657285 Z M12.4698567,6.4097213 C12.2842459,5.94591953 12.0203333,5.51797671 11.6847046,5.13664465 L10.5391349,5.52215336 L10.327266,5.35768346 C10.0147615,5.11509194 9.66658086,4.92454742 9.29086428,4.79091984 L9.02225988,4.69538785 L8.96766646,4.41557675 L8.8013204,3.56299003 C8.27487481,3.47889662 7.7231288,3.47899258 7.19865331,3.56296851 L6.97663134,4.69903073 L6.70919789,4.7949411 C6.33547724,4.92896954 5.98960798,5.1187943 5.68030823,5.35952683 L5.46836094,5.52448852 L5.21379838,5.43886186 L4.31539042,5.13666435 C3.97787449,5.52143477 3.71379325,5.95037581 3.53012008,6.40960095 L4.45667229,7.15842225 L4.40619759,7.44820687 C4.37504225,7.62707542 4.3593803,7.81253358 4.3593803,7.99972097 C4.3593803,8.18794524 4.37502812,8.37323606 4.40611983,8.55078986 L4.45690893,8.84082844 L4.22789733,9.02591112 L3.53021978,9.58975995 C3.71623243,10.0536702 3.98044294,10.4822964 4.31530384,10.8628048 L5.46836094,10.4749534 L5.68030823,10.6399151 C5.99135262,10.8820055 6.33722068,11.0720771 6.70809684,11.2041074 L6.97648291,11.2996517 L7.03112473,11.5792479 L7.19864534,12.4364366 C7.46274844,12.4786192 7.73174104,12.5 8,12.5 C8.26919221,12.5 8.53971317,12.4784705 8.80131133,12.4364957 L9.02225988,11.3040541 L9.29086428,11.2085221 C9.66869522,11.0741425 10.016195,10.8842176 10.3264901,10.642362 L10.5385347,10.4770866 L10.7933409,10.5628343 L11.6846165,10.8627698 C12.0217346,10.4784511 12.2855905,10.0500657 12.4692355,9.59145125 L11.5532667,8.850085 L11.6030824,8.56104108 C11.6350141,8.37576502 11.6512306,8.18764289 11.6512306,8.0008371 C11.6512306,7.81403131 11.6350141,7.62590918 11.6030824,7.44063312 L11.5532667,7.1515892 L11.7812528,6.96706192 L12.4698568,6.40972121 Z M4.36295886,5.08340781 C4.36345364,5.08287138 4.36394496,5.08232911 4.36443276,5.081781 L4.36295886,5.08340781 Z M11.6370411,10.9160341 C11.6365464,10.9165706 11.636055,10.9171128 11.6355672,10.9176609 L11.6370411,10.9160341 Z M12.5093833,9.48666813 L12.5113197,9.48140624 C12.5106435,9.48315601 12.5099985,9.48490902 12.5093846,9.48666459 Z" id="路径" stroke="#46B375" fill-rule="nonzero"></path>
            <path d="M9.06073107,9.06073098 C9.34464198,8.77504703 9.5,8.40005123 9.5,8 C9.5,7.59955742 9.34433787,7.22421931 9.06073232,6.93926768 C8.77639494,6.65493029 8.40198007,6.5 8,6.5 C7.59801993,6.5 7.22360506,6.65493029 6.94010251,6.93843087 C6.65566213,7.22421931 6.5,7.59955742 6.5,8 C6.5,8.40044258 6.65566213,8.77578069 6.93843087,9.05989749 C7.22421931,9.34433787 7.59955742,9.5 8,9.5 C8.40005123,9.5 8.77504703,9.34464198 9.06073098,9.06073107 Z M9.06073098,9.06073107 C9.06101045,9.06045333 9.06128983,9.06017547 9.06156913,9.05989749 L9.05989749,9.06156913 C9.06017547,9.06128983 9.06045333,9.06101045 9.06073107,9.06073098 Z" id="路径" stroke="#46B375" fill-rule="nonzero"></path>
            <rect id="矩形" stroke="#46B375" x="1.5" y="1.5" width="13" height="13" rx="3"></rect>
            <rect id="矩形" fill="#46B375" x="5" y="0" width="1" height="2" rx="0.5"></rect>
            <rect id="矩形" fill="#46B375" x="10" y="0" width="1" height="2" rx="0.5"></rect>
            <rect id="矩形" fill="#46B375" x="5" y="14" width="1" height="2" rx="0.5"></rect>
            <rect id="矩形" fill="#46B375" x="10" y="14" width="1" height="2" rx="0.5"></rect>
            <rect id="矩形" fill="#46B375" x="0" y="5" width="2" height="1" rx="0.5"></rect>
            <rect id="矩形" fill="#46B375" x="0" y="10" width="2" height="1" rx="0.5"></rect>
            <rect id="矩形" fill="#46B375" x="14" y="5" width="2" height="1" rx="0.5"></rect>
            <rect id="矩形" fill="#46B375" x="14" y="10" width="2" height="1" rx="0.5"></rect>
        </g>
    </g>
</svg>