<?xml version="1.0" encoding="UTF-8"?>
<svg width="11px" height="20px" viewBox="0 0 11 20" version="1.1" xmlns="http://www.w3.org/2000/svg" xmlns:xlink="http://www.w3.org/1999/xlink">
    <!-- Generator: Sketch 57.1 (83088) - https://sketch.com -->
    <title>fixed</title>
    <desc>Created with Sketch.</desc>
    <g id="页面-1" stroke="none" stroke-width="1" fill="none" fill-rule="evenodd">
        <g id="fixed" transform="translate(-5.000000, 0.000000)" fill-rule="nonzero">
            <rect id="矩形" fill="#000000" opacity="0" x="0" y="0" width="20" height="20"></rect>
            <path d="M14.2252087,0 C14.5289645,0 14.7752071,0.269302406 14.7752071,0.601503759 C14.7752071,0.748820548 14.7257741,0.891015165 14.6362827,1.00112111 L12.817127,3.23909774 L13.5161749,8.2075188 L15.889968,11.6691729 C16.0722214,11.934934 16.0229729,12.3119574 15.7799683,12.5112782 C15.6847657,12.5893667 15.5689725,12.6315789 15.4499693,12.6315789 L11.812,12.631 L10.5,20 L9.188,12.631 L5.54999838,12.6315789 C5.24624266,12.6315789 5,12.3622765 5,12.0300752 C5,11.8999277 5.03859772,11.7732909 5.10999968,11.6691729 L7.48379269,8.2075188 L8.18284063,3.23909774 L6.36368498,1.00112111 C6.16188066,0.752830719 6.18233,0.372636811 6.40935985,0.151934244 C6.51003768,0.054062297 6.6400565,0 6.77475889,0 L14.2252087,0 Z M12.1924427,1.57894737 L8.8075249,1.57894737 L9.76674949,2.75901253 L8.91403942,8.81957349 L8.7000373,9.13164842 L7.38274325,11.0526316 L13.6172244,11.0526316 L12.0859282,8.81957349 L11.2332181,2.75901253 L11.6773958,2.21257269 L12.1924427,1.57894737 Z" id="形状结合" fill="#979797"></path>
        </g>
    </g>
</svg>