<svg xmlns="http://www.w3.org/2000/svg" width="33.531" height="29.844" viewBox="0 0 33.531 29.844">
  <defs>
    <style>
      .cls-1 {
        fill: #737373;
        fill-rule: evenodd;
      }
    </style>
  </defs>
  <path id="设备进行分组管理" class="cls-1" d="M884.244,846.7a1.058,1.058,0,0,1-.744-0.307l-4.462-4.5-4.5,4.456a1.048,1.048,0,1,1-1.476-1.488l5.244-5.191a1.047,1.047,0,0,1,1.479,0l0,0,5.2,5.237a1.045,1.045,0,0,1-.744,1.783h0Zm-5.222,11.427a1.048,1.048,0,0,1-1.048-1.047V842.2a1.048,1.048,0,0,1,2.1,0v14.876A1.048,1.048,0,0,1,879.022,858.125Zm9.722-6.828h-3.8a1.047,1.047,0,1,1,0-2.093h3.8a4.975,4.975,0,1,0,0-9.949h-2.836l0.158-1.452a3.245,3.245,0,0,0,.041-0.421,7.016,7.016,0,0,0-14.031,0,3.079,3.079,0,0,0,.042.421l0.157,1.452h-2.911a4.975,4.975,0,1,0,0,9.949h3.8a1.047,1.047,0,1,1,0,2.093h-3.8a7.068,7.068,0,1,1,0-14.135h0.619a9.111,9.111,0,0,1,18.216,0h0.543A7.068,7.068,0,1,1,888.744,851.3Z" transform="translate(-862.281 -828.281)"/>
</svg>
