<svg xmlns="http://www.w3.org/2000/svg" width="30.938" height="29.844" viewBox="0 0 30.938 29.844">
  <defs>
    <style>
      .cls-1 {
        fill: #737373;
        fill-rule: evenodd;
      }
    </style>
  </defs>
  <path id="查看健康状态" class="cls-1" d="M813.114,828.281H800.981a8.844,8.844,0,0,0-8.825,8.843v3.014a0.863,0.863,0,1,0,1.725,0v-3.014a7.115,7.115,0,0,1,7.1-7.114h12.133a7.115,7.115,0,0,1,7.1,7.114v12.158a7.115,7.115,0,0,1-7.1,7.114H800.981a7.115,7.115,0,0,1-7.1-7.114v-3.613h3.507a0.862,0.862,0,0,0,.786-0.508l0.786-1.741,3.242,7.912a0.862,0.862,0,0,0,1.616-.056l4.2-12.682,1.766,6.261a0.863,0.863,0,0,0,.83.629H817.4a0.864,0.864,0,0,0,0-1.728h-6.131l-2.353-8.341a0.862,0.862,0,0,0-1.648-.037l-4.35,13.14L799.8,840.91a0.862,0.862,0,0,0-1.584-.028l-1.38,3.058h-4.957a0.865,0.865,0,0,0,0,1.729h0.281v3.613a8.843,8.843,0,0,0,8.825,8.842h12.133a8.842,8.842,0,0,0,8.824-8.842V837.124a8.843,8.843,0,0,0-8.824-8.843h0Z" transform="translate(-791 -828.281)"/>
</svg>
