<svg xmlns="http://www.w3.org/2000/svg" xmlns:xlink="http://www.w3.org/1999/xlink" width="31.62" height="30.125" viewBox="0 0 31.62 30.125">
  <defs>
    <style>
      .cls-1 {
        fill-rule: evenodd;
        filter: url(#filter);
      }
    </style>
    <filter id="filter" x="1003.19" y="828" width="31.62" height="30.125" filterUnits="userSpaceOnUse">
      <feFlood result="flood" flood-color="#737373"/>
      <feComposite result="composite" operator="in" in2="SourceGraphic"/>
      <feBlend result="blend" in2="SourceGraphic"/>
    </filter>
  </defs>
  <path id="信息推送" class="cls-1" d="M1019.51,842.378h-6.69a1.369,1.369,0,1,0,0,2.738h6.69A1.369,1.369,0,1,0,1019.51,842.378ZM1019,828c-8.73,0-15.8,5.977-15.8,13.351a12.749,12.749,0,0,0,6.14,10.568v6.206l6.66-3.664a18.632,18.632,0,0,0,3,.241c8.72,0,15.8-5.978,15.8-13.351S1027.72,828,1019,828Zm0,24.65a16.645,16.645,0,0,1-3.72-.417l-4.18,2.348,0.41-3.752c-3.77-2.015-6.26-5.5-6.26-9.474,0-6.238,6.16-11.3,13.75-11.3s13.74,5.058,13.74,11.3S1026.59,852.65,1019,852.65Zm4.81-15.065h-10.99a1.37,1.37,0,1,0,0,2.739h10.99A1.37,1.37,0,1,0,1023.81,837.585Z" transform="translate(-1003.19 -828)"/>
</svg>
