<svg xmlns="http://www.w3.org/2000/svg" xmlns:xlink="http://www.w3.org/1999/xlink" width="28.5" height="26.625" viewBox="0 0 28.5 26.625">
  <defs>
    <style>
      .cls-1 {
        fill-rule: evenodd;
        filter: url(#filter);
      }
    </style>
    <filter id="filter" x="1532.25" y="619.5" width="28.5" height="26.625" filterUnits="userSpaceOnUse">
      <feFlood result="flood" flood-color="#737373"/>
      <feComposite result="composite" operator="in" in2="SourceGraphic"/>
      <feBlend result="blend" in2="SourceGraphic"/>
    </filter>
  </defs>
  <path id="应用安装" class="cls-1" d="M1535.03,646.1a2.764,2.764,0,0,1-2.76-2.759V626.576a2.764,2.764,0,0,1,2.76-2.759h0.34V622.28a2.755,2.755,0,0,1,2.75-2.759h16.76a2.755,2.755,0,0,1,2.75,2.759v1.537h0.34a2.764,2.764,0,0,1,2.76,2.759v16.768a2.764,2.764,0,0,1-2.76,2.759h-22.94Zm0-20.874a1.346,1.346,0,0,0-1.35,1.347v16.768a1.346,1.346,0,0,0,1.35,1.347h22.94a1.353,1.353,0,0,0,1.35-1.347V626.576a1.353,1.353,0,0,0-1.35-1.347h-22.94Zm21.19-1.412V622.28a1.344,1.344,0,0,0-1.34-1.347h-16.76a1.344,1.344,0,0,0-1.34,1.347v1.537h19.44Zm-1.34-4.274a2.74,2.74,0,0,1,2.73,2.737v1.559h0.36a2.742,2.742,0,0,1,2.74,2.737v16.768a2.742,2.742,0,0,1-2.74,2.737h-22.94a2.742,2.742,0,0,1-2.74-2.737V626.576a2.742,2.742,0,0,1,2.74-2.737h0.36V622.28a2.734,2.734,0,0,1,2.73-2.737h16.76m-18.13,4.3h19.49V622.28a1.367,1.367,0,0,0-1.36-1.369h-16.76a1.375,1.375,0,0,0-1.37,1.369v1.559m-1.72,20.873h22.94a1.368,1.368,0,0,0,1.37-1.368V626.576a1.368,1.368,0,0,0-1.37-1.368h-22.94a1.368,1.368,0,0,0-1.37,1.368v16.768a1.368,1.368,0,0,0,1.37,1.368m19.85-25.212h-16.76a2.785,2.785,0,0,0-2.78,2.78V623.8h-0.31a2.779,2.779,0,0,0-2.78,2.78v16.768a2.779,2.779,0,0,0,2.78,2.78h22.94a2.785,2.785,0,0,0,2.78-2.78V626.576a2.785,2.785,0,0,0-2.78-2.78h-0.32V622.28a2.776,2.776,0,0,0-2.77-2.78h0Zm-18.08,4.3V622.28a1.323,1.323,0,0,1,1.32-1.326h16.76a1.323,1.323,0,0,1,1.32,1.326V623.8h-19.4Zm-1.77,20.874a1.332,1.332,0,0,1-1.33-1.326V626.576a1.332,1.332,0,0,1,1.33-1.326h22.94a1.332,1.332,0,0,1,1.33,1.326v16.768a1.332,1.332,0,0,1-1.33,1.326h-22.94Zm6.36-.585a1.209,1.209,0,0,1-1.11-.747,1.226,1.226,0,0,1,.26-1.337l0.95-.943-0.95-.945-0.94.943a1.214,1.214,0,0,1-.86.358,1.264,1.264,0,0,1-.48-0.1,1.222,1.222,0,0,1-.75-1.137,3.881,3.881,0,0,1,3.87-3.84,3.822,3.822,0,0,1,1.22.2l5.34-5.341a3.873,3.873,0,0,1,3.66-5.094,1.189,1.189,0,0,1,1.11.747,1.225,1.225,0,0,1-.26,1.337l-0.94.944,0.94,0.945,0.94-.943a1.216,1.216,0,0,1,.87-0.359,1.2,1.2,0,0,1,.47.1,1.221,1.221,0,0,1,.75,1.137,3.868,3.868,0,0,1-5.09,3.641l-5.34,5.342a3.862,3.862,0,0,1-3.65,5.093h-0.01Zm-0.85-5.463a1.2,1.2,0,0,1,.86.357l1.22,1.215a1.233,1.233,0,0,1,0,1.726l-0.69.694a2.436,2.436,0,0,0,1.26-.734,2.485,2.485,0,0,0,.4-2.751l-0.21-.438v-0.025l6.69-6.691a0.015,0.015,0,0,1,.01-0.007c0.01,0,.01,0,0.01,0l0.44,0.214a2.516,2.516,0,0,0,1.09.25,2.455,2.455,0,0,0,2.39-1.919l-0.69.7a1.226,1.226,0,0,1-1.73,0L1550.38,630a1.216,1.216,0,0,1,0-1.727l0.69-.694a2.462,2.462,0,0,0-1.67,3.485l0.22,0.438a0.027,0.027,0,0,1-.01.025l-6.68,6.691a0.039,0.039,0,0,1-.02.006,0.018,0.018,0,0,1-.01,0l-0.44-.215a2.456,2.456,0,0,0-3.48,1.668l0.7-.693a1.224,1.224,0,0,1,.86-0.356h0Zm11.06-12.5a1.172,1.172,0,0,1,1.09.734,1.2,1.2,0,0,1-.25,1.314l-0.96.959,0.97,0.975,0.96-.958a1.2,1.2,0,0,1,2.05.859,3.852,3.852,0,0,1-5.08,3.617l-5.35,5.36a3.884,3.884,0,0,1-.82,3.839,3.838,3.838,0,0,1-2.81,1.239h-0.01a1.2,1.2,0,0,1-.83-2.048l0.96-.958-0.98-.975-0.96.958a1.166,1.166,0,0,1-.84.352,1.213,1.213,0,0,1-.47-0.094,1.184,1.184,0,0,1-.73-1.117,3.78,3.78,0,0,1,1.12-2.691,3.851,3.851,0,0,1,3.95-.926l5.36-5.36a3.84,3.84,0,0,1,3.63-5.079h0m-8.69,12.073-0.44-.216a2.478,2.478,0,0,0-2.84.473,2.441,2.441,0,0,0-.68,1.281l0.74-.744a1.22,1.22,0,0,1,.85-0.349,1.187,1.187,0,0,1,.85.35l1.21,1.215a1.2,1.2,0,0,1,0,1.7l-0.74.744a2.494,2.494,0,0,0,1.35-.754,2.525,2.525,0,0,0,.4-2.776l-0.21-.438,6.68-6.691,0.44,0.214a2.527,2.527,0,0,0,1.1.253,2.482,2.482,0,0,0,1.75-.726,2.549,2.549,0,0,0,.68-1.281l-0.75.746a1.164,1.164,0,0,1-.84.351,1.187,1.187,0,0,1-.85-0.351l-1.22-1.215a1.2,1.2,0,0,1,0-1.7l0.75-.744a2.42,2.42,0,0,0-1.35.754,2.488,2.488,0,0,0-.4,2.775l0.21,0.438-6.69,6.692m8.69-12.115h0a3.884,3.884,0,0,0-3.68,5.109l-5.32,5.323a3.892,3.892,0,0,0-5.11,3.666,1.248,1.248,0,0,0,.77,1.157,1.225,1.225,0,0,0,1.35-.268l0.93-.928,0.92,0.915-0.93.928a1.24,1.24,0,0,0,.86,2.121,3.885,3.885,0,0,0,3.69-5.109l5.31-5.324a3.893,3.893,0,0,0,1.22.2,3.891,3.891,0,0,0,3.89-3.86,1.237,1.237,0,0,0-.76-1.157,1.286,1.286,0,0,0-.48-0.1,1.232,1.232,0,0,0-.88.364l-0.93.928-0.91-.914,0.93-.928a1.246,1.246,0,0,0,.26-1.361,1.215,1.215,0,0,0-1.13-.76h0Zm-8.69,12.158a0.05,0.05,0,0,0,.03-0.013l6.69-6.691a0.082,0.082,0,0,0,.01-0.049l-0.22-.438a2.484,2.484,0,0,1,.4-2.728,2.4,2.4,0,0,1,1.18-.709l-0.64.64a1.253,1.253,0,0,0,0,1.758l1.22,1.214a1.235,1.235,0,0,0,.88.363,1.212,1.212,0,0,0,.87-0.363l0.64-.641a2.35,2.35,0,0,1-.63,1.116,2.415,2.415,0,0,1-1.72.713,2.5,2.5,0,0,1-1.08-.249l-0.44-.214a0.026,0.026,0,0,0-.02,0,0.044,0.044,0,0,0-.03.013l-6.68,6.691a0.045,0.045,0,0,0-.01.049l0.21,0.438a2.461,2.461,0,0,1-.39,2.727,2.435,2.435,0,0,1-1.19.71l0.64-.64a1.233,1.233,0,0,0,0-1.756l-1.21-1.215a1.235,1.235,0,0,0-.88-0.363,1.263,1.263,0,0,0-.88.361l-0.64.64a2.45,2.45,0,0,1,.64-1.116,2.433,2.433,0,0,1,2.79-.464l0.44,0.215a0.049,0.049,0,0,0,.02,0h0Z" transform="translate(-1532.25 -619.5)"/>
</svg>
