<?xml version="1.0" encoding="UTF-8"?>
<svg width="52px" height="52px" viewBox="0 0 52 52" version="1.1" xmlns="http://www.w3.org/2000/svg" xmlns:xlink="http://www.w3.org/1999/xlink">
    <!-- Generator: Sketch 57.1 (83088) - https://sketch.com -->
    <title>icon_normal日志下载</title>
    <desc>Created with Sketch.</desc>
    <defs>
        <linearGradient x1="50%" y1="2.05078125%" x2="50%" y2="97.5285195%" id="linearGradient-1">
            <stop stop-color="#15AAD7" offset="0%"></stop>
            <stop stop-color="#0BB790" offset="100%"></stop>
        </linearGradient>
        <rect id="path-2" x="0" y="0" width="48" height="48" rx="10"></rect>
        <filter x="-5.2%" y="-5.2%" width="114.6%" height="114.6%" filterUnits="objectBoundingBox" id="filter-3">
            <feOffset dx="1" dy="1" in="SourceAlpha" result="shadowOffsetOuter1"></feOffset>
            <feGaussianBlur stdDeviation="1" in="shadowOffsetOuter1" result="shadowBlurOuter1"></feGaussianBlur>
            <feColorMatrix values="0 0 0 0 0   0 0 0 0 0   0 0 0 0 0  0 0 0 0.296601836 0" type="matrix" in="shadowBlurOuter1"></feColorMatrix>
        </filter>
        <filter x="-28.6%" y="-28.6%" width="157.1%" height="157.1%" filterUnits="objectBoundingBox" id="filter-4">
            <feOffset dx="0" dy="2" in="SourceAlpha" result="shadowOffsetOuter1"></feOffset>
            <feGaussianBlur stdDeviation="1" in="shadowOffsetOuter1" result="shadowBlurOuter1"></feGaussianBlur>
            <feColorMatrix values="0 0 0 0 0   0 0 0 0 0   0 0 0 0 0  0 0 0 0.15 0" type="matrix" in="shadowBlurOuter1" result="shadowMatrixOuter1"></feColorMatrix>
            <feMerge>
                <feMergeNode in="shadowMatrixOuter1"></feMergeNode>
                <feMergeNode in="SourceGraphic"></feMergeNode>
            </feMerge>
        </filter>
    </defs>
    <g id="2023年2月15日" stroke="none" stroke-width="1" fill="none" fill-rule="evenodd">
        <g id="icon_normal日志下载" transform="translate(1.000000, 1.000000)">
            <g id="矩形">
                <use fill="black" fill-opacity="1" filter="url(#filter-3)" xlink:href="#path-2"></use>
                <use fill="url(#linearGradient-1)" fill-rule="evenodd" xlink:href="#path-2"></use>
            </g>
            <g id="编组-4" filter="url(#filter-4)" transform="translate(10.000000, 10.000000)" fill="#FFFFFF">
                <path d="M14.5,19.0005813 C15.3281061,19.0005813 15.9994187,19.6718939 15.9994187,20.5 C15.9994187,21.3281061 15.3281061,21.9994187 14.5,21.9994187 L7.49883734,21.9994187 C6.67073127,21.9994187 5.99941867,21.3281061 5.99941867,20.5 C5.99941867,19.6718939 6.67073127,19.0005813 7.49883734,19.0005813 L14.5,19.0005813 Z M17.5005813,13 C18.3286874,13 19,13.6713126 19,14.4994187 C19,15.3275247 18.3286874,15.9988373 17.5005813,15.9988373 L7.49941867,15.9988373 C6.6713126,15.9988373 6,15.3275247 6,14.4994187 C6,13.6713126 6.6713126,13 7.49941867,13 L17.5005813,13 Z" id="形状结合"></path>
                <path d="M17,8.49941867 C17,9.32752473 16.3286874,9.99883734 15.5005813,9.99883734 L7.49941867,9.99883734 C6.6713126,9.99883734 6,9.32752473 6,8.49941867 C6,7.6713126 6.6713126,7 7.49941867,7 L15.5005813,7 C16.3286874,7 17,7.6713126 17,8.49941867 Z" id="形状结合"></path>
                <path d="M22,8.5 C22,9.32842712 21.3284271,10 20.5,10 C19.6715729,10 19,9.32842712 19,8.5 C19,7.67157288 19.6715729,7 20.5,7 C21.3284271,7 22,7.67157288 22,8.5 Z" id="形状结合"></path>
                <path d="M21.7777778,-3.37507799e-14 C25.2142162,-3.37507799e-14 28,2.78470414 28,6.21981078 L28,11.6044796 C28,12.4329068 27.3284271,13.1044796 26.5,13.1044796 C25.6715729,13.1044796 25,12.4329068 25,11.6044796 L25,6.21981078 L25,6.21981078 C25,4.15874679 24.0620552,3.13045421 22.0334733,2.99883734 L21.7777778,2.99883734 L6.22222222,2.99883734 C4.16035916,2.99883734 3.1316679,3.93641862 3,5.96421436 L3,6.21981078 L3,21.7693377 C3,23.8304017 3.93794479,24.8586943 5.96652671,24.9903112 L6.22222222,24.9903112 L15.6116924,24.9903112 C16.4397985,24.9903112 17.1111111,25.6616238 17.1111111,26.4897298 C17.1111111,27.3178359 16.4397985,27.9891485 15.6116924,27.9891485 L6.22222222,27.9891485 L6.22222222,27.9891485 C2.78578378,27.9891485 0,25.2044444 0,21.7693377 L0,6.21981078 C0,2.78470414 2.78578378,-3.37507799e-14 6.22222222,-3.37507799e-14 L21.7777778,-3.37507799e-14 Z" id="路径"></path>
                <path d="M22.9443176,14 C23.7687909,14 24.4371585,14.6683676 24.4371585,15.4928409 L24.436386,22.732 L25.3359093,21.8071954 C25.9248015,21.2015628 26.8931552,21.1879919 27.4987879,21.7768841 L27.5248854,21.8028788 C28.1348011,22.425203 28.1367638,23.4204922 27.5293072,24.045217 L24.1582834,27.5120691 C23.9204421,27.7566716 23.6207035,27.9046979 23.3079628,27.9554627 C23.1917498,27.9845074 23.069843,28 22.9443176,28 C22.5789314,28 22.2442051,27.8687297 21.9847266,27.6507771 C21.9350966,27.6114079 21.8872712,27.5681012 21.8417166,27.5212515 L21.8417166,27.5212515 L18.4706928,24.0543994 C17.8632362,23.4296747 17.8651989,22.4343854 18.4751146,21.8120613 C18.4837091,21.8032919 18.4924089,21.7946264 18.5012121,21.7860666 C19.1068448,21.1971744 20.0751985,21.2107452 20.6640907,21.8163779 L20.6640907,21.8163779 L21.451386,22.626 L21.4514768,15.4928409 C21.4514768,14.6683676 22.1198444,14 22.9443176,14 Z" id="形状结合" transform="translate(23.000000, 21.000000) rotate(-360.000000) translate(-23.000000, -21.000000) "></path>
            </g>
        </g>
    </g>
</svg>