<?xml version="1.0" encoding="UTF-8"?>
<svg width="22px" height="22px" viewBox="0 0 22 22" version="1.1" xmlns="http://www.w3.org/2000/svg" xmlns:xlink="http://www.w3.org/1999/xlink">
    <!-- Generator: Sketch 57.1 (83088) - https://sketch.com -->
    <title>earth</title>
    <desc>Created with Sketch.</desc>
    <g id="页面-1" stroke="none" stroke-width="1" fill="none" fill-rule="evenodd">
        <g id="earth" transform="translate(-1.000000, -1.000000)" fill-rule="nonzero">
            <rect id="矩形" fill="#000000" opacity="0" x="0" y="0" width="24" height="24"></rect>
            <path d="M20.025,18.7710937 C20.0296875,18.7640625 20.0367187,18.7570312 20.0414063,18.75 C21.5765625,16.9242187 22.5,14.5710937 22.5,12 C22.5,9.42890625 21.5765625,7.07578125 20.04375,5.25 C20.0390625,5.24296875 20.0320313,5.23828125 20.0273438,5.23125 C20.0015625,5.20078125 19.978125,5.17265625 19.9523437,5.14453125 C19.9429687,5.1328125 19.9335938,5.1234375 19.9242187,5.11171875 C19.8914062,5.07421875 19.8609375,5.0390625 19.828125,5.0015625 L19.8257812,4.99921875 C19.790625,4.959375 19.753125,4.91953125 19.7179687,4.8796875 L19.715625,4.87734375 C19.640625,4.79765625 19.565625,4.71796875 19.4882812,4.640625 L19.4859375,4.63828125 L19.3734375,4.52578125 L19.3664062,4.51875 C19.33125,4.48359375 19.2960937,4.45078125 19.2609375,4.41796875 C19.2492187,4.40625 19.2375,4.39453125 19.2234375,4.3828125 C19.2,4.359375 19.1765625,4.33828125 19.153125,4.3171875 C19.1460937,4.31015625 19.1367187,4.303125 19.1296875,4.29375 C17.259375,2.559375 14.7539063,1.5 12,1.5 C9.24609375,1.5 6.740625,2.559375 4.86796875,4.29375 C4.8609375,4.30078125 4.8515625,4.3078125 4.84453125,4.3171875 C4.82109375,4.33828125 4.79765625,4.36171875 4.77421875,4.38515625 C4.7625,4.396875 4.75078125,4.40859375 4.73671875,4.4203125 C4.7015625,4.453125 4.66640625,4.48828125 4.63125,4.52109375 L4.62421875,4.528125 L4.51171875,4.640625 L4.509375,4.64296875 C4.43203125,4.7203125 4.35703125,4.8 4.28203125,4.8796875 L4.2796875,4.88203125 C4.2421875,4.921875 4.20703125,4.96171875 4.171875,5.0015625 L4.16953125,5.00390625 C4.13671875,5.0390625 4.10390625,5.0765625 4.0734375,5.1140625 C4.0640625,5.12578125 4.0546875,5.13515625 4.0453125,5.146875 C4.01953125,5.175 3.99609375,5.20546875 3.9703125,5.23359375 C3.965625,5.240625 3.95859375,5.2453125 3.95390625,5.25234375 C2.4234375,7.07578125 1.5,9.42890625 1.5,12 C1.5,14.5710937 2.4234375,16.9242187 3.95625,18.75 C3.9609375,18.7570312 3.96796875,18.7640625 3.97265625,18.7710937 C3.99609375,18.7992187 4.021875,18.8296875 4.0453125,18.8578125 C4.0546875,18.8695312 4.0640625,18.8789062 4.0734375,18.890625 C4.10625,18.928125 4.13671875,18.9632812 4.16953125,19.0007812 C4.16953125,19.003125 4.171875,19.003125 4.171875,19.0054687 C4.20703125,19.0453125 4.2421875,19.0851562 4.2796875,19.1226562 L4.28203125,19.125 C4.35703125,19.2046875 4.43203125,19.284375 4.50703125,19.3617187 L4.509375,19.3640625 C4.546875,19.4015625 4.58203125,19.4390625 4.61953125,19.4742188 L4.6265625,19.48125 C4.70390625,19.5585937 4.78359375,19.6335937 4.86328125,19.70625 C6.740625,21.440625 9.24609375,22.5 12,22.5 C14.7539063,22.5 17.259375,21.440625 19.1320312,19.70625 C19.2117187,19.6335937 19.2890625,19.5585938 19.3664062,19.48125 L19.3734375,19.4742188 C19.4109375,19.4367187 19.4484375,19.4015625 19.4835938,19.3640625 L19.4859375,19.3617187 C19.5632812,19.284375 19.6382812,19.2046875 19.7109375,19.125 L19.7132813,19.1226562 C19.7484375,19.0828125 19.7859375,19.0453125 19.8210938,19.0054687 C19.8210938,19.003125 19.8234375,19.003125 19.8234375,19.0007812 C19.85625,18.965625 19.8890625,18.928125 19.9195313,18.890625 C19.9289063,18.8789062 19.9382812,18.8695312 19.9476563,18.8578125 C19.9757813,18.8273437 20.0015625,18.7992187 20.025,18.7710937 Z M20.1210938,15.4289062 C19.7976563,16.1929687 19.3710938,16.9007812 18.8507813,17.5429688 C18.2671875,17.0390625 17.6273438,16.5984375 16.940625,16.2328125 C17.2125,15.1335938 17.38125,13.9265625 17.4257812,12.65625 L20.7890625,12.65625 C20.71875,13.6148437 20.49375,14.5453125 20.1210938,15.4289062 Z M20.7890625,11.34375 L17.4257812,11.34375 C17.38125,10.0734375 17.2125,8.86640625 16.940625,7.7671875 C17.6273438,7.4015625 18.2671875,6.9609375 18.8507813,6.45703125 C19.3710938,7.09921875 19.7976562,7.80703125 20.1210938,8.57109375 C20.49375,9.4546875 20.71875,10.3851563 20.7890625,11.34375 Z M15.4289063,3.87890625 C16.359375,4.27265625 17.2054688,4.81640625 17.9507813,5.50078125 C17.5171875,5.87109375 17.0507812,6.196875 16.5585938,6.48046875 C16.190625,5.42578125 15.7195313,4.509375 15.1710938,3.77578125 C15.2578125,3.80859375 15.3445312,3.84375 15.4289063,3.87890625 Z M13.3054688,20.2992188 C13.0898438,20.4679688 12.8742188,20.596875 12.65625,20.6835938 L12.65625,16.3359375 C13.5914062,16.4015625 14.4984375,16.6078125 15.3679688,16.95 C15.1734375,17.5265625 14.9484375,18.0585938 14.6882813,18.5390625 C14.2804688,19.2984375 13.8023438,19.9054687 13.3054688,20.2992188 Z M14.6882813,5.4609375 C14.9460938,5.94375 15.1734375,6.47578125 15.3679688,7.05 C14.4984375,7.3921875 13.5914063,7.5984375 12.65625,7.6640625 L12.65625,3.31875 C12.871875,3.40546875 13.0898438,3.53203125 13.3054688,3.703125 C13.8023438,4.09453125 14.2804688,4.7015625 14.6882813,5.4609375 Z M12.65625,15.0210937 L12.65625,12.65625 L16.1132812,12.65625 C16.0757812,13.6921875 15.946875,14.6976563 15.73125,15.6515625 L15.7242188,15.6796875 C14.7609375,15.3140625 13.7296875,15.0867188 12.65625,15.0210937 L12.65625,15.0210937 Z M12.65625,11.34375 L12.65625,8.97890625 C13.7296875,8.91328125 14.7609375,8.6859375 15.7242188,8.3203125 L15.73125,8.3484375 C15.946875,9.30234375 16.0757812,10.3054687 16.1132812,11.34375 L12.65625,11.34375 Z M11.34375,12.65625 L11.34375,15.0210937 C10.2703125,15.0867187 9.2390625,15.3140625 8.27578125,15.6796875 L8.26875,15.6515625 C8.053125,14.6976562 7.92421875,13.6945312 7.88671875,12.65625 L11.34375,12.65625 Z M7.88671875,11.34375 C7.92421875,10.3078125 8.053125,9.30234375 8.26875,8.3484375 L8.27578125,8.3203125 C9.2390625,8.6859375 10.2679688,8.91328125 11.34375,8.97890625 L11.34375,11.34375 L7.88671875,11.34375 Z M11.34375,16.3359375 L11.34375,20.68125 C11.128125,20.5945312 10.9101562,20.4679687 10.6945312,20.296875 C10.1976562,19.9054687 9.7171875,19.2960937 9.309375,18.5367187 C9.0515625,18.0539062 8.82421875,17.521875 8.6296875,16.9476563 C9.5015625,16.6054688 10.4085937,16.4015625 11.34375,16.3359375 Z M11.34375,7.6640625 C10.4085937,7.5984375 9.5015625,7.3921875 8.63203125,7.05 C8.8265625,6.4734375 9.0515625,5.94140625 9.31171875,5.4609375 C9.71953125,4.7015625 10.1976562,4.0921875 10.696875,3.70078125 C10.9125,3.53203125 11.128125,3.403125 11.3460937,3.31640625 L11.3460937,7.6640625 L11.34375,7.6640625 Z M8.57109375,3.87890625 C8.6578125,3.84375 8.7421875,3.80859375 8.82890625,3.77578125 C8.28046875,4.509375 7.809375,5.42578125 7.44140625,6.48046875 C6.94921875,6.19921875 6.4828125,5.87109375 6.04921875,5.50078125 C6.79453125,4.81640625 7.640625,4.27265625 8.57109375,3.87890625 L8.57109375,3.87890625 Z M3.87890625,8.57109375 C4.20234375,7.80703125 4.62890625,7.09921875 5.14921875,6.45703125 C5.7328125,6.9609375 6.37265625,7.4015625 7.059375,7.7671875 C6.7875,8.86640625 6.61875,10.0734375 6.57421875,11.34375 L3.2109375,11.34375 C3.28125,10.3851563 3.50625,9.4546875 3.87890625,8.57109375 Z M3.2109375,12.65625 L6.57421875,12.65625 C6.61875,13.9265625 6.7875,15.1335938 7.059375,16.2328125 C6.37265625,16.5984375 5.7328125,17.0390625 5.14921875,17.5429688 C4.62890625,16.9007813 4.20234375,16.1929687 3.87890625,15.4289062 C3.50625,14.5453125 3.28125,13.6148437 3.2109375,12.65625 Z M8.57109375,20.1210938 C7.640625,19.7273437 6.79453125,19.1835938 6.04921875,18.4992187 C6.4828125,18.1289062 6.94921875,17.803125 7.44140625,17.5195312 C7.809375,18.5742188 8.28046875,19.490625 8.82890625,20.2242187 C8.7421875,20.1914062 8.65546875,20.15625 8.57109375,20.1210938 Z M15.4289063,20.1210938 C15.3421875,20.15625 15.2578125,20.1914062 15.1710938,20.2242187 C15.7195312,19.490625 16.190625,18.5742188 16.5585938,17.5195312 C17.0507812,17.8007812 17.5171875,18.1289062 17.9507813,18.4992187 C17.2054688,19.1835938 16.359375,19.7273437 15.4289063,20.1210938 Z" id="形状" fill="#FFFFFF"></path>
        </g>
    </g>
</svg>