<?xml version="1.0" encoding="UTF-8"?>
<svg width="24px" height="24px" viewBox="0 0 24 24" version="1.1" xmlns="http://www.w3.org/2000/svg" xmlns:xlink="http://www.w3.org/1999/xlink">
    <!-- Generator: Sketch 57.1 (83088) - https://sketch.com -->
    <title>Pepeol</title>
    <desc>Created with Sketch.</desc>
    <g id="banner" stroke="none" stroke-width="1" fill="none" fill-rule="evenodd">
        <g id="操作页面" transform="translate(-1254.000000, -27.000000)">
            <g id="Pepeol" transform="translate(1254.000000, 27.000000)">
                <circle id="椭圆形备份" fill-opacity="0.616586538" fill="#FFFFFF" opacity="0.400530134" cx="12" cy="12" r="12"></circle>
                <g id="user" transform="translate(3.000000, 3.000000)" fill-rule="nonzero">
                    <rect id="矩形" fill="#000000" opacity="0" x="0" y="0" width="18" height="18"></rect>
                    <path d="M15.0908203,13.4226563 C14.7585937,12.6351563 14.2804687,11.9285156 13.6740234,11.3220703 C13.0675781,10.715625 12.3609375,10.2392578 11.5734375,9.90527344 C11.5664062,9.90175781 11.559375,9.9 11.5523437,9.89648438 C12.6474609,9.10546875 13.359375,7.81699219 13.359375,6.36328125 C13.359375,3.95507812 11.4082031,2.00390625 9,2.00390625 C6.59179687,2.00390625 4.640625,3.95507812 4.640625,6.36328125 C4.640625,7.81699219 5.35253906,9.10546875 6.44765625,9.89824219 C6.440625,9.90175781 6.43359375,9.90351563 6.4265625,9.90703125 C5.6390625,10.2392578 4.93242187,10.715625 4.32597656,11.3238281 C3.71953125,11.9302734 3.24316406,12.6369141 2.90917969,13.4244141 C2.58222656,14.1943359 2.40820312,15.0117188 2.39058925,15.8519531 C2.38886719,15.9310547 2.45214844,15.9960938 2.53125,15.9960938 L3.5859375,15.9960938 C3.66328125,15.9960938 3.72480469,15.9345703 3.7265625,15.8589844 C3.76171875,14.5019531 4.30664062,13.2310547 5.26992187,12.2677734 C6.26660156,11.2710938 7.59023437,10.7226563 9,10.7226563 C10.4097656,10.7226563 11.7333984,11.2710938 12.7300781,12.2677734 C13.6933594,13.2310547 14.2382812,14.5019531 14.2734375,15.8589844 C14.2751953,15.9363281 14.3367187,15.9960938 14.4140625,15.9960938 L15.46875,15.9960938 C15.5478516,15.9960938 15.6111328,15.9310547 15.6094108,15.8519531 C15.5917969,15.0117188 15.4177734,14.1943359 15.0908203,13.4226563 Z M9,9.38671875 C8.19316406,9.38671875 7.43378906,9.07207031 6.8625,8.50078125 C6.29121094,7.92949219 5.9765625,7.17011719 5.9765625,6.36328125 C5.9765625,5.55644531 6.29121094,4.79707031 6.8625,4.22578125 C7.43378906,3.65449219 8.19316406,3.33984375 9,3.33984375 C9.80683594,3.33984375 10.5662109,3.65449219 11.1375,4.22578125 C11.7087891,4.79707031 12.0234375,5.55644531 12.0234375,6.36328125 C12.0234375,7.17011719 11.7087891,7.92949219 11.1375,8.50078125 C10.5662109,9.07207031 9.80683594,9.38671875 9,9.38671875 Z" id="形状" fill="#FFFFFF"></path>
                </g>
            </g>
        </g>
    </g>
</svg>