<svg xmlns="http://www.w3.org/2000/svg" width="32.75" height="30.344" viewBox="0 0 32.75 30.344">
  <defs>
    <style>
      .cls-1 {
        fill: #737373;
        fill-rule: evenodd;
      }
    </style>
  </defs>
  <path id="设备注册" class="cls-1" d="M610.322,827.776H581.678a2.043,2.043,0,0,0-2.044,2.044V852a2.043,2.043,0,0,0,2.044,2.044h8.185v2.045a2.044,2.044,0,0,0,2.045,2.044h8.184a2.044,2.044,0,0,0,2.045-2.044v-2.045h8.185A2.043,2.043,0,0,0,612.366,852V829.823a2.045,2.045,0,0,0-2.044-2.047h0ZM610.073,851.5H581.942V830.346h28.135V851.5h0Zm0,0-22.284-14.419a3.5,3.5,0,0,1,3.559-3.5,3.5,3.5,0,1,1-1.181,6.816,3.456,3.456,0,0,1-2.378-3.32h0Zm3.5,4.491c-2.333,0-6.989,1.338-6.989,3.993v0.973a1.025,1.025,0,0,0,1.024,1.024h11.933a1.025,1.025,0,0,0,1.024-1.024v-0.973c0-2.655-4.659-3.993-6.992-3.993h0Zm15.393-5.939h-6.144a1.024,1.024,0,0,1,0-2.048h6.144a1.024,1.024,0,0,1,0,2.048h0Zm1.024,2.951a1.027,1.027,0,0,0-1.024-1.024h-6.144a1.024,1.024,0,1,0,0,2.048h6.144a1.027,1.027,0,0,0,1.024-1.024h0Zm0,3.979a1.027,1.027,0,0,0-1.024-1.024h-6.144a1.024,1.024,0,0,0,0,2.048h6.144a1.027,1.027,0,0,0,1.024-1.024h0Zm0,3.978a1.027,1.027,0,0,0-1.024-1.024h-6.144a1.024,1.024,0,0,0,0,2.048h6.144a1.027,1.027,0,0,0,1.024-1.024h0Zm0,0" transform="translate(-579.625 -827.781)"/>
</svg>
