<svg xmlns="http://www.w3.org/2000/svg" xmlns:xlink="http://www.w3.org/1999/xlink" width="29.56" height="29.531" viewBox="0 0 29.56 29.531">
  <defs>
    <style>
      .cls-1 {
        stroke: #000;
        stroke-linecap: round;
        stroke-linejoin: round;
        stroke-width: 0.3px;
        fill-rule: evenodd;
        filter: url(#filter);
      }
    </style>
    <filter id="filter" x="1397.22" y="828.844" width="29.56" height="29.531" filterUnits="userSpaceOnUse">
      <feFlood result="flood" flood-color="#737373"/>
      <feComposite result="composite" operator="in" in2="SourceGraphic"/>
      <feBlend result="blend" in2="SourceGraphic"/>
    </filter>
  </defs>
  <g transform="translate(-1397.22 -828.844)" style="fill: ; filter: url(#filter)">
    <path id="远程诊断" class="cls-1" d="M1417.68,850.248a0.63,0.63,0,0,1-.05-0.841,6.342,6.342,0,1,0-1.74,1.525,0.627,0.627,0,0,1,.77.1l0.48,0.477,0.9-.9-0.36-.36h0Zm1.71-.088a0.637,0.637,0,0,1,0,.895v0l-1.8,1.793a0.639,0.639,0,0,1-.9,0l-0.59-.589a7.606,7.606,0,1,1,4.16-6.779,7.5,7.5,0,0,1-1.3,4.253l0.43,0.425h0Zm-0.08,3.509,3.1,3.093a0.637,0.637,0,0,0,.9,0,0.628,0.628,0,0,0,0-.895h0l-3.1-3.093Zm1.35-2.241,3.55,3.541a1.906,1.906,0,1,1-2.7,2.69l-3.55-3.541a0.629,0.629,0,0,1,0-.9h0l1.8-1.793a0.639,0.639,0,0,1,.9,0h0Zm1-14.363a0.629,0.629,0,0,1,0,.9h0l-8.18,8.156a0.637,0.637,0,0,1-.9,0l-2.01-2-2.01,2a0.637,0.637,0,0,1-.9,0,0.628,0.628,0,0,1,0-.9h0l2.46-2.453a0.639,0.639,0,0,1,.9,0l2.01,2,7.73-7.709a0.639,0.639,0,0,1,.9,0h0Zm3.05,10.953a0.638,0.638,0,0,0,.64-0.634V830.9a0.639,0.639,0,0,0-.64-0.634h-25.42a0.639,0.639,0,0,0-.64.634v16.482a0.638,0.638,0,0,0,.64.634h6.15a7.624,7.624,0,1,1,14.82-2.536,7.718,7.718,0,0,1-.43,2.536h4.88Zm-6.41.346a6.277,6.277,0,0,0,.69-2.881,6.355,6.355,0,1,0-12.02,2.881l0.47,0.922h-8.15a1.9,1.9,0,0,1-1.91-1.9V830.9a1.9,1.9,0,0,1,1.91-1.9h25.42a1.9,1.9,0,0,1,1.91,1.9v16.482a1.9,1.9,0,0,1-1.91,1.9h-6.88l0.47-.922h0Z" style="stroke: inherit; filter: none; fill: inherit"/>
  </g>
  <use transform="translate(-1397.22 -828.844)" xlink:href="#远程诊断" style="stroke: #000; filter: none; fill: none"/>
</svg>
