<?xml version="1.0" encoding="UTF-8"?>
<svg width="68px" height="68px" viewBox="0 0 68 68" version="1.1" xmlns="http://www.w3.org/2000/svg" xmlns:xlink="http://www.w3.org/1999/xlink">
    <!-- Generator: Sketch 57.1 (83088) - https://sketch.com -->
    <title>icon_normal设备重启</title>
    <desc>Created with Sketch.</desc>
    <defs>
        <linearGradient x1="50%" y1="0%" x2="50%" y2="100%" id="linearGradient-1">
            <stop stop-color="#00BFCF" offset="0%"></stop>
            <stop stop-color="#1B71B5" offset="100%"></stop>
        </linearGradient>
        <rect id="path-2" x="0" y="0" width="64" height="64" rx="14"></rect>
        <filter x="-3.9%" y="-3.9%" width="110.9%" height="110.9%" filterUnits="objectBoundingBox" id="filter-3">
            <feOffset dx="1" dy="1" in="SourceAlpha" result="shadowOffsetOuter1"></feOffset>
            <feGaussianBlur stdDeviation="1" in="shadowOffsetOuter1" result="shadowBlurOuter1"></feGaussianBlur>
            <feColorMatrix values="0 0 0 0 0   0 0 0 0 0   0 0 0 0 0  0 0 0 0.296601836 0" type="matrix" in="shadowBlurOuter1"></feColorMatrix>
        </filter>
        <path d="M44.3809524,12 C48.5888362,12 52,15.4111638 52,19.6190476 L52,44.3809524 C52,48.5888362 48.5888362,52 44.3809524,52 L19.6190476,52 C15.4111638,52 12,48.5888362 12,44.3809524 L12,19.6190476 C12,15.4111638 15.4111638,12 19.6190476,12 L44.3809524,12 Z M44.3809524,15.8095238 L19.6190476,15.8095238 C17.5151057,15.8095238 15.8095238,17.5151057 15.8095238,19.6190476 L15.8095238,44.3809524 C15.8095238,46.4848943 17.5151057,48.1904762 19.6190476,48.1904762 L44.3809524,48.1904762 C46.4848943,48.1904762 48.1904762,46.4848943 48.1904762,44.3809524 L48.1904762,19.6190476 C48.1904762,17.5151057 46.4848943,15.8095238 44.3809524,15.8095238 Z M25.1561907,24.5565516 C25.6915621,25.2176802 25.6549928,26.1729682 25.0706454,26.7912332 C24.9098204,26.9613929 24.7769027,27.1133484 24.6718921,27.2470996 C24.2669905,27.7628199 23.9194997,28.3191638 23.6334643,28.9085918 C23.0620398,30.0861158 22.7463463,31.3756586 22.7054456,32.6871644 C22.6361371,34.9095841 23.3545806,37.0868945 24.7860067,38.8545586 C28.0268948,42.856722 33.885026,43.4848076 37.870509,40.2574271 C41.855992,37.0300466 42.4596055,31.1693433 39.2187175,27.1671799 C39.1454736,27.0767312 39.0589035,26.977307 38.9590072,26.8689073 C38.3874615,26.2487409 38.3620386,25.3016758 38.8994739,24.6517265 C38.9329428,24.6112508 38.9686074,24.5726419 39.0063068,24.5360741 C39.5754985,23.9839674 40.4844904,23.9978175 41.0366264,24.5669808 C41.2760694,24.8138333 41.471917,25.0312675 41.6241692,25.2192834 C45.9453533,30.5555013 45.1405353,38.3697724 39.826558,42.6729464 C34.5125806,46.9761204 26.701739,46.1386729 22.380555,40.802455 C20.4741257,38.4482109 19.5142237,35.5391377 19.6065792,32.5776983 C19.6610348,30.8315481 20.0814837,29.114101 20.8435755,27.5436725 C21.3114511,26.5795297 21.9026591,25.6814563 22.6060164,24.8690754 C22.7133411,24.7451148 22.8446269,24.6048333 22.9998737,24.4482308 C23.0370039,24.4108026 23.0761357,24.3754139 23.1171077,24.3422354 C23.7393667,23.83834 24.6522953,23.9342926 25.1561907,24.5565516 Z M32,18.6666667 C33.051971,18.6666667 33.9047619,19.5194576 33.9047619,20.5714286 L33.9047619,32.952381 C33.9047619,34.0043519 33.051971,34.8571429 32,34.8571429 C30.948029,34.8571429 30.0952381,34.0043519 30.0952381,32.952381 L30.0952381,20.5714286 C30.0952381,19.5194576 30.948029,18.6666667 32,18.6666667 Z" id="path-4"></path>
        <filter x="-10.0%" y="-5.0%" width="120.0%" height="120.0%" filterUnits="objectBoundingBox" id="filter-5">
            <feOffset dx="0" dy="2" in="SourceAlpha" result="shadowOffsetOuter1"></feOffset>
            <feGaussianBlur stdDeviation="1" in="shadowOffsetOuter1" result="shadowBlurOuter1"></feGaussianBlur>
            <feColorMatrix values="0 0 0 0 0   0 0 0 0 0   0 0 0 0 0  0 0 0 0.15 0" type="matrix" in="shadowBlurOuter1"></feColorMatrix>
        </filter>
    </defs>
    <g id="页面-1" stroke="none" stroke-width="1" fill="none" fill-rule="evenodd">
        <g id="icon_normal设备重启" transform="translate(1.000000, 1.000000)">
            <g id="矩形">
                <use fill="black" fill-opacity="1" filter="url(#filter-3)" xlink:href="#path-2"></use>
                <use fill="url(#linearGradient-1)" fill-rule="evenodd" xlink:href="#path-2"></use>
            </g>
            <g id="形状结合" fill-rule="nonzero">
                <use fill="black" fill-opacity="1" filter="url(#filter-5)" xlink:href="#path-4"></use>
                <use fill="#FFFFFF" xlink:href="#path-4"></use>
            </g>
        </g>
    </g>
</svg>