<?xml version="1.0" encoding="UTF-8"?>
<svg width="52px" height="52px" viewBox="0 0 52 52" version="1.1" xmlns="http://www.w3.org/2000/svg" xmlns:xlink="http://www.w3.org/1999/xlink">
    <!-- Generator: Sketch 57.1 (83088) - https://sketch.com -->
    <title>icon_normal扫码设置</title>
    <desc>Created with Sketch.</desc>
    <defs>
        <linearGradient x1="50%" y1="0.171558277%" x2="50%" y2="98.3585009%" id="linearGradient-1">
            <stop stop-color="#4DB6FF" offset="0%"></stop>
            <stop stop-color="#0052C4" offset="100%"></stop>
        </linearGradient>
        <rect id="path-2" x="0" y="0" width="48" height="48" rx="10"></rect>
        <filter x="-5.2%" y="-5.2%" width="114.6%" height="114.6%" filterUnits="objectBoundingBox" id="filter-3">
            <feOffset dx="1" dy="1" in="SourceAlpha" result="shadowOffsetOuter1"></feOffset>
            <feGaussianBlur stdDeviation="1" in="shadowOffsetOuter1" result="shadowBlurOuter1"></feGaussianBlur>
            <feColorMatrix values="0 0 0 0 0   0 0 0 0 0   0 0 0 0 0  0 0 0 0.296601836 0" type="matrix" in="shadowBlurOuter1"></feColorMatrix>
        </filter>
        <path d="M31.7777778,10 C35.2142162,10 38,12.7857838 38,16.2222222 L38,25.6111111 C38,26.4395382 37.3284271,27.1111111 36.5,27.1111111 C35.6715729,27.1111111 35,26.4395382 35,25.6111111 L35,16.2222222 C35,14.1603592 34.0620552,13.1316679 32.0334733,13 L16.2222222,13 C14.1603592,13 13.1316679,13.9379448 13,15.9665267 L13,31.7777778 C13,33.8396408 13.9379448,34.8683321 15.9665267,35 L25.6111111,35 C26.4395382,35 27.1111111,35.6715729 27.1111111,36.5 C27.1111111,37.3284271 26.4395382,38 25.6111111,38 L16.2222222,38 C12.7857838,38 10,35.2142162 10,31.7777778 L10,16.2222222 C10,12.7857838 12.7857838,10 16.2222222,10 L31.7777778,10 Z M32.5,28 C34.9852814,28 37,30.0147186 37,32.5 C37,33.3065364 36.7878167,34.0635147 36.4162261,34.718159 L37.6485281,35.9514719 C38.1171573,36.420101 38.1171573,37.179899 37.6485281,37.6485281 C37.2225016,38.0745546 36.5558397,38.1132843 36.0860614,37.7647172 L35.9514719,37.6485281 L34.718159,36.4162261 C34.0635147,36.7878167 33.3065364,37 32.5,37 C30.0147186,37 28,34.9852814 28,32.5 C28,30.0147186 30.0147186,28 32.5,28 Z M32.5,30.25 C31.2573593,30.25 30.25,31.2573593 30.25,32.5 C30.25,33.7426407 31.2573593,34.75 32.5,34.75 C33.7426407,34.75 34.75,33.7426407 34.75,32.5 C34.75,31.2573593 33.7426407,30.25 32.5,30.25 Z M21.5,25 C22.3284271,25 23,25.6715729 23,26.5 L23,28.5 C23,29.3284271 22.3284271,30 21.5,30 C20.6715729,30 20,29.3284271 20,28.5 L20,26.5 C20,25.6715729 20.6715729,25 21.5,25 Z M16.5,22 C17.3284271,22 18,22.6715729 18,23.5 L18,28.5 C18,29.3284271 17.3284271,30 16.5,30 C15.6715729,30 15,29.3284271 15,28.5 L15,23.5 C15,22.6715729 15.6715729,22 16.5,22 Z M26.5,23 C27.3284271,23 28,23.6715729 28,24.5 L28,28.5 C28,29.3284271 27.3284271,30 26.5,30 C25.6715729,30 25,29.3284271 25,28.5 L25,24.5 C25,23.6715729 25.6715729,23 26.5,23 Z M21.5,16 C22.3284271,16 23,16.6715729 23,17.5 L23,21.5 C23,22.3284271 22.3284271,23 21.5,23 C20.6715729,23 20,22.3284271 20,21.5 L20,17.5 C20,16.6715729 20.6715729,16 21.5,16 Z M26.5,16 C27.3284271,16 28,16.6715729 28,17.5 L28,19.5 C28,20.3284271 27.3284271,21 26.5,21 C25.6715729,21 25,20.3284271 25,19.5 L25,17.5 C25,16.6715729 25.6715729,16 26.5,16 Z M16.5,16 C17.3284271,16 18,16.6715729 18,17.5 L18,18.5 C18,19.3284271 17.3284271,20 16.5,20 C15.6715729,20 15,19.3284271 15,18.5 L15,17.5 C15,16.6715729 15.6715729,16 16.5,16 Z" id="path-4"></path>
        <filter x="-14.3%" y="-7.1%" width="128.6%" height="128.6%" filterUnits="objectBoundingBox" id="filter-5">
            <feOffset dx="0" dy="2" in="SourceAlpha" result="shadowOffsetOuter1"></feOffset>
            <feGaussianBlur stdDeviation="1" in="shadowOffsetOuter1" result="shadowBlurOuter1"></feGaussianBlur>
            <feColorMatrix values="0 0 0 0 0   0 0 0 0 0   0 0 0 0 0  0 0 0 0.15 0" type="matrix" in="shadowBlurOuter1"></feColorMatrix>
        </filter>
    </defs>
    <g id="页面-1" stroke="none" stroke-width="1" fill="none" fill-rule="evenodd">
        <g id="icon_normal扫码设置" transform="translate(1.000000, 1.000000)">
            <g id="矩形">
                <use fill="black" fill-opacity="1" filter="url(#filter-3)" xlink:href="#path-2"></use>
                <use fill="url(#linearGradient-1)" fill-rule="evenodd" xlink:href="#path-2"></use>
            </g>
            <g id="形状结合">
                <use fill="black" fill-opacity="1" filter="url(#filter-5)" xlink:href="#path-4"></use>
                <use fill="#FFFFFF" fill-rule="evenodd" xlink:href="#path-4"></use>
            </g>
        </g>
    </g>
</svg>