<svg xmlns="http://www.w3.org/2000/svg" xmlns:xlink="http://www.w3.org/1999/xlink" width="32.75" height="30.375" viewBox="0 0 32.75 30.375">
  <defs>
    <style>
      .cls-1 {
        fill-rule: evenodd;
        filter: url(#filter);
      }
    </style>
    <filter id="filter" x="703.625" y="827.75" width="32.75" height="30.375" filterUnits="userSpaceOnUse">
      <feFlood result="flood" flood-color="#737373"/>
      <feComposite result="composite" operator="in" in2="SourceGraphic"/>
      <feBlend result="blend" in2="SourceGraphic"/>
    </filter>
  </defs>
  <path id="扫码设置" class="cls-1" d="M735.205,844.109H704.8a1.168,1.168,0,1,1,0-2.336h30.41a1.168,1.168,0,1,1,0,2.336M731.7,858.125h-6.448a1.169,1.169,0,1,1,0-2.337H731.7a1.167,1.167,0,0,0,1.168-1.167v-5.84a1.17,1.17,0,0,1,2.34,0v5.84a3.51,3.51,0,0,1-3.508,3.5m-16.73,0H708.3a3.51,3.51,0,0,1-3.509-3.5v-5.84a1.17,1.17,0,0,1,2.339,0v5.84a1.169,1.169,0,0,0,1.17,1.167h6.663a1.169,1.169,0,1,1,0,2.337m-9-19.856a1.17,1.17,0,0,1-1.17-1.169v-5.839a3.51,3.51,0,0,1,3.509-3.5h6.663a1.168,1.168,0,1,1,0,2.335H708.3a1.171,1.171,0,0,0-1.17,1.169V837.1a1.169,1.169,0,0,1-1.169,1.169m28.071,0a1.17,1.17,0,0,1-1.171-1.169v-5.839a1.169,1.169,0,0,0-1.168-1.169h-6.448a1.168,1.168,0,1,1,0-2.335H731.7a3.51,3.51,0,0,1,3.508,3.5V837.1a1.169,1.169,0,0,1-1.169,1.169" transform="translate(-703.625 -827.75)"/>
</svg>
