<?xml version="1.0" encoding="UTF-8"?>
<svg width="18px" height="18px" viewBox="0 0 18 18" version="1.1" xmlns="http://www.w3.org/2000/svg" xmlns:xlink="http://www.w3.org/1999/xlink">
    <!-- Generator: Sketch 57.1 (83088) - https://sketch.com -->
    <title>Shrink_1</title>
    <desc>Created with Sketch.</desc>
    <g id="页面-1" stroke="none" stroke-width="1" fill="none" fill-rule="evenodd">
        <path d="M14.000002,0 C16.2091399,-4.05812044e-16 18,1.79086009 18,3.99999797 L18,14.000002 C18,16.2091399 16.2091399,18 14.000002,18 L3.99999797,18 C1.79086009,18 2.70541363e-16,16.2091399 0,14.000002 L0,3.99999797 C-2.70541363e-16,1.79086009 1.79086009,4.05812044e-16 3.99999797,0 L14.000002,0 Z M14.000001,2 L3.99999898,2 C2.94563772,2 2.08183484,2.81587738 2.00548573,3.85073671 L2,3.99999898 L2,14.000001 C2,15.0543623 2.81587738,15.9181652 3.85073671,15.9945143 L3.99999898,16 L14.000001,16 C15.0543623,16 15.9181652,15.1841226 15.9945143,14.1492633 L16,14.000001 L16,3.99999898 C16,2.89543004 15.10457,2 14.000001,2 Z M8.03553441,9 C8.58781888,9 9.03553391,9.44771502 9.03553391,9.99999949 L9.03553391,13.0000005 C9.03553391,13.5128361 8.64949391,13.9355072 8.15215548,13.9932723 L8.0355334,14 C7.48338031,13.9996635 7.03571972,13.5521535 7.03519748,13.0000006 L7.035,12.413 L5.12108428,14.3281919 C4.76093824,14.6890132 4.19373348,14.7169485 3.80134212,14.4120558 L3.70710642,14.3284268 C3.31683004,13.9377941 3.31675031,13.3047668 3.70692827,12.9140358 L5.62,11 L5.0355334,11 C4.48324893,11 4.03553391,10.552285 4.03553391,10.0000005 L4.03553391,9.99999949 C4.03553391,9.44771502 4.48324893,9 5.0355334,9 L8.03553441,9 Z M14.2341918,3.62347812 L14.3285151,3.70678243 L14.3284275,3.70710714 C14.7187039,4.09773982 14.7187836,4.7307671 14.3286056,5.12149809 L12.4155339,7.03553391 L13.0000005,7.03553391 C13.5128361,7.03553391 13.9355072,7.4215739 13.9932723,7.91891233 L14,8.03553441 C14,8.58781888 13.552285,9.03553391 13.0000005,9.03553391 L9.99999949,9.03553391 C9.44771502,9.03553391 9,8.58781888 9,8.03553441 L9,5.0355334 C9,4.48324893 9.44771502,4.03553391 9.99999949,4.03553391 L10.0000005,4.03553391 C10.5521536,4.03587039 10.9998142,4.48338039 11.0003364,5.03553334 L11.0005339,5.62253391 L12.9144496,3.70734204 C13.2745957,3.34652072 13.8418004,3.31858543 14.2341918,3.62347812 Z" id="Shrink_1" fill="#999999"></path>
    </g>
</svg>