<?xml version="1.0" encoding="UTF-8"?>
<svg width="30px" height="30px" viewBox="0 0 30 30" version="1.1" xmlns="http://www.w3.org/2000/svg" xmlns:xlink="http://www.w3.org/1999/xlink">
    <!-- Generator: Sketch 57.1 (83088) - https://sketch.com -->
    <title>smile</title>
    <desc>Created with Sketch.</desc>
    <g id="页面-1" stroke="none" stroke-width="1" fill="none" fill-rule="evenodd">
        <g id="smile" fill="#424242" fill-rule="nonzero">
            <path d="M14.9480646,0.0299627131 C6.70831854,0.0299627131 0.0299627131,6.70831854 0.0299627131,14.9480646 C0.0299627131,23.1878107 6.70831854,29.8661665 14.9480646,29.8661665 C23.1878107,29.8661665 29.8661665,23.1878107 29.8661665,14.9480646 C29.8661665,6.70831854 23.1878107,0.0299627131 14.9480646,0.0299627131 Z M23.9901456,23.9901456 C22.8149414,25.1653498 21.4466442,26.0875355 19.9252042,26.7300692 C18.3504972,27.3959073 16.6759144,27.7354847 14.9480646,27.7354847 C13.2202148,27.7354847 11.5456321,27.3992365 9.97092507,26.7300692 C8.44948509,26.0875355 7.08118786,25.1653498 5.90598366,23.9901456 C4.73077947,22.8149414 3.80859375,21.4466442 3.16606001,19.9252042 C2.50022195,18.3504972 2.16064453,16.6759144 2.16064453,14.9480646 C2.16064453,13.2202148 2.49689276,11.5456321 3.16606001,9.97092507 C3.80859375,8.44948509 4.73077947,7.08118786 5.90598366,5.90598366 C7.08118786,4.73077947 8.44948509,3.80859375 9.97092507,3.16606001 C11.5456321,2.50022195 13.2202148,2.16064453 14.9480646,2.16064453 C16.6759144,2.16064453 18.3504972,2.49689276 19.9252042,3.16606001 C21.4466442,3.80859375 22.8149414,4.73077947 23.9901456,5.90598366 C25.1653498,7.08118786 26.0875355,8.44948509 26.7300692,9.97092507 C27.3959073,11.5456321 27.7354847,13.2202148 27.7354847,14.9480646 C27.7354847,16.6759144 27.3992365,18.3504972 26.7300692,19.9252042 C26.0875355,21.4466442 25.1653498,22.8149414 23.9901456,23.9901456 Z" id="形状"></path>
            <path d="M19.2094283,10.6933594 C19.2094283,11.8719411 20.1648575,12.8273704 21.3434393,12.8273704 C22.522021,12.8273704 23.4774503,11.8719411 23.4774503,10.6933594 C23.4774503,9.93095065 23.0707101,9.22645593 22.4104448,8.84525155 C21.7501795,8.46404718 20.9366991,8.46404718 20.2764337,8.84525155 C19.6161684,9.22645593 19.2094283,9.93095065 19.2094283,10.6933594 L19.2094283,10.6933594 Z" id="路径"></path>
            <path d="M6.42533736,10.6933594 C6.42533736,11.8719411 7.38076663,12.8273704 8.55934837,12.8273704 C9.7379301,12.8273704 10.6933594,11.8719411 10.6933594,10.6933594 C10.6933594,9.51477764 9.7379301,8.55934837 8.55934837,8.55934837 C7.38076663,8.55934837 6.42533736,9.51477764 6.42533736,10.6933594 Z" id="路径"></path>
            <path d="M14.9513938,25.5914862 C19.6522106,25.5914862 23.4641335,21.7795632 23.4641335,17.0787464 L6.44198113,17.0787464 C6.43865412,21.7828924 10.2505771,25.5914862 14.9513938,25.5914862 Z" id="路径"></path>
        </g>
    </g>
</svg>