<?xml version="1.0" encoding="UTF-8"?>
<svg width="14px" height="14px" viewBox="0 0 14 14" version="1.1" xmlns="http://www.w3.org/2000/svg" xmlns:xlink="http://www.w3.org/1999/xlink">
    <!-- Generator: Sketch 57.1 (83088) - https://sketch.com -->
    <title>system settings</title>
    <desc>Created with Sketch.</desc>
    <g id="页面-1" stroke="none" stroke-width="1" fill="none" fill-rule="evenodd">
        <g id="system-settings" transform="translate(-1.000000, -0.753804)" fill-rule="nonzero">
            <rect id="矩形" fill="#6BC508" opacity="0" x="0" y="0" width="16" height="16"></rect>
            <path d="M9,1.57735027 L13.0621778,3.92264973 C13.68098,4.27991532 14.0621778,4.94016936 14.0621778,5.65470054 L14.0621778,10.3452995 C14.0621778,11.0598306 13.68098,11.7200847 13.0621778,12.0773503 L9,14.4226497 C8.38119785,14.7799153 7.61880215,14.7799153 7,14.4226497 L2.93782217,12.0773503 C2.31902002,11.7200847 1.93782217,11.0598306 1.93782217,10.3452995 L1.93782217,5.65470054 C1.93782217,4.94016936 2.31902002,4.27991532 2.93782217,3.92264973 L7,1.57735027 C7.61880215,1.22008468 8.38119785,1.22008468 9,1.57735027 Z M7.6,2.61658075 L3.53782217,4.96188022 C3.29030131,5.10478645 3.13782217,5.36888807 3.13782217,5.65470054 L3.13782217,10.3452995 C3.13782217,10.6311119 3.29030131,10.8952135 3.53782217,11.0381198 L7.6,13.3834192 C7.84752086,13.5263255 8.15247914,13.5263255 8.4,13.3834192 L12.4621778,11.0381198 C12.7096987,10.8952135 12.8621778,10.6311119 12.8621778,10.3452995 L12.8621778,5.65470054 C12.8621778,5.36888807 12.7096987,5.10478645 12.4621778,4.96188022 L8.4,2.61658075 C8.15247914,2.47367452 7.84752086,2.47367452 7.6,2.61658075 Z M8.05,6.8 C8.74035594,6.8 9.3,7.35964406 9.3,8.05 C9.3,8.74035594 8.74035594,9.3 8.05,9.3 C7.35964406,9.3 6.8,8.74035594 6.8,8.05 C6.8,7.35964406 7.35964406,6.8 8.05,6.8 Z" id="形状结合" fill="#6451DC"></path>
        </g>
    </g>
</svg>