<?xml version="1.0" encoding="UTF-8"?>
<svg width="52px" height="52px" viewBox="0 0 52 52" version="1.1" xmlns="http://www.w3.org/2000/svg" xmlns:xlink="http://www.w3.org/1999/xlink">
    <!-- Generator: Sketch 57.1 (83088) - https://sketch.com -->
    <title>icon_normal任务进程</title>
    <desc>Created with Sketch.</desc>
    <defs>
        <linearGradient x1="50%" y1="4.29476145%" x2="50%" y2="100%" id="linearGradient-1">
            <stop stop-color="#66AAFC" offset="0%"></stop>
            <stop stop-color="#0059F1" offset="100%"></stop>
        </linearGradient>
        <rect id="path-2" x="0" y="0" width="48" height="48" rx="10"></rect>
        <filter x="-5.2%" y="-5.2%" width="114.6%" height="114.6%" filterUnits="objectBoundingBox" id="filter-3">
            <feOffset dx="1" dy="1" in="SourceAlpha" result="shadowOffsetOuter1"></feOffset>
            <feGaussianBlur stdDeviation="1" in="shadowOffsetOuter1" result="shadowBlurOuter1"></feGaussianBlur>
            <feColorMatrix values="0 0 0 0 0   0 0 0 0 0   0 0 0 0 0  0 0 0 0.296601836 0" type="matrix" in="shadowBlurOuter1"></feColorMatrix>
        </filter>
        <filter x="-28.6%" y="-28.6%" width="157.1%" height="157.1%" filterUnits="objectBoundingBox" id="filter-4">
            <feOffset dx="0" dy="2" in="SourceAlpha" result="shadowOffsetOuter1"></feOffset>
            <feGaussianBlur stdDeviation="1" in="shadowOffsetOuter1" result="shadowBlurOuter1"></feGaussianBlur>
            <feColorMatrix values="0 0 0 0 0   0 0 0 0 0   0 0 0 0 0  0 0 0 0.15 0" type="matrix" in="shadowBlurOuter1" result="shadowMatrixOuter1"></feColorMatrix>
            <feMerge>
                <feMergeNode in="shadowMatrixOuter1"></feMergeNode>
                <feMergeNode in="SourceGraphic"></feMergeNode>
            </feMerge>
        </filter>
    </defs>
    <g id="2023年2月15日" stroke="none" stroke-width="1" fill="none" fill-rule="evenodd">
        <g id="icon_normal任务进程" transform="translate(1.000000, 1.000000)">
            <g id="矩形">
                <use fill="black" fill-opacity="1" filter="url(#filter-3)" xlink:href="#path-2"></use>
                <use fill="url(#linearGradient-1)" fill-rule="evenodd" xlink:href="#path-2"></use>
            </g>
            <g id="编组-12" filter="url(#filter-4)" transform="translate(10.000000, 10.000000)">
                <path d="M10.5005813,17.4928303 C11.3286874,17.4928303 12,18.1641429 12,18.9922489 C12,19.820355 11.3286874,20.4916676 10.5005813,20.4916676 L6.49941867,20.4916676 C5.6713126,20.4916676 5,19.820355 5,18.9922489 C5,18.1641429 5.6713126,17.4928303 6.49941867,17.4928303 L10.5005813,17.4928303 Z M18.5005813,10.4951556 C19.3286874,10.4951556 20,11.1664682 20,11.9945742 C20,12.8226803 19.3286874,13.4939929 18.5005813,13.4939929 L6.49941867,13.4939929 C5.6713126,13.4939929 5,12.8226803 5,11.9945742 C5,11.1664682 5.6713126,10.4951556 6.49941867,10.4951556 L18.5005813,10.4951556 Z" id="形状结合" fill="#FFFFFF"></path>
                <path d="M21.7777778,-3.37507799e-14 C25.2142162,-3.37507799e-14 28,2.78470414 28,6.21981078 L28,12.6044796 C28,13.4329068 27.3284271,14.1044796 26.5,14.1044796 C25.6715729,14.1044796 25,13.4329068 25,12.6044796 L25,6.21981078 L25,6.21981078 C25,4.15874679 24.0620552,3.13045421 22.0334733,2.99883734 L21.7777778,2.99883734 L6.22222222,2.99883734 C4.16035916,2.99883734 3.1316679,3.93641862 3,5.96421436 L3,6.21981078 L3,21.7693377 C3,23.8304017 3.93794479,24.8586943 5.96652671,24.9903112 L6.22222222,24.9903112 L12.6116924,24.9903112 C13.4397985,24.9903112 14.1111111,25.6616238 14.1111111,26.4897298 C14.1111111,27.3178359 13.4397985,27.9891485 12.6116924,27.9891485 L6.22222222,27.9891485 L6.22222222,27.9891485 C2.78578378,27.9891485 0,25.2044444 0,21.7693377 L0,6.21981078 C0,2.78470414 2.78578378,-3.37507799e-14 6.22222222,-3.37507799e-14 L21.7777778,-3.37507799e-14 Z" id="路径" fill="#FFFFFF"></path>
                <path d="M11,3.00000051 C11,3.55228498 11.447715,4 11.9999995,4 L11.9999995,4 L15.0000005,4 C15.552285,4 16,3.55228498 16,3.00000051 L16,3.00000051 L19,3 L18.0890074,5.65016022 C17.8113939,6.45776326 17.0516211,7 16.1976352,7 L10.8023648,7 C9.9483789,7 9.18860612,6.45776326 8.91099258,5.65016022 L8,3 Z" id="形状结合" fill="#FFFFFF"></path>
                <circle id="椭圆形" stroke="#FFFFFF" stroke-width="2.5" cx="21" cy="21" r="5.75"></circle>
                <path d="M21,18 C21.5522847,18 22,18.4477153 22,19 L22,21 C22,21.5522847 21.5522847,22 21,22 C20.4477153,22 20,21.5522847 20,21 L20,19 C20,18.4477153 20.4477153,18 21,18 Z" id="矩形" fill="#FFFFFF"></path>
                <rect id="矩形" fill="#FFFFFF" transform="translate(22.000000, 21.000000) rotate(-270.000000) translate(-22.000000, -21.000000) " x="21" y="19" width="2" height="4" rx="1"></rect>
            </g>
        </g>
    </g>
</svg>