<?xml version="1.0" encoding="UTF-8"?>
<svg width="52px" height="52px" viewBox="0 0 52 52" version="1.1" xmlns="http://www.w3.org/2000/svg" xmlns:xlink="http://www.w3.org/1999/xlink">
    <!-- Generator: Sketch 57.1 (83088) - https://sketch.com -->
    <title>icon_normal亮屏</title>
    <desc>Created with Sketch.</desc>
    <defs>
        <linearGradient x1="50%" y1="0%" x2="50%" y2="100%" id="linearGradient-1">
            <stop stop-color="#1FB4EC" offset="0%"></stop>
            <stop stop-color="#5E50E0" offset="100%"></stop>
        </linearGradient>
        <rect id="path-2" x="0" y="0" width="48" height="48" rx="10"></rect>
        <filter x="-5.2%" y="-5.2%" width="114.6%" height="114.6%" filterUnits="objectBoundingBox" id="filter-3">
            <feOffset dx="1" dy="1" in="SourceAlpha" result="shadowOffsetOuter1"></feOffset>
            <feGaussianBlur stdDeviation="1" in="shadowOffsetOuter1" result="shadowBlurOuter1"></feGaussianBlur>
            <feColorMatrix values="0 0 0 0 0   0 0 0 0 0   0 0 0 0 0  0 0 0 0.296601836 0" type="matrix" in="shadowBlurOuter1"></feColorMatrix>
        </filter>
        <filter x="-23.5%" y="-28.6%" width="147.1%" height="157.1%" filterUnits="objectBoundingBox" id="filter-4">
            <feOffset dx="0" dy="2" in="SourceAlpha" result="shadowOffsetOuter1"></feOffset>
            <feGaussianBlur stdDeviation="1" in="shadowOffsetOuter1" result="shadowBlurOuter1"></feGaussianBlur>
            <feColorMatrix values="0 0 0 0 0   0 0 0 0 0   0 0 0 0 0  0 0 0 0.15 0" type="matrix" in="shadowBlurOuter1" result="shadowMatrixOuter1"></feColorMatrix>
            <feMerge>
                <feMergeNode in="shadowMatrixOuter1"></feMergeNode>
                <feMergeNode in="SourceGraphic"></feMergeNode>
            </feMerge>
        </filter>
        <path d="M1,0 L2,0 C2.55228475,-1.01453063e-16 3,0.44771525 3,1 C3,1.55228475 2.55228475,2 2,2 L1,2 C0.44771525,2 6.76353751e-17,1.55228475 0,1 C-6.76353751e-17,0.44771525 0.44771525,1.01453063e-16 1,0 Z" id="path-5"></path>
        <path d="M1,0 L2,0 C2.55228475,-1.01453063e-16 3,0.44771525 3,1 C3,1.55228475 2.55228475,2 2,2 L1,2 C0.44771525,2 6.76353751e-17,1.55228475 0,1 C-6.76353751e-17,0.44771525 0.44771525,1.01453063e-16 1,0 Z" id="path-7"></path>
        <path d="M1,0 L2,0 C2.55228475,-1.01453063e-16 3,0.44771525 3,1 C3,1.55228475 2.55228475,2 2,2 L1,2 C0.44771525,2 6.76353751e-17,1.55228475 0,1 C-6.76353751e-17,0.44771525 0.44771525,1.01453063e-16 1,0 Z" id="path-9"></path>
    </defs>
    <g id="2023年2月15日" stroke="none" stroke-width="1" fill="none" fill-rule="evenodd">
        <g id="icon_normal亮屏" transform="translate(1.000000, 1.000000)">
            <g id="矩形">
                <use fill="black" fill-opacity="1" filter="url(#filter-3)" xlink:href="#path-2"></use>
                <use fill="url(#linearGradient-1)" fill-rule="evenodd" xlink:href="#path-2"></use>
            </g>
            <g id="编组-3" filter="url(#filter-4)" transform="translate(7.000000, 10.000000)">
                <path d="M3,-2.66453526e-14 L31,-2.66453526e-14 C32.6568542,-2.66453526e-14 34,1.39289189 34,3.11111111 L34,22.8148148 C34,24.533034 32.6568542,25.9259259 31,25.9259259 L3,25.9259259 C1.34314575,25.9259259 0,24.533034 0,22.8148148 L0,3.11111111 C0,1.39289189 1.34314575,-2.66453526e-14 3,-2.66453526e-14 Z M3,3.11111111 L3,22.8148148 L31,22.8148148 L31,3.11111111 L3,3.11111111 Z" id="矩形" fill="#FFFFFF" fill-rule="nonzero"></path>
                <rect id="矩形备份-4" stroke="#FFFFFF" stroke-width="3" fill="#D8D8D8" x="10.75" y="25.2546296" width="13" height="1.14814815"></rect>
                <g id="编组-2" transform="translate(8.482188, 4.544844)">
                    <path d="M8.5178125,4.45515625 C6.30912516,4.45515625 4.5178125,6.24646891 4.5178125,8.45515625 C4.5178125,10.6638436 6.30912516,12.4551563 8.5178125,12.4551563 C10.7264998,12.4551563 12.5178125,10.6638436 12.5178125,8.45515625 C12.5178125,6.24646891 10.7264998,4.45515625 8.5178125,4.45515625 Z M8.5178125,6.45515625 C9.62193034,6.45515625 10.5178125,7.35103841 10.5178125,8.45515625 C10.5178125,9.55927409 9.62193034,10.4551563 8.5178125,10.4551563 C7.41369466,10.4551563 6.5178125,9.55927409 6.5178125,8.45515625 C6.5178125,7.35103841 7.41369466,6.45515625 8.5178125,6.45515625 Z" id="路径" fill="#FFFFFF" fill-rule="nonzero"></path>
                    <path d="M15,8 L16,8 C16.5522847,8 17,8.44771525 17,9 C17,9.55228475 16.5522847,10 16,10 L15,10 C14.4477153,10 14,9.55228475 14,9 C14,8.44771525 14.4477153,8 15,8 Z" id="路径" fill="#FFFFFF" fill-rule="nonzero"></path>
                    <path d="M1,8 L2,8 C2.55228475,8 3,8.44771525 3,9 C3,9.55228475 2.55228475,10 2,10 L1,10 C0.44771525,10 6.76353751e-17,9.55228475 0,9 C-6.76353751e-17,8.44771525 0.44771525,8 1,8 Z" id="路径" fill="#FFFFFF" fill-rule="nonzero"></path>
                    <path d="M3.05025253,12.9497475 L4.05025253,12.9497475 C4.60253728,12.9497475 5.05025253,13.3974627 5.05025253,13.9497475 C5.05025253,14.5020322 4.60253728,14.9497475 4.05025253,14.9497475 L3.05025253,14.9497475 C2.49796778,14.9497475 2.05025253,14.5020322 2.05025253,13.9497475 C2.05025253,13.3974627 2.49796778,12.9497475 3.05025253,12.9497475 Z" id="路径" fill="#FFFFFF" fill-rule="nonzero" transform="translate(3.550253, 13.949747) rotate(-45.000000) translate(-3.550253, -13.949747) "></path>
                    <g id="路径" transform="translate(13.449747, 4.050253) rotate(-45.000000) translate(-13.449747, -4.050253) translate(11.949747, 3.050253)">
                        <mask id="mask-6" fill="white">
                            <use xlink:href="#path-5"></use>
                        </mask>
                        <use id="蒙版" fill="#FFFFFF" fill-rule="nonzero" xlink:href="#path-5"></use>
                        <path d="M-13,0 L-12,0 C-11.4477153,-1.01453063e-16 -11,0.44771525 -11,1 C-11,1.55228475 -11.4477153,2 -12,2 L-13,2 C-13.5522847,2 -14,1.55228475 -14,1 C-14,0.44771525 -13.5522847,1.01453063e-16 -13,0 Z" fill="#FFFFFF" fill-rule="nonzero" mask="url(#mask-6)"></path>
                    </g>
                    <path d="M8,14 L9,14 C9.55228475,14 10,14.4477153 10,15 C10,15.5522847 9.55228475,16 9,16 L8,16 C7.44771525,16 7,15.5522847 7,15 C7,14.4477153 7.44771525,14 8,14 Z" id="路径" fill="#FFFFFF" fill-rule="nonzero" transform="translate(8.500000, 15.000000) rotate(-90.000000) translate(-8.500000, -15.000000) "></path>
                    <g id="路径" transform="translate(8.500000, 2.000000) rotate(-90.000000) translate(-8.500000, -2.000000) translate(7.000000, 1.000000)">
                        <mask id="mask-8" fill="white">
                            <use xlink:href="#path-7"></use>
                        </mask>
                        <use id="蒙版" fill="#FFFFFF" fill-rule="nonzero" xlink:href="#path-7"></use>
                        <path d="M-13,0 L-12,0 C-11.4477153,-1.01453063e-16 -11,0.44771525 -11,1 C-11,1.55228475 -11.4477153,2 -12,2 L-13,2 C-13.5522847,2 -14,1.55228475 -14,1 C-14,0.44771525 -13.5522847,1.01453063e-16 -13,0 Z" fill="#FFFFFF" fill-rule="nonzero" mask="url(#mask-8)"></path>
                    </g>
                    <path d="M12.9497475,12.9497475 L13.9497475,12.9497475 C14.5020322,12.9497475 14.9497475,13.3974627 14.9497475,13.9497475 C14.9497475,14.5020322 14.5020322,14.9497475 13.9497475,14.9497475 L12.9497475,14.9497475 C12.3974627,14.9497475 11.9497475,14.5020322 11.9497475,13.9497475 C11.9497475,13.3974627 12.3974627,12.9497475 12.9497475,12.9497475 Z" id="路径" fill="#FFFFFF" fill-rule="nonzero" transform="translate(13.449747, 13.949747) rotate(-135.000000) translate(-13.449747, -13.949747) "></path>
                    <g id="路径" transform="translate(3.550253, 4.050253) rotate(-135.000000) translate(-3.550253, -4.050253) translate(2.050253, 3.050253)">
                        <mask id="mask-10" fill="white">
                            <use xlink:href="#path-9"></use>
                        </mask>
                        <use id="蒙版" fill="#FFFFFF" fill-rule="nonzero" xlink:href="#path-9"></use>
                        <path d="M-13,0 L-12,0 C-11.4477153,-1.01453063e-16 -11,0.44771525 -11,1 C-11,1.55228475 -11.4477153,2 -12,2 L-13,2 C-13.5522847,2 -14,1.55228475 -14,1 C-14,0.44771525 -13.5522847,1.01453063e-16 -13,0 Z" fill="#FFFFFF" fill-rule="nonzero" mask="url(#mask-10)"></path>
                    </g>
                </g>
            </g>
        </g>
    </g>
</svg>