<?xml version="1.0" encoding="UTF-8"?>
<svg width="14px" height="15px" viewBox="0 0 14 15" version="1.1" xmlns="http://www.w3.org/2000/svg" xmlns:xlink="http://www.w3.org/1999/xlink">
    <!-- Generator: Sketch 57.1 (83088) - https://sketch.com -->
    <title>User Configuration</title>
    <desc>Created with Sketch.</desc>
    <g id="页面-1" stroke="none" stroke-width="1" fill="none" fill-rule="evenodd">
        <g id="User-Configuration" transform="translate(-1.000000, -1.000000)" fill-rule="nonzero">
            <rect id="矩形" fill="#87BD1B" opacity="0" x="0" y="0" width="16" height="16"></rect>
            <g id="编组-26" transform="translate(1.500000, 1.000000)">
                <g id="编组-2" transform="translate(7.000000, 8.000000)">
                    <path d="M5.44841619,2.11053927 C5.36646775,1.92021663 5.26300535,1.7412049 5.13949066,1.57583519 L4.4816749,1.80967129 L4.26328101,1.63058829 C4.09271831,1.49072689 3.90331051,1.38123439 3.69920274,1.30455301 L3.43468812,1.20517736 L3.38336468,0.927311552 L3.30767038,0.517499693 C3.10375817,0.494104526 2.89522543,0.494116206 2.69228574,0.517422433 L2.56467794,1.20715069 L2.30137557,1.30689755 C2.09828773,1.38383333 1.91015972,1.49289923 1.74145909,1.63159606 L1.52300492,1.81119764 L1.25652088,1.71651284 L0.860785872,1.57590212 C0.73631053,1.74282072 0.632716694,1.92208771 0.551565917,2.1103361 L1.08741516,2.56778809 L1.04150643,2.8462023 C1.02430512,2.9505199 1.01562818,3.05905282 1.01562818,3.16877664 C1.01562818,3.27913249 1.02429304,3.38751423 1.04143643,3.49092757 L1.08763038,3.76958145 L0.872807639,3.95297463 L0.551722004,4.22708356 C0.633797468,4.41745089 0.737300217,4.59659639 0.860558226,4.76173047 L1.52300492,4.52635564 L1.74145909,4.70595723 C1.91116828,4.84548324 2.09915932,4.95461183 2.30023502,5.03022525 L2.56453178,5.12961261 L2.61590105,5.40726676 L2.69228373,5.82012283 C2.79437753,5.83194099 2.89730304,5.83790698 3,5.83790698 C3.10289807,5.83790698 3.20618063,5.83191772 3.30764184,5.82020612 L3.43468812,5.13237593 L3.69920274,5.03300027 C3.90455581,4.95585105 4.09342547,4.84681144 4.26251227,4.70759663 L4.48105626,4.52766208 L4.74779134,4.62247935 L5.13923159,4.76162773 C5.26350143,4.59498095 5.36695793,4.41602628 5.44804718,4.22811422 L4.91870635,3.77554802 L4.96401594,3.49784412 C4.98173634,3.38923523 4.99073838,3.2789245 4.99073838,3.16948404 C4.99073838,3.06004357 4.98173634,2.94973285 4.96401594,2.84112395 L4.91870635,2.56342006 L5.1325732,2.38057207 L5.44841648,2.11053903 Z M5.02415779,1.43217852 L5.02303825,1.43087206 C5.02341024,1.43130893 5.02378341,1.43174441 5.02415776,1.43217849 Z M0.48578685,2.27917383 L0.483821318,2.28482498 C0.484498134,2.28294493 0.485153286,2.28106111 0.48578685,2.27917383 Z M0.975842211,4.90537477 L0.976961747,4.90668123 C0.976589759,4.90624436 0.976216586,4.90580888 0.975842237,4.9053748 Z M5.51428542,4.05824577 L5.51706096,4.05029728 C5.51609384,4.05294076 5.51516873,4.05559052 5.51428542,4.05824577 Z" id="路径" stroke="#FF9400"></path>
                    <path d="M3.60612245,3.77755102 C3.44387755,3.93903061 3.22882653,4.02857143 3,4.02857143 C2.77117347,4.02857143 2.55612245,3.93903061 2.39387755,3.77755102 C2.23239796,3.61530612 2.14285714,3.4002551 2.14285714,3.17142857 C2.14285714,2.94260204 2.23239796,2.72755102 2.39387755,2.56530612 C2.55612245,2.40306122 2.77117347,2.31428571 3,2.31428571 C3.22882653,2.31428571 3.44387755,2.40306122 3.60612245,2.56530612 C3.76760204,2.72755102 3.85714286,2.94260204 3.85714286,3.17142857 C3.85714286,3.4002551 3.76760204,3.61530612 3.60612245,3.77755102 Z" id="路径" fill="#FF9400"></path>
                </g>
                <path d="M6.12850577,-1.13686838e-13 C8.31570856,-1.13686838e-13 10.0887868,1.77307819 10.0887868,3.96028098 C10.0887868,5.43468093 9.2830737,6.72089651 8.08792553,7.40264979 C8.00190661,7.67146891 7.65080678,7.92056197 7.12850577,7.92056197 C4.06642186,7.92056197 1.18808429,10.4028714 1.18808429,13.4649553 C1.18808429,13.9023959 1.03148271,14.2570115 0.594042147,14.2570115 C0.156601589,14.2570115 0,13.9023959 0,13.4649553 C0,10.6218546 1.6644156,8.37403096 4.07201439,7.3444204 C2.93046489,6.6503946 2.16822479,5.39435315 2.16822479,3.96028098 C2.16822479,1.77307819 3.94130298,-1.13686838e-13 6.12850577,-1.13686838e-13 Z M6.12850577,1.18808429 C4.59746382,1.18808429 3.35630908,2.42923903 3.35630908,3.96028098 C3.35630908,5.49132294 4.59746382,6.73247767 6.12850577,6.73247767 C7.65954772,6.73247767 8.90070246,5.49132294 8.90070246,3.96028098 C8.90070246,2.42923903 7.65954772,1.18808429 6.12850577,1.18808429 Z" id="形状结合" fill="#FF9400"></path>
            </g>
        </g>
    </g>
</svg>