<?xml version="1.0" encoding="UTF-8"?>
<svg width="21px" height="21px" viewBox="0 0 21 21" version="1.1" xmlns="http://www.w3.org/2000/svg" xmlns:xlink="http://www.w3.org/1999/xlink">
    <!-- Generator: Sketch 57.1 (83088) - https://sketch.com -->
    <title>Field-time</title>
    <desc>Created with Sketch.</desc>
    <g id="页面-1" stroke="none" stroke-width="1" fill="none" fill-rule="evenodd">
        <g id="Field-time" transform="translate(-2.000000, -2.000000)" fill-rule="nonzero">
            <rect id="矩形" fill="#000000" opacity="0" x="0" y="0" width="24" height="24"></rect>
            <path d="M22.804428,9.8134061 L18.4905198,9.8134061 C18.4163745,9.8134061 18.3557101,9.91008988 18.3557101,10.0282589 L18.3557101,11.3173761 C18.3557101,11.4355451 18.4163745,11.5322289 18.4905198,11.5322289 L22.804428,11.5322289 C22.8785733,11.5322289 22.9392377,11.4355451 22.9392377,11.3173761 L22.9392377,10.0282589 C22.9392377,9.91008988 22.8785733,9.8134061 22.804428,9.8134061 Z M21.847069,13.4659046 L18.570563,13.4659046 C18.4523939,13.4659046 18.3557101,13.5625884 18.3557101,13.6807575 L18.3557101,14.9698746 C18.3557101,15.0880437 18.4523939,15.1847274 18.570563,15.1847274 L21.847069,15.1847274 C21.9652381,15.1847274 22.0619219,15.0880437 22.0619219,14.9698746 L22.0619219,13.6807575 C22.0619219,13.5625884 21.9652381,13.4659046 21.847069,13.4659046 Z M12.8850193,7.40973979 L11.7221283,7.40973979 C11.5556173,7.40973979 11.4213343,7.54402283 11.4213343,7.71053379 L11.4213343,14.3709723 C11.4213343,14.467656 11.4669905,14.5562828 11.5448747,14.6126817 L15.5438234,17.5293092 C15.6781064,17.625993 15.8661027,17.5991364 15.9627865,17.4648534 L16.6530013,16.5221865 L16.6530013,16.5195008 C16.749685,16.3852178 16.7201428,16.1972215 16.5858597,16.1005377 L13.1831277,13.6404726 L13.1831277,7.71053379 C13.1858133,7.54402283 13.0488446,7.40973979 12.8850193,7.40973979 L12.8850193,7.40973979 Z M21.680558,16.8471514 L20.1282462,16.8471514 C19.9778492,16.8471514 19.8355092,16.9250356 19.7549393,17.0539473 C19.4138604,17.5937651 19.0163827,18.093298 18.5598203,18.5498603 C17.7729218,19.3367588 16.8571115,19.9544608 15.8392461,20.3841665 C14.7837814,20.8299862 13.6638609,21.0555817 12.5090268,21.0555817 C11.3515071,21.0555817 10.2315866,20.8299862 9.17880761,20.3841665 C8.16094222,19.9544608 7.24513193,19.3367588 6.45823335,18.5498603 C5.67133477,17.7629617 5.05363282,16.8471514 4.62392711,15.829286 C4.17810744,14.776507 3.95251194,13.6565865 3.95251194,12.4990668 C3.95251194,11.341547 4.17810744,10.2243122 4.62392711,9.16884753 C5.05363282,8.15098214 5.67133477,7.23517185 6.45823335,6.44827327 C7.24513193,5.66137469 8.16094222,5.04367274 9.17880761,4.61396703 C10.2315866,4.16814736 11.3541928,3.94255186 12.5090268,3.94255186 C13.6665466,3.94255186 14.7864671,4.16814736 15.8392461,4.61396703 C16.8571115,5.04367274 17.7729218,5.66137469 18.5598203,6.44827327 C19.0163827,6.90483559 19.4138604,7.40436847 19.7549393,7.94418627 C19.8355092,8.07309798 19.9778492,8.15098214 20.1282462,8.15098214 L21.680558,8.15098214 C21.8658686,8.15098214 21.9840377,7.95761457 21.9007822,7.79378927 C20.1497315,4.31048738 16.5992881,2.04647543 12.6352529,2.0008192 C6.83154018,1.92830636 2.01077928,6.67924009 2.00001829,12.4775815 C1.98929399,18.2866655 6.69725715,23 12.5063412,23 C16.5214039,23 20.1309318,20.7279311 21.9007822,17.2043443 C21.9840377,17.040519 21.863183,16.8471514 21.680558,16.8471514 Z" id="形状" fill="#FFFFFF"></path>
        </g>
    </g>
</svg>