<?xml version="1.0" encoding="UTF-8"?>
<svg width="52px" height="52px" viewBox="0 0 52 52" version="1.1" xmlns="http://www.w3.org/2000/svg" xmlns:xlink="http://www.w3.org/1999/xlink">
    <!-- Generator: Sketch 57.1 (83088) - https://sketch.com -->
    <title>icon_normal音量-</title>
    <desc>Created with Sketch.</desc>
    <defs>
        <linearGradient x1="50%" y1="0%" x2="50%" y2="100%" id="linearGradient-1">
            <stop stop-color="#F84F7D" offset="0%"></stop>
            <stop stop-color="#A422AD" offset="100%"></stop>
        </linearGradient>
        <rect id="path-2" x="0" y="0" width="48" height="48" rx="10"></rect>
        <filter x="-5.2%" y="-5.2%" width="114.6%" height="114.6%" filterUnits="objectBoundingBox" id="filter-3">
            <feOffset dx="1" dy="1" in="SourceAlpha" result="shadowOffsetOuter1"></feOffset>
            <feGaussianBlur stdDeviation="1" in="shadowOffsetOuter1" result="shadowBlurOuter1"></feGaussianBlur>
            <feColorMatrix values="0 0 0 0 0   0 0 0 0 0   0 0 0 0 0  0 0 0 0.296601836 0" type="matrix" in="shadowBlurOuter1"></feColorMatrix>
        </filter>
        <path d="M22.1210634,11.0019356 C22.1877444,10.9986009 22.1877444,10.9986009 22.3433316,11.0098753 C22.3580153,11.0116799 22.370868,11.0132595 22.3826093,11.0148146 C23.3159638,11.0617181 24.2038518,11.4709429 24.8726583,12.1696379 C25.5933129,12.9224982 26,13.9494251 26,15.0223758 L26,15.0223758 L26,33.0001904 C25.9969391,34.0710254 25.5889133,35.0948152 24.8686101,35.845051 C24.1536794,36.5896909 23.1895226,37.0042297 22.1901163,37.0004332 C21.376271,36.9990312 20.5841132,36.7193028 19.9408444,36.2083231 L19.9408444,36.2083231 L15.6026608,32.8155596 L11.7980015,32.8155596 C9.70859999,32.8155621 8.00317634,31.0294806 8,28.8073363 L8,28.8073363 L8,19.1935736 C8.00264721,16.9732426 9.70822876,15.1865485 11.798,15.1865502 L11.798,15.1865502 L15.6038896,15.1865502 L19.9340328,11.80012 C20.2911612,11.5164628 20.7372946,11.3292553 21.2722163,11.1753772 C21.4462781,11.1253058 21.6208306,11.0825732 21.7719611,11.0517682 C21.8453432,11.0368106 21.9125252,11.0248072 21.9717963,11.0164674 C22.0265263,11.008934 22.0265263,11.008934 22.1210634,11.0019356 Z M22.2305245,13.8995498 C22.153488,13.916542 22.0632499,13.9393034 21.9732328,13.9651982 C21.7441147,14.0311073 21.5551171,14.110415 21.5353476,14.1260681 L21.5353476,14.1260681 L16.4854512,18.075441 L11.797999,18.075441 C11.1861733,18.0754405 10.7007298,18.5839704 10.6999984,19.1954155 L10.6999984,19.1954155 L10.6999984,28.805126 C10.7008753,29.4183085 11.1862793,29.9266696 11.798,29.9266688 L11.798,29.9266688 L16.4842272,29.9266688 L16.8400836,30.2049735 L21.5421592,33.8823749 C21.7282004,34.0301423 21.9574643,34.1111004 22.1970639,34.1115165 C22.4943811,34.1126449 22.7783101,33.9905698 22.9852746,33.7750048 C23.1869653,33.5649328 23.2991733,33.2833883 23.2999984,32.9957818 L23.2999984,32.9957818 L23.2999984,15.0223758 C23.2999984,14.729795 23.1881764,14.4474289 22.9864195,14.2366556 C22.787076,14.0284035 22.5160893,13.9071348 22.2305245,13.8995498 Z M38.5,22.5 C39.3284271,22.5 40,23.1715729 40,24 C40,24.8284271 39.3284271,25.5 38.5,25.5 L29.5,25.5 C28.6715729,25.5 28,24.8284271 28,24 C28,23.1715729 28.6715729,22.5 29.5,22.5 L38.5,22.5 Z" id="path-4"></path>
        <filter x="-12.5%" y="-7.7%" width="125.0%" height="130.8%" filterUnits="objectBoundingBox" id="filter-5">
            <feOffset dx="0" dy="2" in="SourceAlpha" result="shadowOffsetOuter1"></feOffset>
            <feGaussianBlur stdDeviation="1" in="shadowOffsetOuter1" result="shadowBlurOuter1"></feGaussianBlur>
            <feColorMatrix values="0 0 0 0 0   0 0 0 0 0   0 0 0 0 0  0 0 0 0.15 0" type="matrix" in="shadowBlurOuter1"></feColorMatrix>
        </filter>
    </defs>
    <g id="2023年2月15日" stroke="none" stroke-width="1" fill="none" fill-rule="evenodd">
        <g id="icon_normal音量-" transform="translate(1.000000, 1.000000)">
            <g id="矩形">
                <use fill="black" fill-opacity="1" filter="url(#filter-3)" xlink:href="#path-2"></use>
                <use fill="url(#linearGradient-1)" fill-rule="evenodd" xlink:href="#path-2"></use>
            </g>
            <g id="形状结合" fill-rule="nonzero">
                <use fill="black" fill-opacity="1" filter="url(#filter-5)" xlink:href="#path-4"></use>
                <use fill="#FFFFFF" xlink:href="#path-4"></use>
            </g>
        </g>
    </g>
</svg>