<?xml version="1.0" encoding="UTF-8"?>
<svg width="30px" height="25px" viewBox="0 0 30 25" version="1.1" xmlns="http://www.w3.org/2000/svg" xmlns:xlink="http://www.w3.org/1999/xlink">
    <!-- Generator: Sketch 57.1 (83088) - https://sketch.com -->
    <title>wenjianjia</title>
    <desc>Created with Sketch.</desc>
    <g id="页面-1" stroke="none" stroke-width="1" fill="none" fill-rule="evenodd">
        <g id="wenjianjia" fill="#424242" fill-rule="nonzero">
            <path d="M26.6794663,6.65518155 C27.1172122,6.70288895 27.5549582,6.82215743 27.9927042,7.01298701 C28.4304502,7.20381659 28.8105981,7.47217069 29.1331477,7.8180493 C29.4556974,8.16392791 29.6976097,8.59925788 29.8588845,9.12403923 C30.0201594,9.64882057 30.0431986,10.2809435 29.9280023,11.0204082 C29.8819238,11.2112377 29.7897667,11.6823483 29.6515312,12.4337397 C29.5132956,13.1851312 29.3520207,14.0498277 29.1677066,15.0278293 C28.9833925,16.0058309 28.7760392,17.0136496 28.5456465,18.0512854 C28.3152539,19.0889213 28.0963809,19.9774715 27.8890276,20.7169361 C27.7738312,21.1463027 27.6067966,21.5875961 27.3879236,22.0408163 C27.1690506,22.4940366 26.8868196,22.9055129 26.5412307,23.2752452 C26.1956417,23.6449775 25.780935,23.9491121 25.2971105,24.1876491 C24.813286,24.4261861 24.2373044,24.5454545 23.5691658,24.5454545 L4.42353845,24.5454545 C3.93971393,24.5454545 3.43860996,24.4381129 2.92022655,24.2234296 C2.40184314,24.0087464 1.92377844,23.7046117 1.48603245,23.3110257 C1.04828645,22.9174397 0.691177882,22.4403658 0.414706729,21.8798039 C0.138235576,21.319242 0,20.6930824 0,20.0013252 L0,4.65147098 C0,3.19639544 0.380147835,2.05738139 1.14044351,1.23442884 C1.90073918,0.411476279 2.97206489,0 4.35442066,0 L21.3573966,0 C21.8642603,0 22.3884036,0.101378214 22.9298262,0.304134641 C23.4712489,0.506891068 23.9608333,0.787172012 24.3985792,1.14497747 C24.8363252,1.50278293 25.1934338,1.92022263 25.469905,2.39729658 C25.7463761,2.87437053 25.8846117,3.38722502 25.8846117,3.93586006 L25.8846117,4.32944606 L24.0875492,4.32944606 C23.1659787,4.32944606 22.0888932,4.32348264 20.8562926,4.31155579 C19.623692,4.29962894 18.3104541,4.29366552 16.9165787,4.29366552 C15.5227033,4.29366552 14.2209849,4.28770209 13.0114236,4.27577525 C11.8018623,4.2638484 10.7593357,4.25788497 9.88384372,4.25788497 L8.29413459,4.25788497 C7.69511376,4.25788497 7.22856869,4.45467798 6.89449938,4.84826398 C6.56043007,5.24184999 6.30123836,5.7606679 6.11692426,6.40471773 C5.93261016,7.09647495 5.72525679,7.82997615 5.49486416,8.60522131 C5.26447154,9.38046647 5.05711817,10.1020408 4.87280407,10.7699443 C4.64241144,11.5571164 4.41201882,12.3204347 4.18162619,13.0598993 C4.13554766,13.2507289 4.1125084,13.4057779 4.1125084,13.5250464 C4.1125084,13.9305592 4.24498416,14.2704744 4.50993568,14.5447919 C4.7748872,14.8191095 5.1031967,14.9562682 5.49486416,14.9562682 C6.20908131,14.9562682 6.69290583,14.4911211 6.94633772,13.5608269 L8.77795911,6.61940101 C11.7730633,6.6432547 14.5147355,6.65518155 17.0029759,6.65518155 L26.6794663,6.65518155 L26.6794663,6.65518155 Z" id="路径"></path>
        </g>
    </g>
</svg>