<?xml version="1.0" encoding="UTF-8"?>
<svg width="52px" height="52px" viewBox="0 0 52 52" version="1.1" xmlns="http://www.w3.org/2000/svg" xmlns:xlink="http://www.w3.org/1999/xlink">
    <!-- Generator: Sketch 57.1 (83088) - https://sketch.com -->
    <title>icon_normal上网管理</title>
    <desc>Created with Sketch.</desc>
    <defs>
        <linearGradient x1="50%" y1="0%" x2="50%" y2="100%" id="linearGradient-1">
            <stop stop-color="#59BAFD" offset="0%"></stop>
            <stop stop-color="#095AFF" offset="100%"></stop>
        </linearGradient>
        <rect id="path-2" x="0" y="0" width="48" height="48" rx="10"></rect>
        <filter x="-5.2%" y="-5.2%" width="114.6%" height="114.6%" filterUnits="objectBoundingBox" id="filter-3">
            <feOffset dx="1" dy="1" in="SourceAlpha" result="shadowOffsetOuter1"></feOffset>
            <feGaussianBlur stdDeviation="1" in="shadowOffsetOuter1" result="shadowBlurOuter1"></feGaussianBlur>
            <feColorMatrix values="0 0 0 0 0   0 0 0 0 0   0 0 0 0 0  0 0 0 0.296601836 0" type="matrix" in="shadowBlurOuter1"></feColorMatrix>
        </filter>
        <filter x="-23.5%" y="-29.6%" width="147.1%" height="159.3%" filterUnits="objectBoundingBox" id="filter-4">
            <feOffset dx="0" dy="2" in="SourceAlpha" result="shadowOffsetOuter1"></feOffset>
            <feGaussianBlur stdDeviation="1" in="shadowOffsetOuter1" result="shadowBlurOuter1"></feGaussianBlur>
            <feColorMatrix values="0 0 0 0 0   0 0 0 0 0   0 0 0 0 0  0 0 0 0.15 0" type="matrix" in="shadowBlurOuter1" result="shadowMatrixOuter1"></feColorMatrix>
            <feMerge>
                <feMergeNode in="shadowMatrixOuter1"></feMergeNode>
                <feMergeNode in="SourceGraphic"></feMergeNode>
            </feMerge>
        </filter>
    </defs>
    <g id="页面-1" stroke="none" stroke-width="1" fill="none" fill-rule="evenodd">
        <g id="icon_normal上网管理" transform="translate(1.000000, 1.000000)">
            <g id="矩形">
                <use fill="black" fill-opacity="1" filter="url(#filter-3)" xlink:href="#path-2"></use>
                <use fill="url(#linearGradient-1)" fill-rule="evenodd" xlink:href="#path-2"></use>
            </g>
            <g id="编组-11" filter="url(#filter-4)" transform="translate(7.000000, 10.812500)" fill="#FFFFFF">
                <path d="M31,0 C32.6568542,0 34,1.34314575 34,3 L34,22 C34,23.6568542 32.6568542,25 31,25 L25.25,25 L25.25,26.90625 L9.25,26.90625 L9.25,25 L3,25 C1.34314575,25 0,23.6568542 0,22 L0,3 C0,1.34314575 1.34314575,0 3,0 L31,0 Z M31,3 L3,3 L3,22 L31,22 L31,3 Z" id="形状结合" fill-rule="nonzero"></path>
                <path d="M16.2442748,12.6417142 C16.452937,12.2359821 16.9603994,12.0715267 17.3777238,12.2743928 C17.5412202,12.3538702 17.673792,12.4827594 17.7555402,12.6417142 L17.7555402,12.6417142 L21.0249103,18.9988228 C21.2335725,19.4045549 21.0644184,19.8979211 20.647094,20.1007872 C20.5297857,20.157812 20.4004323,20.1875 20.2692776,20.1875 L20.2692776,20.1875 L13.7305373,20.1875 C13.2639544,20.1875 12.8857143,19.8197665 12.8857143,19.3661443 C12.8857143,19.2386328 12.9162505,19.1128725 12.9749046,18.9988228 L12.9749046,18.9988228 Z M16.9999075,14.0714259 L14.5214635,18.8906225 L19.4774622,18.8906225 L16.9999075,14.0714259 Z M17,4.1875 C21.418278,4.1875 25,7.66972972 25,11.9652778 C25,14.3203069 23.9159243,16.5043617 22.0819027,17.9724468 C21.7895388,18.2064763 21.357392,18.1657704 21.1166759,17.8815277 C20.8759599,17.597285 20.9178287,17.1771423 21.2101927,16.9431128 C22.7310891,15.725676 23.6285714,13.9175452 23.6285714,11.9652778 C23.6285714,8.40610939 20.6608589,5.52083333 17,5.52083333 C13.3391411,5.52083333 10.3714286,8.40610939 10.3714286,11.9652778 C10.3714286,13.9191094 11.2703613,15.7285417 12.7933453,16.9459429 C13.0858746,17.1797769 13.1280406,17.5998915 12.8875255,17.8842951 C12.6470104,18.1686986 12.2148925,18.2096932 11.9223632,17.9758592 C10.0858251,16.5078177 9,14.322196 9,11.9652778 C9,7.66972972 12.581722,4.1875 17,4.1875 Z M17,7.74305556 C19.3984938,7.74305556 21.3428571,9.63340883 21.3428571,11.9652778 C21.3428571,12.9945303 20.9618216,13.9682039 20.2822451,14.7301815 C20.0341483,15.0083609 19.601074,15.0383344 19.3149466,14.7971292 C19.0288192,14.555924 18.9979893,14.1348795 19.2460861,13.8567001 C19.7114351,13.3349259 19.9714286,12.6705553 19.9714286,11.9652778 C19.9714286,10.3697885 18.6410747,9.07638889 17,9.07638889 C15.3589253,9.07638889 14.0285714,10.3697885 14.0285714,11.9652778 C14.0285714,12.6491658 14.2609199,13.1882147 14.7696319,13.7445686 C15.0212454,14.0197463 14.9957693,14.441129 14.7127294,14.6857532 C14.4296895,14.9303774 13.9962673,14.905609 13.7446538,14.6304314 C13.0225763,13.8407297 12.6571429,12.9929233 12.6571429,11.9652778 C12.6571429,9.63340883 14.6015062,7.74305556 17,7.74305556 Z" id="形状结合" stroke="#FFFFFF" stroke-width="0.4"></path>
            </g>
        </g>
    </g>
</svg>