<svg xmlns="http://www.w3.org/2000/svg" xmlns:xlink="http://www.w3.org/1999/xlink" width="29.813" height="29.813" viewBox="0 0 29.813 29.813">
  <defs>
    <style>
      .cls-1 {
        fill-rule: evenodd;
        filter: url(#filter);
      }
    </style>
    <filter id="filter" x="635.906" y="828.312" width="29.813" height="29.813" filterUnits="userSpaceOnUse">
      <feFlood result="flood" flood-color="#737373"/>
      <feComposite result="composite" operator="in" in2="SourceGraphic"/>
      <feBlend result="blend" in2="SourceGraphic"/>
    </filter>
  </defs>
  <path id="综合设置" class="cls-1" d="M645.219,828.312h-5.312a3.994,3.994,0,0,0-4,4.009v5.356a3.984,3.984,0,0,0,4,3.975h9.313v-9.331A3.994,3.994,0,0,0,645.219,828.312Zm2.124,11.463h-7.436a2.13,2.13,0,0,1-2.124-2.128v-5.326a2.13,2.13,0,0,1,2.124-2.128h5.345a2.13,2.13,0,0,1,2.124,2.128v7.454h-0.033Zm14.375-11.463h-5.342a3.992,3.992,0,0,0-4,4.009v9.331h9.343a3.991,3.991,0,0,0,4-4.008v-5.323A4.013,4.013,0,0,0,661.718,828.312Zm2.127,9.332a2.129,2.129,0,0,1-2.124,2.127h-7.472v-7.45a2.13,2.13,0,0,1,2.124-2.128h5.342a2.129,2.129,0,0,1,2.123,2.128v5.323h0.007Zm-27.939,11.115v5.323a3.992,3.992,0,0,0,4,4.009h5.345a3.992,3.992,0,0,0,4-4.009v-9.3h-9.346A3.984,3.984,0,0,0,635.906,848.759Zm11.437,5.356a2.13,2.13,0,0,1-2.124,2.128h-5.312a2.13,2.13,0,0,1-2.124-2.128v-5.323a2.129,2.129,0,0,1,2.124-2.127h7.439v7.45h0Zm14.375-9.331h-9.343v9.331a3.992,3.992,0,0,0,4,4.009h5.342a3.992,3.992,0,0,0,4-4.009v-5.323a4.01,4.01,0,0,0-4-4.008h0Zm2.127,9.331a2.13,2.13,0,0,1-2.124,2.128h-5.345a2.13,2.13,0,0,1-2.124-2.128v-7.454h7.469a2.13,2.13,0,0,1,2.124,2.128v5.326h0Z" transform="translate(-635.906 -828.312)"/>
</svg>
