<?xml version="1.0" encoding="UTF-8"?>
<svg width="14px" height="14px" viewBox="0 0 14 14" version="1.1" xmlns="http://www.w3.org/2000/svg" xmlns:xlink="http://www.w3.org/1999/xlink">
    <!-- Generator: Sketch 57.1 (83088) - https://sketch.com -->
    <title>close</title>
    <desc>Created with Sketch.</desc>
    <g id="banner" stroke="none" stroke-width="1" fill="none" fill-rule="evenodd">
        <g id="操作页面备份" transform="translate(-1073.000000, -200.000000)" fill="#999999">
            <path d="M1074.00659,200.172703 L1080,206.166 L1085.99341,200.172703 C1086.22368,199.942432 1086.59703,199.942432 1086.8273,200.172703 C1087.05757,200.402974 1087.05757,200.776317 1086.8273,201.006588 L1080.834,207 L1086.8273,212.993412 C1087.05757,213.223683 1087.05757,213.597026 1086.8273,213.827297 C1086.59703,214.057568 1086.22368,214.057568 1085.99341,213.827297 L1080,207.834 L1074.00659,213.827297 C1073.77632,214.057568 1073.40297,214.057568 1073.1727,213.827297 C1072.94243,213.597026 1072.94243,213.223683 1073.1727,212.993412 L1079.166,207 L1073.1727,201.006588 C1072.94243,200.776317 1072.94243,200.402974 1073.1727,200.172703 C1073.40297,199.942432 1073.77632,199.942432 1074.00659,200.172703 Z" id="close" transform="translate(1080.000000, 207.000000) rotate(-270.000000) translate(-1080.000000, -207.000000) "></path>
        </g>
    </g>
</svg>