<?xml version="1.0" encoding="UTF-8"?>
<svg width="14px" height="12px" viewBox="0 0 14 12" version="1.1" xmlns="http://www.w3.org/2000/svg" xmlns:xlink="http://www.w3.org/1999/xlink">
    <!-- Generator: Sketch 57.1 (83088) - https://sketch.com -->
    <title>icon_文件夹</title>
    <desc>Created with Sketch.</desc>
    <g id="banner" stroke="none" stroke-width="1" fill="none" fill-rule="evenodd">
        <g id="操作页面备份" transform="translate(-353.000000, -330.000000)">
            <g id="icon_文件夹" transform="translate(353.000000, 330.000000)">
                <path d="M7,1 L11,1 C12.1045695,1 13,1.8954305 13,3 L13,5 C13,5.55228475 12.5522847,6 12,6 L7,6 C6.44771525,6 6,5.55228475 6,5 L6,2 C6,1.44771525 6.44771525,1 7,1 Z" id="矩形" fill="#FFEB94"></path>
                <path d="M5.63007592,0 C5.8687872,-1.81018098e-15 6.09962419,0.085392161 6.2808673,0.240743398 L9.5,3 L12,3 C13.1045695,3 14,3.8954305 14,5 L14,10 C14,11.1045695 13.1045695,12 12,12 L2,12 C0.8954305,12 1.3527075e-16,11.1045695 0,10 L0,5 L0,2 C-1.3527075e-16,0.8954305 0.8954305,2.02906125e-16 2,0 L5.63007592,0 Z" id="形状结合" fill="#F4C812"></path>
            </g>
        </g>
    </g>
</svg>