<?xml version="1.0" encoding="UTF-8"?>
<svg width="10px" height="17px" viewBox="0 0 10 17" version="1.1" xmlns="http://www.w3.org/2000/svg" xmlns:xlink="http://www.w3.org/1999/xlink">
    <!-- Generator: Sketch 57.1 (83088) - https://sketch.com -->
    <title>normal_left</title>
    <desc>Created with Sketch.</desc>
    <g id="banner" stroke="none" stroke-width="1" fill="none" fill-rule="evenodd">
        <g id="操作页面备份" transform="translate(-352.000000, -221.000000)" fill="#999999">
            <path d="M364.730431,225.254899 C364.733166,225.257599 364.735884,225.260317 364.738584,225.263052 C365.086021,225.615076 365.086016,226.180972 364.738572,226.532989 L357.626713,233.738456 C357.484371,233.882672 357.304546,233.967431 357.118149,233.99253 L357.005762,234.000429 C356.780414,234.001907 356.554502,233.917417 356.38144,233.746609 L356.373287,233.738456 L356.373287,233.738456 L349.261428,226.532989 C348.913984,226.180972 348.913979,225.615076 349.261416,225.263052 C349.603031,224.916928 350.160554,224.913273 350.506678,225.254888 C350.509414,225.257588 350.512131,225.260305 350.514831,225.263041 L357,231.833 L363.485169,225.263041 C363.82679,224.916923 364.384313,224.913278 364.730431,225.254899 Z" id="normal_left" transform="translate(357.000000, 229.500000) rotate(90.000000) translate(-357.000000, -229.500000) "></path>
        </g>
    </g>
</svg>