<?xml version="1.0" encoding="UTF-8"?>
<svg width="14px" height="15px" viewBox="0 0 14 15" version="1.1" xmlns="http://www.w3.org/2000/svg" xmlns:xlink="http://www.w3.org/1999/xlink">
    <!-- Generator: Sketch 57.1 (83088) - https://sketch.com -->
    <title>icon_APK格式</title>
    <desc>Created with Sketch.</desc>
    <g id="banner" stroke="none" stroke-width="1" fill="none" fill-rule="evenodd">
        <g id="操作页面备份" transform="translate(-353.000000, -457.000000)">
            <g id="icon_APK格式" transform="translate(353.000000, 457.000000)">
                <path d="M2,0 L10,0 L10,0 L14,4 L14,13 C14,14.1045695 13.1045695,15 12,15 L2,15 C0.8954305,15 1.3527075e-16,14.1045695 0,13 L0,2 C-1.3527075e-16,0.8954305 0.8954305,2.02906125e-16 2,0 Z" id="矩形" fill="#0281FE"></path>
                <path d="M10,4.54747351e-13 L14,4 L11,4 C10.4477153,4 10,3.55228475 10,3 L10,4.54747351e-13 L10,4.54747351e-13 Z" id="矩形备份-4" fill="#7EBFF9"></path>
                <text id="APK" font-family="PingFangSC-Semibold, PingFang SC" font-size="6" font-weight="500">
                    <tspan x="1" y="10" fill="#FFFFFF">A</tspan>
                    <tspan x="5.074" y="10" fill="#ACD5F3">P</tspan>
                    <tspan x="9.004" y="10" fill="#CFE7FA">K</tspan>
                </text>
            </g>
        </g>
    </g>
</svg>