<?xml version="1.0" encoding="UTF-8"?>
<svg width="13px" height="11px" viewBox="0 0 13 11" version="1.1" xmlns="http://www.w3.org/2000/svg" xmlns:xlink="http://www.w3.org/1999/xlink">
    <!-- Generator: Sketch 57.1 (83088) - https://sketch.com -->
    <title>icon_xiazai</title>
    <desc>Created with Sketch.</desc>
    <g id="banner" stroke="none" stroke-width="1" fill="none" fill-rule="evenodd">
        <g id="操作页面备份" transform="translate(-652.000000, -374.000000)" fill="#666666" fill-rule="nonzero">
            <g id="icon_xiazai" transform="translate(652.000000, 374.000000)">
                <path d="M12.4691667,6.59624197 C12.1788845,6.60310188 11.9451932,6.83679309 11.9383333,7.1270753 C11.9383333,8.29490863 11.1583333,9.2525753 10.166,9.2525753 L2.834,9.2525753 C1.84166667,9.24390863 1.06166667,8.29490863 1.06166667,7.1270753 C1.05480676,6.83679309 0.821115545,6.60310188 0.530833333,6.59624197 C0.240551121,6.60310188 0.00685990945,6.83679309 0,7.1270753 C0,8.89724197 1.27616667,10.314242 2.834,10.314242 L10.166,10.314242 C11.7238333,10.314242 13,8.89724197 13,7.1270753 C12.9931401,6.83679309 12.7594489,6.60310188 12.4691667,6.59624197 L12.4691667,6.59624197 Z" id="路径"></path>
                <path d="M6.12733333,8.18891667 C6.35351307,8.37646151 6.68115359,8.37646151 6.90733333,8.18891667 L8.92666667,6.16958333 C9.11086105,5.96113237 9.10111658,5.64536065 8.90441963,5.4486637 C8.70772269,5.25196676 8.39195096,5.24222228 8.1835,5.42641667 L7.085,6.52491667 L7.085,0.501583333 C7.06708171,0.220974474 6.8342637,0.00254890005 6.55308333,0.00254890005 C6.27190297,0.00254890005 6.03908496,0.220974474 6.02116667,0.501583333 L6.02116667,6.52491667 L4.92266667,5.42641667 C4.7142157,5.24222228 4.39844398,5.25196676 4.20174703,5.4486637 C4.00505009,5.64536065 3.99530561,5.96113237 4.1795,6.16958333 L6.12733333,8.18891667 Z" id="路径"></path>
            </g>
        </g>
    </g>
</svg>