<?xml version="1.0" encoding="UTF-8"?>
<svg width="14px" height="15px" viewBox="0 0 14 15" version="1.1" xmlns="http://www.w3.org/2000/svg" xmlns:xlink="http://www.w3.org/1999/xlink">
    <!-- Generator: Sketch 57.1 (83088) - https://sketch.com -->
    <title>icon_文本格式</title>
    <desc>Created with Sketch.</desc>
    <g id="banner" stroke="none" stroke-width="1" fill="none" fill-rule="evenodd">
        <g id="操作页面备份" transform="translate(-353.000000, -371.000000)">
            <g id="icon_文本格式" transform="translate(353.000000, 371.000000)">
                <path d="M2,0 L10,0 L10,0 L14,4 L14,13 C14,14.1045695 13.1045695,15 12,15 L2,15 C0.8954305,15 1.3527075e-16,14.1045695 0,13 L0,2 C-1.3527075e-16,0.8954305 0.8954305,2.02906125e-16 2,0 Z" id="矩形" fill="#406FFF"></path>
                <path d="M10,4.54747351e-13 L14,4 L11,4 C10.4477153,4 10,3.55228475 10,3 L10,4.54747351e-13 L10,4.54747351e-13 Z" id="矩形备份-4" fill="#B7C8FD"></path>
                <rect id="矩形" fill="#FFFFFF" x="3" y="5" width="4" height="1" rx="0.5"></rect>
                <rect id="矩形" fill="#B7C8FD" x="8" y="5" width="3" height="1" rx="0.5"></rect>
                <rect id="矩形" fill="#FFFFFF" transform="translate(6.500000, 8.000000) rotate(-270.000000) translate(-6.500000, -8.000000) " x="3.5" y="7.5" width="6" height="1" rx="0.5"></rect>
            </g>
        </g>
    </g>
</svg>