<?xml version="1.0" encoding="UTF-8"?>
<svg width="21px" height="17px" viewBox="0 0 21 17" version="1.1" xmlns="http://www.w3.org/2000/svg" xmlns:xlink="http://www.w3.org/1999/xlink">
    <!-- Generator: Sketch 57.1 (83088) - https://sketch.com -->
    <title>Refresh</title>
    <desc>Created with Sketch.</desc>
    <g id="banner" stroke="none" stroke-width="1" fill="none" fill-rule="evenodd">
        <g id="操作页面备份" transform="translate(-1066.000000, -246.000000)" fill="#212121" fill-rule="nonzero">
            <g id="Refresh" transform="translate(1066.000000, 246.000000)">
                <path d="M10.1321675,0.00502345929 C8.21903669,0.00502345929 6.45408756,0.645379823 5.03577761,1.72498888 C4.71559944,1.96843014 4.68649233,2.43943605 4.9722712,2.72521492 C5.20777415,2.96071788 5.58087435,2.98717889 5.84548441,2.78342913 C7.0362297,1.87846272 8.52333827,1.33865817 10.1295214,1.33865819 C13.8340623,1.33865819 16.8876624,4.19380079 17.2025484,7.81631258 C17.2316555,8.16295177 17.1972562,8.43814623 17.1972562,8.43814623 L15.5302128,8.45137672 L17.5544798,12.4840341 C17.7291224,12.4840341 20.2508563,8.43550013 20.2508563,8.43550013 L18.5626441,8.43550013 C18.5705824,7.99624742 18.5414753,7.79514376 18.533537,7.71046854 C18.1630829,3.39997059 14.5352789,0.00766954423 10.1321675,0.00502345929 Z M10.1321675,15.5376343 C6.2159385,15.5376343 3.03267942,12.3517291 3.03267942,8.43814623 L3.03267942,8.43020792 L4.71824552,8.41168522 L2.71514733,4.38961224 L0.016124674,8.43550013 L1.70169079,8.43550013 C1.69904469,13.1667281 5.72376377,16.871269 10.1321675,16.871269 C12.1167429,16.871269 13.9451985,16.1806367 15.3873234,15.029583 C15.6969171,14.7808495 15.720732,14.3177819 15.4402454,14.0372952 C15.1994502,13.7965 14.8184117,13.7753312 14.5538016,13.9870193 C13.3392415,14.9581382 11.801857,15.5376343 10.1321675,15.5376343 Z" id="形状"></path>
            </g>
        </g>
    </g>
</svg>