<?xml version="1.0" encoding="UTF-8"?>
<svg width="14px" height="15px" viewBox="0 0 14 15" version="1.1" xmlns="http://www.w3.org/2000/svg" xmlns:xlink="http://www.w3.org/1999/xlink">
    <!-- Generator: Sketch 57.1 (83088) - https://sketch.com -->
    <title>icon_图片格式</title>
    <desc>Created with Sketch.</desc>
    <g id="banner" stroke="none" stroke-width="1" fill="none" fill-rule="evenodd">
        <g id="操作页面备份" transform="translate(-353.000000, -414.000000)">
            <g id="icon_图片格式" transform="translate(353.000000, 414.000000)">
                <path d="M2,0 L10,0 L10,0 L14,4 L14,13 C14,14.1045695 13.1045695,15 12,15 L2,15 C0.8954305,15 1.3527075e-16,14.1045695 0,13 L0,2 C-1.3527075e-16,0.8954305 0.8954305,2.02906125e-16 2,0 Z" id="矩形" fill="#F27F49"></path>
                <path d="M10,4.54747351e-13 L14,4 L11,4 C10.4477153,4 10,3.55228475 10,3 L10,4.54747351e-13 L10,4.54747351e-13 Z" id="矩形备份-4" fill="#FFC9B4"></path>
                <path d="M11.3758125,11 L6,11 L6,11 L7.8088011,6.47799725 C7.87033512,6.32416219 8.04492626,6.24933742 8.19876131,6.31087144 C8.24689566,6.33012519 8.28921913,6.36152391 8.32160475,6.40200594 L11.6100732,10.5125915 C11.7135761,10.6419701 11.6925996,10.8307578 11.5632211,10.9342606 C11.5100271,10.9768158 11.443934,11 11.3758125,11 Z" id="路径-3" fill="#FFC9B4"></path>
                <circle id="椭圆形" fill="#FFFFFF" cx="5.25" cy="5.25" r="1"></circle>
                <path d="M4.81385728,7.37228543 L3.21708204,10.5658359 C3.14298526,10.7140295 3.20305257,10.8942314 3.35124612,10.9683282 C3.39290275,10.9891565 3.43883667,11 3.4854102,11 L9,11 L9,11 L5.29431748,7.29431748 C5.17716019,7.17716019 4.98721069,7.17716019 4.87005341,7.29431748 C4.84725301,7.31711787 4.82827752,7.34344496 4.81385728,7.37228543 Z" id="路径-2" fill="#FFFFFF"></path>
            </g>
        </g>
    </g>
</svg>