<?xml version="1.0" encoding="UTF-8"?>
<svg width="14px" height="15px" viewBox="0 0 14 15" version="1.1" xmlns="http://www.w3.org/2000/svg" xmlns:xlink="http://www.w3.org/1999/xlink">
    <!-- Generator: Sketch 57.1 (83088) - https://sketch.com -->
    <title>icon_未知格式</title>
    <desc>Created with Sketch.</desc>
    <g id="banner" stroke="none" stroke-width="1" fill="none" fill-rule="evenodd">
        <g id="操作页面备份" transform="translate(-353.000000, -586.000000)">
            <g id="icon_未知格式" transform="translate(353.000000, 586.000000)">
                <path d="M2,0 L10,0 L10,0 L14,4 L14,13 C14,14.1045695 13.1045695,15 12,15 L2,15 C0.8954305,15 1.3527075e-16,14.1045695 0,13 L0,2 C-1.3527075e-16,0.8954305 0.8954305,2.02906125e-16 2,0 Z" id="矩形" fill="#8F9FC0"></path>
                <path d="M10,4.54747351e-13 L14,4 L11,4 C10.4477153,4 10,3.55228475 10,3 L10,4.54747351e-13 L10,4.54747351e-13 Z" id="矩形备份-4" fill="#D6E1EF"></path>
                <path d="M7.09271523,5 C7.65783664,5 8.11699779,5.16346154 8.47019868,5.50961538 C8.82339956,5.84615385 9,6.30769231 9,6.88461538 C9,7.35576923 8.88520971,7.75 8.66445916,8.05769231 C8.58498896,8.16346154 8.33774834,8.41346154 7.92273731,8.80769231 C7.75496689,8.96153846 7.63134658,9.13461538 7.55187638,9.30769231 C7.45474614,9.5 7.41059603,9.71153846 7.41059603,9.94230769 L7.41059603,10.1057692 L6.46578366,10.1057692 L6.46578366,9.94230769 C6.46578366,9.58653846 6.5187638,9.27884615 6.64238411,9.02884615 C6.75717439,8.75961538 7.09271523,8.36538462 7.6401766,7.83653846 L7.79028698,7.65384615 C7.94922737,7.43269231 8.03752759,7.20192308 8.03752759,6.95192308 C8.03752759,6.61538462 7.94922737,6.35576923 7.78145695,6.16346154 C7.60485651,5.97115385 7.34878587,5.875 7.03090508,5.875 C6.63355408,5.875 6.34216336,6.00961538 6.16556291,6.28846154 C6.00662252,6.51923077 5.92715232,6.84615385 5.92715232,7.26923077 L5,7.26923077 C5,6.56730769 5.18543046,6.01923077 5.55629139,5.61538462 C5.92715232,5.20192308 6.4392936,5 7.09271523,5 Z" id="？" fill="#FFFFFF" fill-rule="nonzero"></path>
                <path d="M6.93377483,10.625 C7.1192053,10.625 7.2781457,10.6826923 7.401766,10.8173077 C7.52538631,10.9423077 7.58719647,11.1057692 7.58719647,11.3076923 C7.58719647,11.5096154 7.51655629,11.6730769 7.39293598,11.8076923 C7.26931567,11.9326923 7.11037528,12 6.93377483,12 C6.75717439,12 6.598234,11.9326923 6.47461369,11.7980769 C6.35099338,11.6634615 6.28918322,11.5 6.28918322,11.3076923 C6.28918322,11.1057692 6.35099338,10.9423077 6.47461369,10.8173077 C6.598234,10.6826923 6.75717439,10.625 6.93377483,10.625 Z" id="路径" fill="#E6EFFC"></path>
            </g>
        </g>
    </g>
</svg>