<?xml version="1.0" encoding="UTF-8"?>
<svg width="14px" height="15px" viewBox="0 0 14 15" version="1.1" xmlns="http://www.w3.org/2000/svg" xmlns:xlink="http://www.w3.org/1999/xlink">
    <!-- Generator: Sketch 57.1 (83088) - https://sketch.com -->
    <title>icon_视频格式</title>
    <desc>Created with Sketch.</desc>
    <g id="banner" stroke="none" stroke-width="1" fill="none" fill-rule="evenodd">
        <g id="操作页面备份" transform="translate(-353.000000, -500.000000)">
            <g id="icon_视频格式" transform="translate(353.000000, 500.000000)">
                <path d="M2,0 L10,0 L10,0 L14,4 L14,13 C14,14.1045695 13.1045695,15 12,15 L2,15 C0.8954305,15 1.3527075e-16,14.1045695 0,13 L0,2 C-1.3527075e-16,0.8954305 0.8954305,2.02906125e-16 2,0 Z" id="矩形" fill="#888AFC"></path>
                <path d="M10,4.54747351e-13 L14,4 L11,4 C10.4477153,4 10,3.55228475 10,3 L10,4.54747351e-13 L10,4.54747351e-13 Z" id="矩形备份-4" fill="#CBCCFF"></path>
                <g id="编组-11" transform="translate(2.800000, 5.000000)">
                    <rect id="矩形" fill="#FFFFFF" x="0" y="0" width="6" height="5" rx="0.8"></rect>
                    <path d="M6.68461538,0.756410256 L8.08461538,0.173076923 C8.23755578,0.10935176 8.41319791,0.181674992 8.47692308,0.334615385 C8.49215685,0.371176436 8.5,0.410392195 8.5,0.45 L8.5,4.55 C8.5,4.71568542 8.36568542,4.85 8.2,4.85 C8.16039219,4.85 8.12117644,4.84215685 8.08461538,4.82692308 L6.68461538,4.24358974 C6.5728213,4.19700888 6.5,4.08777692 6.5,3.96666667 L6.5,1.03333333 C6.5,0.912223078 6.5728213,0.802991124 6.68461538,0.756410256 Z" id="矩形" fill="#DEDFFF"></path>
                </g>
            </g>
        </g>
    </g>
</svg>