<?xml version="1.0" encoding="UTF-8"?>
<svg width="14px" height="15px" viewBox="0 0 14 15" version="1.1" xmlns="http://www.w3.org/2000/svg" xmlns:xlink="http://www.w3.org/1999/xlink">
    <!-- Generator: Sketch 57.1 (83088) - https://sketch.com -->
    <title>icon_音乐格式</title>
    <desc>Created with Sketch.</desc>
    <g id="banner" stroke="none" stroke-width="1" fill="none" fill-rule="evenodd">
        <g id="操作页面备份" transform="translate(-353.000000, -543.000000)">
            <g id="icon_音乐格式" transform="translate(353.000000, 543.000000)">
                <path d="M2,0 L10,0 L10,0 L14,4 L14,13 C14,14.1045695 13.1045695,15 12,15 L2,15 C0.8954305,15 1.3527075e-16,14.1045695 0,13 L0,2 C-1.3527075e-16,0.8954305 0.8954305,2.02906125e-16 2,0 Z" id="矩形" fill="#F17D7D"></path>
                <path d="M10,4.54747351e-13 L14,4 L11,4 C10.4477153,4 10,3.55228475 10,3 L10,4.54747351e-13 L10,4.54747351e-13 Z" id="矩形备份-4" fill="#FFC3C3"></path>
                <g id="路径-4" transform="translate(4.000000, 4.000000)">
                    <g id="蒙版" fill="#FFFFFF" fill-rule="nonzero">
                        <path d="M5.73208253,3.34948 C5.69383853,3.34436838 5.6596921,3.31881032 5.62964325,3.27280582 C5.59959439,3.22680131 5.57637482,3.14245971 5.55998453,3.01978103 C5.53266739,2.82042816 5.46300868,2.67346932 5.3510084,2.5789045 C5.23900812,2.48433968 5.06554426,2.41661082 4.83061684,2.37571792 C4.58476256,2.32971342 4.36759129,2.2364265 4.17910301,2.09585717 C3.99061473,1.95528784 3.83354116,1.82366384 3.70788231,1.70098515 C3.58768688,1.5936413 3.4948086,1.55530421 3.42924746,1.58597388 C3.36368632,1.61664355 3.33090575,1.67287129 3.33090575,1.75465708 L3.33090575,2.08435604 L3.33090575,2.80509333 C3.33090575,3.09134359 3.32953989,3.40059611 3.32680818,3.73285089 C3.32407646,4.06510566 3.32271061,4.3794698 3.32271061,4.67594329 L3.32271061,5.45801991 L3.32271061,5.89506273 C3.32817403,6.01774142 3.30768618,6.15447704 3.26124704,6.30526959 C3.21480789,6.45606214 3.12739304,6.59790937 2.99900247,6.73081128 C2.87061191,6.86371319 2.69987977,6.97744656 2.48680606,7.07201138 C2.27373235,7.1665762 2.00875608,7.22152602 1.69187723,7.23686086 C1.36953495,7.2521957 1.07860739,7.19852377 0.819094543,7.07584509 C0.559581694,6.9531664 0.3588007,6.79854014 0.216751562,6.6119663 C0.0747024237,6.42539247 0.00504371168,6.22092799 0.00777542587,5.99857287 C0.0105071401,5.77621775 0.112946423,5.56791957 0.315093273,5.37367832 C0.517240124,5.17943706 0.73577726,5.04397935 0.970704681,4.96730517 C1.2056321,4.89063099 1.43236438,4.84846019 1.65090152,4.84079277 C1.86943865,4.83312536 2.06475622,4.84718229 2.23685421,4.88296357 C2.40895221,4.91874485 2.53597692,4.95197033 2.61792834,4.98264 L2.61792834,2.81276074 C2.61792834,2.20959054 2.62066006,1.52974615 2.62612348,0.773227587 C2.62612348,0.624990842 2.6670992,0.503590059 2.74905062,0.409025238 C2.83100205,0.314460418 2.94027062,0.259510589 3.07685633,0.244175754 C3.19158832,0.228840918 3.28583246,0.250565269 3.35958875,0.309348806 C3.43334503,0.368132343 3.50846717,0.449918133 3.58495517,0.554706178 C3.66144317,0.659494222 3.75568731,0.778339199 3.86768759,0.911241109 C3.97968787,1.04414302 4.13129801,1.17448912 4.322518,1.30227942 C4.48642085,1.4198465 4.62983585,1.50418809 4.75276299,1.55530421 C4.87569013,1.60642033 4.99042212,1.65370274 5.09695898,1.69715144 C5.20349583,1.74060014 5.30866683,1.79299417 5.41247197,1.85433351 C5.51627711,1.91567285 5.6310091,2.01534928 5.75666796,2.15336281 C5.88232681,2.28626472 5.95881481,2.42427824 5.98613195,2.56740337 C6.01344909,2.71052851 6.01481495,2.84087461 5.99022952,2.95844168 C5.96564409,3.07600876 5.92603424,3.17185148 5.87139995,3.24596985 C5.81676567,3.32008823 5.77032653,3.35459161 5.73208253,3.34948 L5.73208253,3.34948 Z" id="路径"></path>
                    </g>
                    <path d="M2,0 C2,2.5289098 2,3.97276283 2,4.33155907 C2,4.65709522 2.17788267,4.86372731 2.533648,4.95145534 L2.53365666,4.9514202 C2.84996153,5.02941769 3.1154245,5.24360489 3.2585228,5.53627409 C3.40027683,5.82619392 3.48076923,5.98076923 3.5,6 C4.16666667,6.66666667 5,7 6,7 L6,0 L2,0 Z" fill="#FFDFDF"></path>
                </g>
            </g>
        </g>
    </g>
</svg>