<?xml version="1.0" encoding="UTF-8"?>
<svg width="10px" height="17px" viewBox="0 0 10 17" version="1.1" xmlns="http://www.w3.org/2000/svg" xmlns:xlink="http://www.w3.org/1999/xlink">
    <!-- Generator: Sketch 57.1 (83088) - https://sketch.com -->
    <title>normal_right</title>
    <desc>Created with Sketch.</desc>
    <g id="banner" stroke="none" stroke-width="1" fill="none" fill-rule="evenodd">
        <g id="操作页面备份" transform="translate(-382.000000, -247.000000)" fill="#999999">
            <path d="M394.731179,251.254151 C394.733915,251.256851 394.736633,251.259568 394.739333,251.262304 C395.08677,251.614327 395.086765,252.180223 394.739321,252.53224 L387.627462,259.737708 C387.48512,259.881924 387.305295,259.966682 387.118897,259.991782 L387.00651,259.999681 C386.781162,260.001158 386.55525,259.916668 386.382188,259.745861 L386.374035,259.737708 L386.374035,259.737708 L379.262176,252.53224 C378.914732,252.180223 378.914727,251.614327 379.262165,251.262304 C379.60378,250.91618 380.161302,250.912524 380.507427,251.254139 L380.51558,251.262292 L380.51558,251.262292 L386.99959,257.8323 L393.485917,251.262292 C393.827539,250.916174 394.385062,250.912529 394.731179,251.254151 Z" id="normal_right" transform="translate(387.000749, 255.500000) rotate(-90.000000) translate(-387.000749, -255.500000) "></path>
        </g>
    </g>
</svg>