<?xml version="1.0" encoding="UTF-8"?>
<svg width="13px" height="12px" viewBox="0 0 13 12" version="1.1" xmlns="http://www.w3.org/2000/svg" xmlns:xlink="http://www.w3.org/1999/xlink">
    <!-- Generator: Sketch 57.1 (83088) - https://sketch.com -->
    <title>icon_shanhcu</title>
    <desc>Created with Sketch.</desc>
    <g id="banner" stroke="none" stroke-width="1" fill="none" fill-rule="evenodd">
        <g id="操作页面备份" transform="translate(-677.000000, -373.000000)" fill="#666666" fill-rule="nonzero">
            <g id="icon_shanhcu" transform="translate(677.000000, 373.500000)">
                <path d="M2.94375,11.2707292 C2.27708333,11.2707292 1.81041667,10.7314699 1.81041667,10.1248032 L1.81041667,1.90109953 L11.0104167,1.90109953 L11.0104167,10.1248032 C10.94375,10.7314699 10.4104167,11.2707292 9.74375,11.2707292 L2.94375,11.2707292 Z M2.74375,2.91221064 L2.74375,10.1248032 C2.74375,10.1922107 2.81041667,10.3270255 2.94375,10.3270255 L9.81041667,10.3270255 C9.87708334,10.3270255 10.0104167,10.2596181 10.0104167,10.1248032 L10.0104167,2.91221064 L2.74375,2.91221064 Z" id="形状"></path>
                <path d="M12.2104167,2.84480325 L0.477083328,2.84480325 C0.210416656,2.84480325 0.0104166719,2.64258102 0.0104166719,2.37295139 C0.0104166719,2.10332175 0.210416672,1.90109953 0.477083328,1.90109953 L12.14375,1.90109953 C12.4104167,1.90109953 12.6104167,2.10332175 12.6104167,2.37295139 C12.6104167,2.64258102 12.4770833,2.84480325 12.2104167,2.84480325 Z M7.27708333,0.957395833 L5.34375,0.957395833 C5.07708333,0.957395833 4.87708333,0.755173611 4.87708333,0.485543976 C4.87708333,0.215914341 5.07708333,0.0136921349 5.34375,0.0136921349 L7.27708333,0.0136921349 C7.54375,0.0136921349 7.74375,0.215914357 7.74375,0.485543976 C7.74375,0.755173595 7.54375,0.957395833 7.27708333,0.957395833 Z M5.14375,9.11369213 C4.87708333,9.11369213 4.67708333,8.91146991 4.67708333,8.64184028 L4.67708333,4.52998842 C4.67708333,4.26035879 4.87708333,4.05813658 5.14375,4.05813658 C5.41041667,4.05813658 5.61041667,4.2603588 5.61041667,4.52998842 L5.61041667,8.64184028 C5.61041667,8.91146991 5.41041667,9.11369213 5.14375,9.11369213 Z M7.54375,9.11369213 C7.27708333,9.11369213 7.07708333,8.91146991 7.07708333,8.64184028 L7.07708333,4.52998842 C7.07708333,4.26035879 7.27708333,4.05813658 7.54375,4.05813658 C7.81041667,4.05813658 8.01041667,4.2603588 8.01041667,4.52998842 L8.01041667,8.64184028 C8.01041667,8.91146991 7.81041667,9.11369213 7.54375,9.11369213 Z" id="形状"></path>
            </g>
        </g>
    </g>
</svg>